<?xml version="1.0" encoding="utf-8" standalone="no"?>
<!DOCTYPE svg PUBLIC "-//W3C//DTD SVG 1.1//EN"
  "http://www.w3.org/Graphics/SVG/1.1/DTD/svg11.dtd">
<svg xmlns:xlink="http://www.w3.org/1999/xlink" width="1152pt" height="504pt" viewBox="0 0 1152 504" xmlns="http://www.w3.org/2000/svg" version="1.1">
 <metadata>
  <rdf:RDF xmlns:dc="http://purl.org/dc/elements/1.1/" xmlns:cc="http://creativecommons.org/ns#" xmlns:rdf="http://www.w3.org/1999/02/22-rdf-syntax-ns#">
   <cc:Work>
    <dc:type rdf:resource="http://purl.org/dc/dcmitype/StillImage"/>
    <dc:date>2026-06-05T17:08:59.614236</dc:date>
    <dc:format>image/svg+xml</dc:format>
    <dc:creator>
     <cc:Agent>
      <dc:title>Matplotlib v3.10.9, https://matplotlib.org/</dc:title>
     </cc:Agent>
    </dc:creator>
   </cc:Work>
  </rdf:RDF>
 </metadata>
 <defs>
  <style type="text/css">*{stroke-linejoin: round; stroke-linecap: butt}</style>
 </defs>
 <g id="figure_1">
  <g id="patch_1">
   <path d="M 0 504 
L 1152 504 
L 1152 0 
L 0 0 
z
" style="fill: #ffffff"/>
  </g>
  <g id="axes_1">
   <g id="patch_2">
    <path d="M 50.87 429.290542 
L 1062.922 429.290542 
L 1062.922 36.6 
L 50.87 36.6 
z
" style="fill: #ffffff"/>
   </g>
   <g id="patch_3">
    <path d="M 69.611704 429.290542 
L 77.94135 429.290542 
L 77.94135 429.290542 
L 69.611704 429.290542 
z
" clip-path="url(#p7e6bc4255e)" style="fill: #1f77b4"/>
   </g>
   <g id="patch_4">
    <path d="M 144.578519 429.290542 
L 152.908165 429.290542 
L 152.908165 425.762325 
L 144.578519 425.762325 
z
" clip-path="url(#p7e6bc4255e)" style="fill: #1f77b4"/>
   </g>
   <g id="patch_5">
    <path d="M 219.545333 429.290542 
L 227.874979 429.290542 
L 227.874979 422.234108 
L 219.545333 422.234108 
z
" clip-path="url(#p7e6bc4255e)" style="fill: #1f77b4"/>
   </g>
   <g id="patch_6">
    <path d="M 294.512148 429.290542 
L 302.841794 429.290542 
L 302.841794 429.290542 
L 294.512148 429.290542 
z
" clip-path="url(#p7e6bc4255e)" style="fill: #1f77b4"/>
   </g>
   <g id="patch_7">
    <path d="M 369.478963 429.290542 
L 377.808609 429.290542 
L 377.808609 404.593024 
L 369.478963 404.593024 
z
" clip-path="url(#p7e6bc4255e)" style="fill: #1f77b4"/>
   </g>
   <g id="patch_8">
    <path d="M 444.445778 429.290542 
L 452.775424 429.290542 
L 452.775424 372.839072 
L 444.445778 372.839072 
z
" clip-path="url(#p7e6bc4255e)" style="fill: #1f77b4"/>
   </g>
   <g id="patch_9">
    <path d="M 519.412593 429.290542 
L 527.742239 429.290542 
L 527.742239 422.234108 
L 519.412593 422.234108 
z
" clip-path="url(#p7e6bc4255e)" style="fill: #1f77b4"/>
   </g>
   <g id="patch_10">
    <path d="M 594.379407 429.290542 
L 602.709053 429.290542 
L 602.709053 429.290542 
L 594.379407 429.290542 
z
" clip-path="url(#p7e6bc4255e)" style="fill: #1f77b4"/>
   </g>
   <g id="patch_11">
    <path d="M 669.346222 429.290542 
L 677.675868 429.290542 
L 677.675868 425.762325 
L 669.346222 425.762325 
z
" clip-path="url(#p7e6bc4255e)" style="fill: #1f77b4"/>
   </g>
   <g id="patch_12">
    <path d="M 744.313037 429.290542 
L 752.642683 429.290542 
L 752.642683 429.290542 
L 744.313037 429.290542 
z
" clip-path="url(#p7e6bc4255e)" style="fill: #1f77b4"/>
   </g>
   <g id="patch_13">
    <path d="M 819.279852 429.290542 
L 827.609498 429.290542 
L 827.609498 429.290542 
L 819.279852 429.290542 
z
" clip-path="url(#p7e6bc4255e)" style="fill: #1f77b4"/>
   </g>
   <g id="patch_14">
    <path d="M 894.246667 429.290542 
L 902.576313 429.290542 
L 902.576313 341.085119 
L 894.246667 341.085119 
z
" clip-path="url(#p7e6bc4255e)" style="fill: #1f77b4"/>
   </g>
   <g id="patch_15">
    <path d="M 969.213481 429.290542 
L 977.543128 429.290542 
L 977.543128 270.520781 
L 969.213481 270.520781 
z
" clip-path="url(#p7e6bc4255e)" style="fill: #1f77b4"/>
   </g>
   <g id="patch_16">
    <path d="M 77.94135 429.290542 
L 86.270996 429.290542 
L 86.270996 429.290542 
L 77.94135 429.290542 
z
" clip-path="url(#p7e6bc4255e)" style="fill: #ff7f0e"/>
   </g>
   <g id="patch_17">
    <path d="M 152.908165 429.290542 
L 161.237811 429.290542 
L 161.237811 429.290542 
L 152.908165 429.290542 
z
" clip-path="url(#p7e6bc4255e)" style="fill: #ff7f0e"/>
   </g>
   <g id="patch_18">
    <path d="M 227.874979 429.290542 
L 236.204626 429.290542 
L 236.204626 425.762325 
L 227.874979 425.762325 
z
" clip-path="url(#p7e6bc4255e)" style="fill: #ff7f0e"/>
   </g>
   <g id="patch_19">
    <path d="M 302.841794 429.290542 
L 311.17144 429.290542 
L 311.17144 429.290542 
L 302.841794 429.290542 
z
" clip-path="url(#p7e6bc4255e)" style="fill: #ff7f0e"/>
   </g>
   <g id="patch_20">
    <path d="M 377.808609 429.290542 
L 386.138255 429.290542 
L 386.138255 429.290542 
L 377.808609 429.290542 
z
" clip-path="url(#p7e6bc4255e)" style="fill: #ff7f0e"/>
   </g>
   <g id="patch_21">
    <path d="M 452.775424 429.290542 
L 461.10507 429.290542 
L 461.10507 425.762325 
L 452.775424 425.762325 
z
" clip-path="url(#p7e6bc4255e)" style="fill: #ff7f0e"/>
   </g>
   <g id="patch_22">
    <path d="M 527.742239 429.290542 
L 536.071885 429.290542 
L 536.071885 429.290542 
L 527.742239 429.290542 
z
" clip-path="url(#p7e6bc4255e)" style="fill: #ff7f0e"/>
   </g>
   <g id="patch_23">
    <path d="M 602.709053 429.290542 
L 611.0387 429.290542 
L 611.0387 429.290542 
L 602.709053 429.290542 
z
" clip-path="url(#p7e6bc4255e)" style="fill: #ff7f0e"/>
   </g>
   <g id="patch_24">
    <path d="M 677.675868 429.290542 
L 686.005514 429.290542 
L 686.005514 429.290542 
L 677.675868 429.290542 
z
" clip-path="url(#p7e6bc4255e)" style="fill: #ff7f0e"/>
   </g>
   <g id="patch_25">
    <path d="M 752.642683 429.290542 
L 760.972329 429.290542 
L 760.972329 429.290542 
L 752.642683 429.290542 
z
" clip-path="url(#p7e6bc4255e)" style="fill: #ff7f0e"/>
   </g>
   <g id="patch_26">
    <path d="M 827.609498 429.290542 
L 835.939144 429.290542 
L 835.939144 429.290542 
L 827.609498 429.290542 
z
" clip-path="url(#p7e6bc4255e)" style="fill: #ff7f0e"/>
   </g>
   <g id="patch_27">
    <path d="M 902.576313 429.290542 
L 910.905959 429.290542 
L 910.905959 425.762325 
L 902.576313 425.762325 
z
" clip-path="url(#p7e6bc4255e)" style="fill: #ff7f0e"/>
   </g>
   <g id="patch_28">
    <path d="M 977.543128 429.290542 
L 985.872774 429.290542 
L 985.872774 252.879697 
L 977.543128 252.879697 
z
" clip-path="url(#p7e6bc4255e)" style="fill: #ff7f0e"/>
   </g>
   <g id="patch_29">
    <path d="M 86.270996 429.290542 
L 94.600642 429.290542 
L 94.600642 429.290542 
L 86.270996 429.290542 
z
" clip-path="url(#p7e6bc4255e)" style="fill: #2ca02c"/>
   </g>
   <g id="patch_30">
    <path d="M 161.237811 429.290542 
L 169.567457 429.290542 
L 169.567457 429.290542 
L 161.237811 429.290542 
z
" clip-path="url(#p7e6bc4255e)" style="fill: #2ca02c"/>
   </g>
   <g id="patch_31">
    <path d="M 236.204626 429.290542 
L 244.534272 429.290542 
L 244.534272 429.290542 
L 236.204626 429.290542 
z
" clip-path="url(#p7e6bc4255e)" style="fill: #2ca02c"/>
   </g>
   <g id="patch_32">
    <path d="M 311.17144 429.290542 
L 319.501086 429.290542 
L 319.501086 429.290542 
L 311.17144 429.290542 
z
" clip-path="url(#p7e6bc4255e)" style="fill: #2ca02c"/>
   </g>
   <g id="patch_33">
    <path d="M 386.138255 429.290542 
L 394.467901 429.290542 
L 394.467901 422.234108 
L 386.138255 422.234108 
z
" clip-path="url(#p7e6bc4255e)" style="fill: #2ca02c"/>
   </g>
   <g id="patch_34">
    <path d="M 461.10507 429.290542 
L 469.434716 429.290542 
L 469.434716 415.177675 
L 461.10507 415.177675 
z
" clip-path="url(#p7e6bc4255e)" style="fill: #2ca02c"/>
   </g>
   <g id="patch_35">
    <path d="M 536.071885 429.290542 
L 544.401531 429.290542 
L 544.401531 429.290542 
L 536.071885 429.290542 
z
" clip-path="url(#p7e6bc4255e)" style="fill: #2ca02c"/>
   </g>
   <g id="patch_36">
    <path d="M 611.0387 429.290542 
L 619.368346 429.290542 
L 619.368346 429.290542 
L 611.0387 429.290542 
z
" clip-path="url(#p7e6bc4255e)" style="fill: #2ca02c"/>
   </g>
   <g id="patch_37">
    <path d="M 686.005514 429.290542 
L 694.33516 429.290542 
L 694.33516 429.290542 
L 686.005514 429.290542 
z
" clip-path="url(#p7e6bc4255e)" style="fill: #2ca02c"/>
   </g>
   <g id="patch_38">
    <path d="M 760.972329 429.290542 
L 769.301975 429.290542 
L 769.301975 429.290542 
L 760.972329 429.290542 
z
" clip-path="url(#p7e6bc4255e)" style="fill: #2ca02c"/>
   </g>
   <g id="patch_39">
    <path d="M 835.939144 429.290542 
L 844.26879 429.290542 
L 844.26879 429.290542 
L 835.939144 429.290542 
z
" clip-path="url(#p7e6bc4255e)" style="fill: #2ca02c"/>
   </g>
   <g id="patch_40">
    <path d="M 910.905959 429.290542 
L 919.235605 429.290542 
L 919.235605 408.121241 
L 910.905959 408.121241 
z
" clip-path="url(#p7e6bc4255e)" style="fill: #2ca02c"/>
   </g>
   <g id="patch_41">
    <path d="M 985.872774 429.290542 
L 994.20242 429.290542 
L 994.20242 358.726204 
L 985.872774 358.726204 
z
" clip-path="url(#p7e6bc4255e)" style="fill: #2ca02c"/>
   </g>
   <g id="patch_42">
    <path d="M 94.600642 429.290542 
L 102.930288 429.290542 
L 102.930288 404.593024 
L 94.600642 404.593024 
z
" clip-path="url(#p7e6bc4255e)" style="fill: #d62728"/>
   </g>
   <g id="patch_43">
    <path d="M 169.567457 429.290542 
L 177.897103 429.290542 
L 177.897103 425.762325 
L 169.567457 425.762325 
z
" clip-path="url(#p7e6bc4255e)" style="fill: #d62728"/>
   </g>
   <g id="patch_44">
    <path d="M 244.534272 429.290542 
L 252.863918 429.290542 
L 252.863918 397.53659 
L 244.534272 397.53659 
z
" clip-path="url(#p7e6bc4255e)" style="fill: #d62728"/>
   </g>
   <g id="patch_45">
    <path d="M 319.501086 429.290542 
L 327.830733 429.290542 
L 327.830733 411.649458 
L 319.501086 411.649458 
z
" clip-path="url(#p7e6bc4255e)" style="fill: #d62728"/>
   </g>
   <g id="patch_46">
    <path d="M 394.467901 429.290542 
L 402.797547 429.290542 
L 402.797547 394.008373 
L 394.467901 394.008373 
z
" clip-path="url(#p7e6bc4255e)" style="fill: #d62728"/>
   </g>
   <g id="patch_47">
    <path d="M 469.434716 429.290542 
L 477.764362 429.290542 
L 477.764362 284.633649 
L 469.434716 284.633649 
z
" clip-path="url(#p7e6bc4255e)" style="fill: #d62728"/>
   </g>
   <g id="patch_48">
    <path d="M 544.401531 429.290542 
L 552.731177 429.290542 
L 552.731177 425.762325 
L 544.401531 425.762325 
z
" clip-path="url(#p7e6bc4255e)" style="fill: #d62728"/>
   </g>
   <g id="patch_49">
    <path d="M 619.368346 429.290542 
L 627.697992 429.290542 
L 627.697992 418.705892 
L 619.368346 418.705892 
z
" clip-path="url(#p7e6bc4255e)" style="fill: #d62728"/>
   </g>
   <g id="patch_50">
    <path d="M 694.33516 429.290542 
L 702.664807 429.290542 
L 702.664807 379.895506 
L 694.33516 379.895506 
z
" clip-path="url(#p7e6bc4255e)" style="fill: #d62728"/>
   </g>
   <g id="patch_51">
    <path d="M 769.301975 429.290542 
L 777.631621 429.290542 
L 777.631621 425.762325 
L 769.301975 425.762325 
z
" clip-path="url(#p7e6bc4255e)" style="fill: #d62728"/>
   </g>
   <g id="patch_52">
    <path d="M 844.26879 429.290542 
L 852.598436 429.290542 
L 852.598436 425.762325 
L 844.26879 425.762325 
z
" clip-path="url(#p7e6bc4255e)" style="fill: #d62728"/>
   </g>
   <g id="patch_53">
    <path d="M 919.235605 429.290542 
L 927.565251 429.290542 
L 927.565251 376.367289 
L 919.235605 376.367289 
z
" clip-path="url(#p7e6bc4255e)" style="fill: #d62728"/>
   </g>
   <g id="patch_54">
    <path d="M 994.20242 429.290542 
L 1002.532066 429.290542 
L 1002.532066 175.258925 
L 994.20242 175.258925 
z
" clip-path="url(#p7e6bc4255e)" style="fill: #d62728"/>
   </g>
   <g id="patch_55">
    <path d="M 102.930288 429.290542 
L 111.259934 429.290542 
L 111.259934 429.290542 
L 102.930288 429.290542 
z
" clip-path="url(#p7e6bc4255e)" style="fill: #8c564b"/>
   </g>
   <g id="patch_56">
    <path d="M 177.897103 429.290542 
L 186.226749 429.290542 
L 186.226749 429.290542 
L 177.897103 429.290542 
z
" clip-path="url(#p7e6bc4255e)" style="fill: #8c564b"/>
   </g>
   <g id="patch_57">
    <path d="M 252.863918 429.290542 
L 261.193564 429.290542 
L 261.193564 425.762325 
L 252.863918 425.762325 
z
" clip-path="url(#p7e6bc4255e)" style="fill: #8c564b"/>
   </g>
   <g id="patch_58">
    <path d="M 327.830733 429.290542 
L 336.160379 429.290542 
L 336.160379 429.290542 
L 327.830733 429.290542 
z
" clip-path="url(#p7e6bc4255e)" style="fill: #8c564b"/>
   </g>
   <g id="patch_59">
    <path d="M 402.797547 429.290542 
L 411.127193 429.290542 
L 411.127193 429.290542 
L 402.797547 429.290542 
z
" clip-path="url(#p7e6bc4255e)" style="fill: #8c564b"/>
   </g>
   <g id="patch_60">
    <path d="M 477.764362 429.290542 
L 486.094008 429.290542 
L 486.094008 422.234108 
L 477.764362 422.234108 
z
" clip-path="url(#p7e6bc4255e)" style="fill: #8c564b"/>
   </g>
   <g id="patch_61">
    <path d="M 552.731177 429.290542 
L 561.060823 429.290542 
L 561.060823 429.290542 
L 552.731177 429.290542 
z
" clip-path="url(#p7e6bc4255e)" style="fill: #8c564b"/>
   </g>
   <g id="patch_62">
    <path d="M 627.697992 429.290542 
L 636.027638 429.290542 
L 636.027638 429.290542 
L 627.697992 429.290542 
z
" clip-path="url(#p7e6bc4255e)" style="fill: #8c564b"/>
   </g>
   <g id="patch_63">
    <path d="M 702.664807 429.290542 
L 710.994453 429.290542 
L 710.994453 429.290542 
L 702.664807 429.290542 
z
" clip-path="url(#p7e6bc4255e)" style="fill: #8c564b"/>
   </g>
   <g id="patch_64">
    <path d="M 777.631621 429.290542 
L 785.961267 429.290542 
L 785.961267 429.290542 
L 777.631621 429.290542 
z
" clip-path="url(#p7e6bc4255e)" style="fill: #8c564b"/>
   </g>
   <g id="patch_65">
    <path d="M 852.598436 429.290542 
L 860.928082 429.290542 
L 860.928082 429.290542 
L 852.598436 429.290542 
z
" clip-path="url(#p7e6bc4255e)" style="fill: #8c564b"/>
   </g>
   <g id="patch_66">
    <path d="M 927.565251 429.290542 
L 935.894897 429.290542 
L 935.894897 422.234108 
L 927.565251 422.234108 
z
" clip-path="url(#p7e6bc4255e)" style="fill: #8c564b"/>
   </g>
   <g id="patch_67">
    <path d="M 1002.532066 429.290542 
L 1010.861712 429.290542 
L 1010.861712 386.951939 
L 1002.532066 386.951939 
z
" clip-path="url(#p7e6bc4255e)" style="fill: #8c564b"/>
   </g>
   <g id="patch_68">
    <path d="M 111.259934 429.290542 
L 119.58958 429.290542 
L 119.58958 422.234108 
L 111.259934 422.234108 
z
" clip-path="url(#p7e6bc4255e)" style="fill: #e377c2"/>
   </g>
   <g id="patch_69">
    <path d="M 186.226749 429.290542 
L 194.556395 429.290542 
L 194.556395 425.762325 
L 186.226749 425.762325 
z
" clip-path="url(#p7e6bc4255e)" style="fill: #e377c2"/>
   </g>
   <g id="patch_70">
    <path d="M 261.193564 429.290542 
L 269.52321 429.290542 
L 269.52321 418.705892 
L 261.193564 418.705892 
z
" clip-path="url(#p7e6bc4255e)" style="fill: #e377c2"/>
   </g>
   <g id="patch_71">
    <path d="M 336.160379 429.290542 
L 344.490025 429.290542 
L 344.490025 418.705892 
L 336.160379 418.705892 
z
" clip-path="url(#p7e6bc4255e)" style="fill: #e377c2"/>
   </g>
   <g id="patch_72">
    <path d="M 411.127193 429.290542 
L 419.45684 429.290542 
L 419.45684 379.895506 
L 411.127193 379.895506 
z
" clip-path="url(#p7e6bc4255e)" style="fill: #e377c2"/>
   </g>
   <g id="patch_73">
    <path d="M 486.094008 429.290542 
L 494.423654 429.290542 
L 494.423654 295.2183 
L 486.094008 295.2183 
z
" clip-path="url(#p7e6bc4255e)" style="fill: #e377c2"/>
   </g>
   <g id="patch_74">
    <path d="M 561.060823 429.290542 
L 569.390469 429.290542 
L 569.390469 418.705892 
L 561.060823 418.705892 
z
" clip-path="url(#p7e6bc4255e)" style="fill: #e377c2"/>
   </g>
   <g id="patch_75">
    <path d="M 636.027638 429.290542 
L 644.357284 429.290542 
L 644.357284 418.705892 
L 636.027638 418.705892 
z
" clip-path="url(#p7e6bc4255e)" style="fill: #e377c2"/>
   </g>
   <g id="patch_76">
    <path d="M 710.994453 429.290542 
L 719.324099 429.290542 
L 719.324099 411.649458 
L 710.994453 411.649458 
z
" clip-path="url(#p7e6bc4255e)" style="fill: #e377c2"/>
   </g>
   <g id="patch_77">
    <path d="M 785.961267 429.290542 
L 794.290914 429.290542 
L 794.290914 429.290542 
L 785.961267 429.290542 
z
" clip-path="url(#p7e6bc4255e)" style="fill: #e377c2"/>
   </g>
   <g id="patch_78">
    <path d="M 860.928082 429.290542 
L 869.257728 429.290542 
L 869.257728 429.290542 
L 860.928082 429.290542 
z
" clip-path="url(#p7e6bc4255e)" style="fill: #e377c2"/>
   </g>
   <g id="patch_79">
    <path d="M 935.894897 429.290542 
L 944.224543 429.290542 
L 944.224543 383.423722 
L 935.894897 383.423722 
z
" clip-path="url(#p7e6bc4255e)" style="fill: #e377c2"/>
   </g>
   <g id="patch_80">
    <path d="M 1010.861712 429.290542 
L 1019.191358 429.290542 
L 1019.191358 55.29955 
L 1010.861712 55.29955 
z
" clip-path="url(#p7e6bc4255e)" style="fill: #e377c2"/>
   </g>
   <g id="patch_81">
    <path d="M 119.58958 429.290542 
L 127.919226 429.290542 
L 127.919226 429.290542 
L 119.58958 429.290542 
z
" clip-path="url(#p7e6bc4255e)" style="fill: #7f7f7f"/>
   </g>
   <g id="patch_82">
    <path d="M 194.556395 429.290542 
L 202.886041 429.290542 
L 202.886041 429.290542 
L 194.556395 429.290542 
z
" clip-path="url(#p7e6bc4255e)" style="fill: #7f7f7f"/>
   </g>
   <g id="patch_83">
    <path d="M 269.52321 429.290542 
L 277.852856 429.290542 
L 277.852856 429.290542 
L 269.52321 429.290542 
z
" clip-path="url(#p7e6bc4255e)" style="fill: #7f7f7f"/>
   </g>
   <g id="patch_84">
    <path d="M 344.490025 429.290542 
L 352.819671 429.290542 
L 352.819671 429.290542 
L 344.490025 429.290542 
z
" clip-path="url(#p7e6bc4255e)" style="fill: #7f7f7f"/>
   </g>
   <g id="patch_85">
    <path d="M 419.45684 429.290542 
L 427.786486 429.290542 
L 427.786486 429.290542 
L 419.45684 429.290542 
z
" clip-path="url(#p7e6bc4255e)" style="fill: #7f7f7f"/>
   </g>
   <g id="patch_86">
    <path d="M 494.423654 429.290542 
L 502.7533 429.290542 
L 502.7533 422.234108 
L 494.423654 422.234108 
z
" clip-path="url(#p7e6bc4255e)" style="fill: #7f7f7f"/>
   </g>
   <g id="patch_87">
    <path d="M 569.390469 429.290542 
L 577.720115 429.290542 
L 577.720115 429.290542 
L 569.390469 429.290542 
z
" clip-path="url(#p7e6bc4255e)" style="fill: #7f7f7f"/>
   </g>
   <g id="patch_88">
    <path d="M 644.357284 429.290542 
L 652.68693 429.290542 
L 652.68693 429.290542 
L 644.357284 429.290542 
z
" clip-path="url(#p7e6bc4255e)" style="fill: #7f7f7f"/>
   </g>
   <g id="patch_89">
    <path d="M 719.324099 429.290542 
L 727.653745 429.290542 
L 727.653745 429.290542 
L 719.324099 429.290542 
z
" clip-path="url(#p7e6bc4255e)" style="fill: #7f7f7f"/>
   </g>
   <g id="patch_90">
    <path d="M 794.290914 429.290542 
L 802.62056 429.290542 
L 802.62056 429.290542 
L 794.290914 429.290542 
z
" clip-path="url(#p7e6bc4255e)" style="fill: #7f7f7f"/>
   </g>
   <g id="patch_91">
    <path d="M 869.257728 429.290542 
L 877.587374 429.290542 
L 877.587374 429.290542 
L 869.257728 429.290542 
z
" clip-path="url(#p7e6bc4255e)" style="fill: #7f7f7f"/>
   </g>
   <g id="patch_92">
    <path d="M 944.224543 429.290542 
L 952.554189 429.290542 
L 952.554189 411.649458 
L 944.224543 411.649458 
z
" clip-path="url(#p7e6bc4255e)" style="fill: #7f7f7f"/>
   </g>
   <g id="patch_93">
    <path d="M 1019.191358 429.290542 
L 1027.521004 429.290542 
L 1027.521004 390.480156 
L 1019.191358 390.480156 
z
" clip-path="url(#p7e6bc4255e)" style="fill: #7f7f7f"/>
   </g>
   <g id="patch_94">
    <path d="M 127.919226 429.290542 
L 136.248872 429.290542 
L 136.248872 429.290542 
L 127.919226 429.290542 
z
" clip-path="url(#p7e6bc4255e)" style="fill: #bcbd22"/>
   </g>
   <g id="patch_95">
    <path d="M 202.886041 429.290542 
L 211.215687 429.290542 
L 211.215687 429.290542 
L 202.886041 429.290542 
z
" clip-path="url(#p7e6bc4255e)" style="fill: #bcbd22"/>
   </g>
   <g id="patch_96">
    <path d="M 277.852856 429.290542 
L 286.182502 429.290542 
L 286.182502 429.290542 
L 277.852856 429.290542 
z
" clip-path="url(#p7e6bc4255e)" style="fill: #bcbd22"/>
   </g>
   <g id="patch_97">
    <path d="M 352.819671 429.290542 
L 361.149317 429.290542 
L 361.149317 429.290542 
L 352.819671 429.290542 
z
" clip-path="url(#p7e6bc4255e)" style="fill: #bcbd22"/>
   </g>
   <g id="patch_98">
    <path d="M 427.786486 429.290542 
L 436.116132 429.290542 
L 436.116132 429.290542 
L 427.786486 429.290542 
z
" clip-path="url(#p7e6bc4255e)" style="fill: #bcbd22"/>
   </g>
   <g id="patch_99">
    <path d="M 502.7533 429.290542 
L 511.082947 429.290542 
L 511.082947 422.234108 
L 502.7533 422.234108 
z
" clip-path="url(#p7e6bc4255e)" style="fill: #bcbd22"/>
   </g>
   <g id="patch_100">
    <path d="M 577.720115 429.290542 
L 586.049761 429.290542 
L 586.049761 429.290542 
L 577.720115 429.290542 
z
" clip-path="url(#p7e6bc4255e)" style="fill: #bcbd22"/>
   </g>
   <g id="patch_101">
    <path d="M 652.68693 429.290542 
L 661.016576 429.290542 
L 661.016576 429.290542 
L 652.68693 429.290542 
z
" clip-path="url(#p7e6bc4255e)" style="fill: #bcbd22"/>
   </g>
   <g id="patch_102">
    <path d="M 727.653745 429.290542 
L 735.983391 429.290542 
L 735.983391 429.290542 
L 727.653745 429.290542 
z
" clip-path="url(#p7e6bc4255e)" style="fill: #bcbd22"/>
   </g>
   <g id="patch_103">
    <path d="M 802.62056 429.290542 
L 810.950206 429.290542 
L 810.950206 429.290542 
L 802.62056 429.290542 
z
" clip-path="url(#p7e6bc4255e)" style="fill: #bcbd22"/>
   </g>
   <g id="patch_104">
    <path d="M 877.587374 429.290542 
L 885.917021 429.290542 
L 885.917021 429.290542 
L 877.587374 429.290542 
z
" clip-path="url(#p7e6bc4255e)" style="fill: #bcbd22"/>
   </g>
   <g id="patch_105">
    <path d="M 952.554189 429.290542 
L 960.883835 429.290542 
L 960.883835 429.290542 
L 952.554189 429.290542 
z
" clip-path="url(#p7e6bc4255e)" style="fill: #bcbd22"/>
   </g>
   <g id="patch_106">
    <path d="M 1027.521004 429.290542 
L 1035.85065 429.290542 
L 1035.85065 355.197987 
L 1027.521004 355.197987 
z
" clip-path="url(#p7e6bc4255e)" style="fill: #bcbd22"/>
   </g>
   <g id="patch_107">
    <path d="M 136.248872 429.290542 
L 144.578519 429.290542 
L 144.578519 429.290542 
L 136.248872 429.290542 
z
" clip-path="url(#p7e6bc4255e)" style="fill: #17becf"/>
   </g>
   <g id="patch_108">
    <path d="M 211.215687 429.290542 
L 219.545333 429.290542 
L 219.545333 429.290542 
L 211.215687 429.290542 
z
" clip-path="url(#p7e6bc4255e)" style="fill: #17becf"/>
   </g>
   <g id="patch_109">
    <path d="M 286.182502 429.290542 
L 294.512148 429.290542 
L 294.512148 429.290542 
L 286.182502 429.290542 
z
" clip-path="url(#p7e6bc4255e)" style="fill: #17becf"/>
   </g>
   <g id="patch_110">
    <path d="M 361.149317 429.290542 
L 369.478963 429.290542 
L 369.478963 429.290542 
L 361.149317 429.290542 
z
" clip-path="url(#p7e6bc4255e)" style="fill: #17becf"/>
   </g>
   <g id="patch_111">
    <path d="M 436.116132 429.290542 
L 444.445778 429.290542 
L 444.445778 429.290542 
L 436.116132 429.290542 
z
" clip-path="url(#p7e6bc4255e)" style="fill: #17becf"/>
   </g>
   <g id="patch_112">
    <path d="M 511.082947 429.290542 
L 519.412593 429.290542 
L 519.412593 425.762325 
L 511.082947 425.762325 
z
" clip-path="url(#p7e6bc4255e)" style="fill: #17becf"/>
   </g>
   <g id="patch_113">
    <path d="M 586.049761 429.290542 
L 594.379407 429.290542 
L 594.379407 429.290542 
L 586.049761 429.290542 
z
" clip-path="url(#p7e6bc4255e)" style="fill: #17becf"/>
   </g>
   <g id="patch_114">
    <path d="M 661.016576 429.290542 
L 669.346222 429.290542 
L 669.346222 429.290542 
L 661.016576 429.290542 
z
" clip-path="url(#p7e6bc4255e)" style="fill: #17becf"/>
   </g>
   <g id="patch_115">
    <path d="M 735.983391 429.290542 
L 744.313037 429.290542 
L 744.313037 429.290542 
L 735.983391 429.290542 
z
" clip-path="url(#p7e6bc4255e)" style="fill: #17becf"/>
   </g>
   <g id="patch_116">
    <path d="M 810.950206 429.290542 
L 819.279852 429.290542 
L 819.279852 429.290542 
L 810.950206 429.290542 
z
" clip-path="url(#p7e6bc4255e)" style="fill: #17becf"/>
   </g>
   <g id="patch_117">
    <path d="M 885.917021 429.290542 
L 894.246667 429.290542 
L 894.246667 429.290542 
L 885.917021 429.290542 
z
" clip-path="url(#p7e6bc4255e)" style="fill: #17becf"/>
   </g>
   <g id="patch_118">
    <path d="M 960.883835 429.290542 
L 969.213481 429.290542 
L 969.213481 418.705892 
L 960.883835 418.705892 
z
" clip-path="url(#p7e6bc4255e)" style="fill: #17becf"/>
   </g>
   <g id="patch_119">
    <path d="M 1035.85065 429.290542 
L 1044.180296 429.290542 
L 1044.180296 394.008373 
L 1035.85065 394.008373 
z
" clip-path="url(#p7e6bc4255e)" style="fill: #17becf"/>
   </g>
   <g id="matplotlib.axis_1">
    <g id="xtick_1">
     <g id="line2d_1">
      <defs>
       <path id="mff5c77c3b4" d="M 0 0 
L 0 3.5 
" style="stroke: #000000; stroke-width: 0.8"/>
      </defs>
      <g>
       <use xlink:href="#mff5c77c3b4" x="107.095111" y="429.290542" style="stroke: #000000; stroke-width: 0.8"/>
      </g>
     </g>
     <g id="text_1">
      <!-- CommSec -->
      <g transform="translate(69.8571 477.430899) rotate(-45) scale(0.1 -0.1)">
       <defs>
        <path id="DejaVuSans-43" d="M 4122 4306 
L 4122 3641 
Q 3803 3938 3442 4084 
Q 3081 4231 2675 4231 
Q 1875 4231 1450 3742 
Q 1025 3253 1025 2328 
Q 1025 1406 1450 917 
Q 1875 428 2675 428 
Q 3081 428 3442 575 
Q 3803 722 4122 1019 
L 4122 359 
Q 3791 134 3420 21 
Q 3050 -91 2638 -91 
Q 1578 -91 968 557 
Q 359 1206 359 2328 
Q 359 3453 968 4101 
Q 1578 4750 2638 4750 
Q 3056 4750 3426 4639 
Q 3797 4528 4122 4306 
z
" transform="scale(0.015625)"/>
        <path id="DejaVuSans-6f" d="M 1959 3097 
Q 1497 3097 1228 2736 
Q 959 2375 959 1747 
Q 959 1119 1226 758 
Q 1494 397 1959 397 
Q 2419 397 2687 759 
Q 2956 1122 2956 1747 
Q 2956 2369 2687 2733 
Q 2419 3097 1959 3097 
z
M 1959 3584 
Q 2709 3584 3137 3096 
Q 3566 2609 3566 1747 
Q 3566 888 3137 398 
Q 2709 -91 1959 -91 
Q 1206 -91 779 398 
Q 353 888 353 1747 
Q 353 2609 779 3096 
Q 1206 3584 1959 3584 
z
" transform="scale(0.015625)"/>
        <path id="DejaVuSans-6d" d="M 3328 2828 
Q 3544 3216 3844 3400 
Q 4144 3584 4550 3584 
Q 5097 3584 5394 3201 
Q 5691 2819 5691 2113 
L 5691 0 
L 5113 0 
L 5113 2094 
Q 5113 2597 4934 2840 
Q 4756 3084 4391 3084 
Q 3944 3084 3684 2787 
Q 3425 2491 3425 1978 
L 3425 0 
L 2847 0 
L 2847 2094 
Q 2847 2600 2669 2842 
Q 2491 3084 2119 3084 
Q 1678 3084 1418 2786 
Q 1159 2488 1159 1978 
L 1159 0 
L 581 0 
L 581 3500 
L 1159 3500 
L 1159 2956 
Q 1356 3278 1631 3431 
Q 1906 3584 2284 3584 
Q 2666 3584 2933 3390 
Q 3200 3197 3328 2828 
z
" transform="scale(0.015625)"/>
        <path id="DejaVuSans-53" d="M 3425 4513 
L 3425 3897 
Q 3066 4069 2747 4153 
Q 2428 4238 2131 4238 
Q 1616 4238 1336 4038 
Q 1056 3838 1056 3469 
Q 1056 3159 1242 3001 
Q 1428 2844 1947 2747 
L 2328 2669 
Q 3034 2534 3370 2195 
Q 3706 1856 3706 1288 
Q 3706 609 3251 259 
Q 2797 -91 1919 -91 
Q 1588 -91 1214 -16 
Q 841 59 441 206 
L 441 856 
Q 825 641 1194 531 
Q 1563 422 1919 422 
Q 2459 422 2753 634 
Q 3047 847 3047 1241 
Q 3047 1584 2836 1778 
Q 2625 1972 2144 2069 
L 1759 2144 
Q 1053 2284 737 2584 
Q 422 2884 422 3419 
Q 422 4038 858 4394 
Q 1294 4750 2059 4750 
Q 2388 4750 2728 4690 
Q 3069 4631 3425 4513 
z
" transform="scale(0.015625)"/>
        <path id="DejaVuSans-65" d="M 3597 1894 
L 3597 1613 
L 953 1613 
Q 991 1019 1311 708 
Q 1631 397 2203 397 
Q 2534 397 2845 478 
Q 3156 559 3463 722 
L 3463 178 
Q 3153 47 2828 -22 
Q 2503 -91 2169 -91 
Q 1331 -91 842 396 
Q 353 884 353 1716 
Q 353 2575 817 3079 
Q 1281 3584 2069 3584 
Q 2775 3584 3186 3129 
Q 3597 2675 3597 1894 
z
M 3022 2063 
Q 3016 2534 2758 2815 
Q 2500 3097 2075 3097 
Q 1594 3097 1305 2825 
Q 1016 2553 972 2059 
L 3022 2063 
z
" transform="scale(0.015625)"/>
        <path id="DejaVuSans-63" d="M 3122 3366 
L 3122 2828 
Q 2878 2963 2633 3030 
Q 2388 3097 2138 3097 
Q 1578 3097 1268 2742 
Q 959 2388 959 1747 
Q 959 1106 1268 751 
Q 1578 397 2138 397 
Q 2388 397 2633 464 
Q 2878 531 3122 666 
L 3122 134 
Q 2881 22 2623 -34 
Q 2366 -91 2075 -91 
Q 1284 -91 818 406 
Q 353 903 353 1747 
Q 353 2603 823 3093 
Q 1294 3584 2113 3584 
Q 2378 3584 2631 3529 
Q 2884 3475 3122 3366 
z
" transform="scale(0.015625)"/>
       </defs>
       <use xlink:href="#DejaVuSans-43"/>
       <use xlink:href="#DejaVuSans-6f" transform="translate(69.824219 0)"/>
       <use xlink:href="#DejaVuSans-6d" transform="translate(131.005859 0)"/>
       <use xlink:href="#DejaVuSans-6d" transform="translate(228.417969 0)"/>
       <use xlink:href="#DejaVuSans-53" transform="translate(325.830078 0)"/>
       <use xlink:href="#DejaVuSans-65" transform="translate(389.306641 0)"/>
       <use xlink:href="#DejaVuSans-63" transform="translate(450.830078 0)"/>
      </g>
     </g>
    </g>
    <g id="xtick_2">
     <g id="line2d_2">
      <g>
       <use xlink:href="#mff5c77c3b4" x="182.061926" y="429.290542" style="stroke: #000000; stroke-width: 0.8"/>
      </g>
     </g>
     <g id="text_2">
      <!-- EAC -->
      <g transform="translate(166.472431 455.782383) rotate(-45) scale(0.1 -0.1)">
       <defs>
        <path id="DejaVuSans-45" d="M 628 4666 
L 3578 4666 
L 3578 4134 
L 1259 4134 
L 1259 2753 
L 3481 2753 
L 3481 2222 
L 1259 2222 
L 1259 531 
L 3634 531 
L 3634 0 
L 628 0 
L 628 4666 
z
" transform="scale(0.015625)"/>
        <path id="DejaVuSans-41" d="M 2188 4044 
L 1331 1722 
L 3047 1722 
L 2188 4044 
z
M 1831 4666 
L 2547 4666 
L 4325 0 
L 3669 0 
L 3244 1197 
L 1141 1197 
L 716 0 
L 50 0 
L 1831 4666 
z
" transform="scale(0.015625)"/>
       </defs>
       <use xlink:href="#DejaVuSans-45"/>
       <use xlink:href="#DejaVuSans-41" transform="translate(63.183594 0)"/>
       <use xlink:href="#DejaVuSans-43" transform="translate(129.841797 0)"/>
      </g>
     </g>
    </g>
    <g id="xtick_3">
     <g id="line2d_3">
      <g>
       <use xlink:href="#mff5c77c3b4" x="257.028741" y="429.290542" style="stroke: #000000; stroke-width: 0.8"/>
      </g>
     </g>
     <g id="text_3">
      <!-- ECOWAS -->
      <g transform="translate(224.657613 472.564015) rotate(-45) scale(0.1 -0.1)">
       <defs>
        <path id="DejaVuSans-4f" d="M 2522 4238 
Q 1834 4238 1429 3725 
Q 1025 3213 1025 2328 
Q 1025 1447 1429 934 
Q 1834 422 2522 422 
Q 3209 422 3611 934 
Q 4013 1447 4013 2328 
Q 4013 3213 3611 3725 
Q 3209 4238 2522 4238 
z
M 2522 4750 
Q 3503 4750 4090 4092 
Q 4678 3434 4678 2328 
Q 4678 1225 4090 567 
Q 3503 -91 2522 -91 
Q 1538 -91 948 565 
Q 359 1222 359 2328 
Q 359 3434 948 4092 
Q 1538 4750 2522 4750 
z
" transform="scale(0.015625)"/>
        <path id="DejaVuSans-57" d="M 213 4666 
L 850 4666 
L 1831 722 
L 2809 4666 
L 3519 4666 
L 4500 722 
L 5478 4666 
L 6119 4666 
L 4947 0 
L 4153 0 
L 3169 4050 
L 2175 0 
L 1381 0 
L 213 4666 
z
" transform="scale(0.015625)"/>
       </defs>
       <use xlink:href="#DejaVuSans-45"/>
       <use xlink:href="#DejaVuSans-43" transform="translate(63.183594 0)"/>
       <use xlink:href="#DejaVuSans-4f" transform="translate(133.007812 0)"/>
       <use xlink:href="#DejaVuSans-57" transform="translate(211.71875 0)"/>
       <use xlink:href="#DejaVuSans-41" transform="translate(305.095703 0)"/>
       <use xlink:href="#DejaVuSans-53" transform="translate(373.503906 0)"/>
      </g>
     </g>
    </g>
    <g id="xtick_4">
     <g id="line2d_4">
      <g>
       <use xlink:href="#mff5c77c3b4" x="331.995556" y="429.290542" style="stroke: #000000; stroke-width: 0.8"/>
      </g>
     </g>
     <g id="text_4">
      <!-- EEC -->
      <g transform="translate(316.651338 455.537105) rotate(-45) scale(0.1 -0.1)">
       <use xlink:href="#DejaVuSans-45"/>
       <use xlink:href="#DejaVuSans-45" transform="translate(63.183594 0)"/>
       <use xlink:href="#DejaVuSans-43" transform="translate(126.367188 0)"/>
      </g>
     </g>
    </g>
    <g id="xtick_5">
     <g id="line2d_5">
      <g>
       <use xlink:href="#mff5c77c3b4" x="406.96237" y="429.290542" style="stroke: #000000; stroke-width: 0.8"/>
      </g>
     </g>
     <g id="text_5">
      <!-- EEC &amp; EU -->
      <g transform="translate(371.966109 475.189149) rotate(-45) scale(0.1 -0.1)">
       <defs>
        <path id="DejaVuSans-20" transform="scale(0.015625)"/>
        <path id="DejaVuSans-26" d="M 1556 2509 
Q 1272 2256 1139 2004 
Q 1006 1753 1006 1478 
Q 1006 1022 1337 719 
Q 1669 416 2169 416 
Q 2466 416 2725 514 
Q 2984 613 3213 813 
L 1556 2509 
z
M 1997 2859 
L 3584 1234 
Q 3769 1513 3872 1830 
Q 3975 2147 3994 2503 
L 4575 2503 
Q 4538 2091 4375 1687 
Q 4213 1284 3922 891 
L 4794 0 
L 4006 0 
L 3559 459 
Q 3234 181 2878 45 
Q 2522 -91 2113 -91 
Q 1359 -91 881 339 
Q 403 769 403 1441 
Q 403 1841 612 2192 
Q 822 2544 1241 2853 
Q 1091 3050 1012 3245 
Q 934 3441 934 3628 
Q 934 4134 1281 4442 
Q 1628 4750 2203 4750 
Q 2463 4750 2720 4694 
Q 2978 4638 3244 4525 
L 3244 3956 
Q 2972 4103 2725 4179 
Q 2478 4256 2266 4256 
Q 1938 4256 1733 4082 
Q 1528 3909 1528 3634 
Q 1528 3475 1620 3314 
Q 1713 3153 1997 2859 
z
" transform="scale(0.015625)"/>
        <path id="DejaVuSans-55" d="M 556 4666 
L 1191 4666 
L 1191 1831 
Q 1191 1081 1462 751 
Q 1734 422 2344 422 
Q 2950 422 3222 751 
Q 3494 1081 3494 1831 
L 3494 4666 
L 4128 4666 
L 4128 1753 
Q 4128 841 3676 375 
Q 3225 -91 2344 -91 
Q 1459 -91 1007 375 
Q 556 841 556 1753 
L 556 4666 
z
" transform="scale(0.015625)"/>
       </defs>
       <use xlink:href="#DejaVuSans-45"/>
       <use xlink:href="#DejaVuSans-45" transform="translate(63.183594 0)"/>
       <use xlink:href="#DejaVuSans-43" transform="translate(126.367188 0)"/>
       <use xlink:href="#DejaVuSans-20" transform="translate(196.191406 0)"/>
       <use xlink:href="#DejaVuSans-26" transform="translate(227.978516 0)"/>
       <use xlink:href="#DejaVuSans-20" transform="translate(305.957031 0)"/>
       <use xlink:href="#DejaVuSans-45" transform="translate(337.744141 0)"/>
       <use xlink:href="#DejaVuSans-55" transform="translate(400.927734 0)"/>
      </g>
     </g>
    </g>
    <g id="xtick_6">
     <g id="line2d_6">
      <g>
       <use xlink:href="#mff5c77c3b4" x="481.929185" y="429.290542" style="stroke: #000000; stroke-width: 0.8"/>
      </g>
     </g>
     <g id="text_6">
      <!-- EU -->
      <g transform="translate(470.815455 451.306618) rotate(-45) scale(0.1 -0.1)">
       <use xlink:href="#DejaVuSans-45"/>
       <use xlink:href="#DejaVuSans-55" transform="translate(63.183594 0)"/>
      </g>
     </g>
    </g>
    <g id="xtick_7">
     <g id="line2d_7">
      <g>
       <use xlink:href="#mff5c77c3b4" x="556.896" y="429.290542" style="stroke: #000000; stroke-width: 0.8"/>
      </g>
     </g>
     <g id="text_7">
      <!-- LAS -->
      <g transform="translate(542.000354 455.088534) rotate(-45) scale(0.1 -0.1)">
       <defs>
        <path id="DejaVuSans-4c" d="M 628 4666 
L 1259 4666 
L 1259 531 
L 3531 531 
L 3531 0 
L 628 0 
L 628 4666 
z
" transform="scale(0.015625)"/>
       </defs>
       <use xlink:href="#DejaVuSans-4c"/>
       <use xlink:href="#DejaVuSans-41" transform="translate(57.962891 0)"/>
       <use xlink:href="#DejaVuSans-53" transform="translate(126.371094 0)"/>
      </g>
     </g>
    </g>
    <g id="xtick_8">
     <g id="line2d_8">
      <g>
       <use xlink:href="#mff5c77c3b4" x="631.862815" y="429.290542" style="stroke: #000000; stroke-width: 0.8"/>
      </g>
     </g>
     <g id="text_8">
      <!-- OAS -->
      <g transform="translate(615.623666 456.432037) rotate(-45) scale(0.1 -0.1)">
       <use xlink:href="#DejaVuSans-4f"/>
       <use xlink:href="#DejaVuSans-41" transform="translate(76.960938 0)"/>
       <use xlink:href="#DejaVuSans-53" transform="translate(145.369141 0)"/>
      </g>
     </g>
    </g>
    <g id="xtick_9">
     <g id="line2d_9">
      <g>
       <use xlink:href="#mff5c77c3b4" x="706.82963" y="429.290542" style="stroke: #000000; stroke-width: 0.8"/>
      </g>
     </g>
     <g id="text_9">
      <!-- OAU -->
      <g transform="translate(689.904366 457.118152) rotate(-45) scale(0.1 -0.1)">
       <use xlink:href="#DejaVuSans-4f"/>
       <use xlink:href="#DejaVuSans-41" transform="translate(76.960938 0)"/>
       <use xlink:href="#DejaVuSans-55" transform="translate(145.369141 0)"/>
      </g>
     </g>
    </g>
    <g id="xtick_10">
     <g id="line2d_10">
      <g>
       <use xlink:href="#mff5c77c3b4" x="781.796444" y="429.290542" style="stroke: #000000; stroke-width: 0.8"/>
      </g>
     </g>
     <g id="text_10">
      <!-- SADC -->
      <g transform="translate(760.484909 461.504423) rotate(-45) scale(0.1 -0.1)">
       <defs>
        <path id="DejaVuSans-44" d="M 1259 4147 
L 1259 519 
L 2022 519 
Q 2988 519 3436 956 
Q 3884 1394 3884 2338 
Q 3884 3275 3436 3711 
Q 2988 4147 2022 4147 
L 1259 4147 
z
M 628 4666 
L 1925 4666 
Q 3281 4666 3915 4102 
Q 4550 3538 4550 2338 
Q 4550 1131 3912 565 
Q 3275 0 1925 0 
L 628 0 
L 628 4666 
z
" transform="scale(0.015625)"/>
       </defs>
       <use xlink:href="#DejaVuSans-53"/>
       <use xlink:href="#DejaVuSans-41" transform="translate(65.351562 0)"/>
       <use xlink:href="#DejaVuSans-44" transform="translate(133.759766 0)"/>
       <use xlink:href="#DejaVuSans-43" transform="translate(210.761719 0)"/>
      </g>
     </g>
    </g>
    <g id="xtick_11">
     <g id="line2d_11">
      <g>
       <use xlink:href="#mff5c77c3b4" x="856.763259" y="429.290542" style="stroke: #000000; stroke-width: 0.8"/>
      </g>
     </g>
     <g id="text_11">
      <!-- UM -->
      <g transform="translate(844.016555 452.939592) rotate(-45) scale(0.1 -0.1)">
       <defs>
        <path id="DejaVuSans-4d" d="M 628 4666 
L 1569 4666 
L 2759 1491 
L 3956 4666 
L 4897 4666 
L 4897 0 
L 4281 0 
L 4281 4097 
L 3078 897 
L 2444 897 
L 1241 4097 
L 1241 0 
L 628 0 
L 628 4666 
z
" transform="scale(0.015625)"/>
       </defs>
       <use xlink:href="#DejaVuSans-55"/>
       <use xlink:href="#DejaVuSans-4d" transform="translate(73.193359 0)"/>
      </g>
     </g>
    </g>
    <g id="xtick_12">
     <g id="line2d_12">
      <g>
       <use xlink:href="#mff5c77c3b4" x="931.730074" y="429.290542" style="stroke: #000000; stroke-width: 0.8"/>
      </g>
     </g>
     <g id="text_12">
      <!-- UN -->
      <g transform="translate(919.794333 452.128629) rotate(-45) scale(0.1 -0.1)">
       <defs>
        <path id="DejaVuSans-4e" d="M 628 4666 
L 1478 4666 
L 3547 763 
L 3547 4666 
L 4159 4666 
L 4159 0 
L 3309 0 
L 1241 3903 
L 1241 0 
L 628 0 
L 628 4666 
z
" transform="scale(0.015625)"/>
       </defs>
       <use xlink:href="#DejaVuSans-55"/>
       <use xlink:href="#DejaVuSans-4e" transform="translate(73.193359 0)"/>
      </g>
     </g>
    </g>
    <g id="xtick_13">
     <g id="line2d_13">
      <g>
       <use xlink:href="#mff5c77c3b4" x="1006.696889" y="429.290542" style="stroke: #000000; stroke-width: 0.8"/>
      </g>
     </g>
     <g id="text_13">
      <!-- USA -->
      <g transform="translate(990.592532 456.297245) rotate(-45) scale(0.1 -0.1)">
       <use xlink:href="#DejaVuSans-55"/>
       <use xlink:href="#DejaVuSans-53" transform="translate(73.193359 0)"/>
       <use xlink:href="#DejaVuSans-41" transform="translate(138.544922 0)"/>
      </g>
     </g>
    </g>
    <g id="text_14">
     <!-- Sender -->
     <g transform="translate(539.170219 490.499897) scale(0.1 -0.1)">
      <defs>
       <path id="DejaVuSans-6e" d="M 3513 2113 
L 3513 0 
L 2938 0 
L 2938 2094 
Q 2938 2591 2744 2837 
Q 2550 3084 2163 3084 
Q 1697 3084 1428 2787 
Q 1159 2491 1159 1978 
L 1159 0 
L 581 0 
L 581 3500 
L 1159 3500 
L 1159 2956 
Q 1366 3272 1645 3428 
Q 1925 3584 2291 3584 
Q 2894 3584 3203 3211 
Q 3513 2838 3513 2113 
z
" transform="scale(0.015625)"/>
       <path id="DejaVuSans-64" d="M 2906 2969 
L 2906 4863 
L 3481 4863 
L 3481 0 
L 2906 0 
L 2906 525 
Q 2725 213 2448 61 
Q 2172 -91 1784 -91 
Q 1150 -91 751 415 
Q 353 922 353 1747 
Q 353 2572 751 3078 
Q 1150 3584 1784 3584 
Q 2172 3584 2448 3432 
Q 2725 3281 2906 2969 
z
M 947 1747 
Q 947 1113 1208 752 
Q 1469 391 1925 391 
Q 2381 391 2643 752 
Q 2906 1113 2906 1747 
Q 2906 2381 2643 2742 
Q 2381 3103 1925 3103 
Q 1469 3103 1208 2742 
Q 947 2381 947 1747 
z
" transform="scale(0.015625)"/>
       <path id="DejaVuSans-72" d="M 2631 2963 
Q 2534 3019 2420 3045 
Q 2306 3072 2169 3072 
Q 1681 3072 1420 2755 
Q 1159 2438 1159 1844 
L 1159 0 
L 581 0 
L 581 3500 
L 1159 3500 
L 1159 2956 
Q 1341 3275 1631 3429 
Q 1922 3584 2338 3584 
Q 2397 3584 2469 3576 
Q 2541 3569 2628 3553 
L 2631 2963 
z
" transform="scale(0.015625)"/>
      </defs>
      <use xlink:href="#DejaVuSans-53"/>
      <use xlink:href="#DejaVuSans-65" transform="translate(63.476562 0)"/>
      <use xlink:href="#DejaVuSans-6e" transform="translate(125 0)"/>
      <use xlink:href="#DejaVuSans-64" transform="translate(188.378906 0)"/>
      <use xlink:href="#DejaVuSans-65" transform="translate(251.855469 0)"/>
      <use xlink:href="#DejaVuSans-72" transform="translate(313.378906 0)"/>
     </g>
    </g>
   </g>
   <g id="matplotlib.axis_2">
    <g id="ytick_1">
     <g id="line2d_14">
      <path d="M 50.87 429.290542 
L 1062.922 429.290542 
" clip-path="url(#p7e6bc4255e)" style="fill: none; stroke-dasharray: 2.96,1.28; stroke-dashoffset: 0; stroke: #b0b0b0; stroke-opacity: 0.5; stroke-width: 0.8"/>
     </g>
     <g id="line2d_15">
      <defs>
       <path id="mb3a59ecf66" d="M 0 0 
L -3.5 0 
" style="stroke: #000000; stroke-width: 0.8"/>
      </defs>
      <g>
       <use xlink:href="#mb3a59ecf66" x="50.87" y="429.290542" style="stroke: #000000; stroke-width: 0.8"/>
      </g>
     </g>
     <g id="text_15">
      <!-- 0 -->
      <g transform="translate(37.5075 433.089761) scale(0.1 -0.1)">
       <defs>
        <path id="DejaVuSans-30" d="M 2034 4250 
Q 1547 4250 1301 3770 
Q 1056 3291 1056 2328 
Q 1056 1369 1301 889 
Q 1547 409 2034 409 
Q 2525 409 2770 889 
Q 3016 1369 3016 2328 
Q 3016 3291 2770 3770 
Q 2525 4250 2034 4250 
z
M 2034 4750 
Q 2819 4750 3233 4129 
Q 3647 3509 3647 2328 
Q 3647 1150 3233 529 
Q 2819 -91 2034 -91 
Q 1250 -91 836 529 
Q 422 1150 422 2328 
Q 422 3509 836 4129 
Q 1250 4750 2034 4750 
z
" transform="scale(0.015625)"/>
       </defs>
       <use xlink:href="#DejaVuSans-30"/>
      </g>
     </g>
    </g>
    <g id="ytick_2">
     <g id="line2d_16">
      <path d="M 50.87 358.726204 
L 1062.922 358.726204 
" clip-path="url(#p7e6bc4255e)" style="fill: none; stroke-dasharray: 2.96,1.28; stroke-dashoffset: 0; stroke: #b0b0b0; stroke-opacity: 0.5; stroke-width: 0.8"/>
     </g>
     <g id="line2d_17">
      <g>
       <use xlink:href="#mb3a59ecf66" x="50.87" y="358.726204" style="stroke: #000000; stroke-width: 0.8"/>
      </g>
     </g>
     <g id="text_16">
      <!-- 20 -->
      <g transform="translate(31.145 362.525423) scale(0.1 -0.1)">
       <defs>
        <path id="DejaVuSans-32" d="M 1228 531 
L 3431 531 
L 3431 0 
L 469 0 
L 469 531 
Q 828 903 1448 1529 
Q 2069 2156 2228 2338 
Q 2531 2678 2651 2914 
Q 2772 3150 2772 3378 
Q 2772 3750 2511 3984 
Q 2250 4219 1831 4219 
Q 1534 4219 1204 4116 
Q 875 4013 500 3803 
L 500 4441 
Q 881 4594 1212 4672 
Q 1544 4750 1819 4750 
Q 2544 4750 2975 4387 
Q 3406 4025 3406 3419 
Q 3406 3131 3298 2873 
Q 3191 2616 2906 2266 
Q 2828 2175 2409 1742 
Q 1991 1309 1228 531 
z
" transform="scale(0.015625)"/>
       </defs>
       <use xlink:href="#DejaVuSans-32"/>
       <use xlink:href="#DejaVuSans-30" transform="translate(63.623047 0)"/>
      </g>
     </g>
    </g>
    <g id="ytick_3">
     <g id="line2d_18">
      <path d="M 50.87 288.161866 
L 1062.922 288.161866 
" clip-path="url(#p7e6bc4255e)" style="fill: none; stroke-dasharray: 2.96,1.28; stroke-dashoffset: 0; stroke: #b0b0b0; stroke-opacity: 0.5; stroke-width: 0.8"/>
     </g>
     <g id="line2d_19">
      <g>
       <use xlink:href="#mb3a59ecf66" x="50.87" y="288.161866" style="stroke: #000000; stroke-width: 0.8"/>
      </g>
     </g>
     <g id="text_17">
      <!-- 40 -->
      <g transform="translate(31.145 291.961085) scale(0.1 -0.1)">
       <defs>
        <path id="DejaVuSans-34" d="M 2419 4116 
L 825 1625 
L 2419 1625 
L 2419 4116 
z
M 2253 4666 
L 3047 4666 
L 3047 1625 
L 3713 1625 
L 3713 1100 
L 3047 1100 
L 3047 0 
L 2419 0 
L 2419 1100 
L 313 1100 
L 313 1709 
L 2253 4666 
z
" transform="scale(0.015625)"/>
       </defs>
       <use xlink:href="#DejaVuSans-34"/>
       <use xlink:href="#DejaVuSans-30" transform="translate(63.623047 0)"/>
      </g>
     </g>
    </g>
    <g id="ytick_4">
     <g id="line2d_20">
      <path d="M 50.87 217.597528 
L 1062.922 217.597528 
" clip-path="url(#p7e6bc4255e)" style="fill: none; stroke-dasharray: 2.96,1.28; stroke-dashoffset: 0; stroke: #b0b0b0; stroke-opacity: 0.5; stroke-width: 0.8"/>
     </g>
     <g id="line2d_21">
      <g>
       <use xlink:href="#mb3a59ecf66" x="50.87" y="217.597528" style="stroke: #000000; stroke-width: 0.8"/>
      </g>
     </g>
     <g id="text_18">
      <!-- 60 -->
      <g transform="translate(31.145 221.396746) scale(0.1 -0.1)">
       <defs>
        <path id="DejaVuSans-36" d="M 2113 2584 
Q 1688 2584 1439 2293 
Q 1191 2003 1191 1497 
Q 1191 994 1439 701 
Q 1688 409 2113 409 
Q 2538 409 2786 701 
Q 3034 994 3034 1497 
Q 3034 2003 2786 2293 
Q 2538 2584 2113 2584 
z
M 3366 4563 
L 3366 3988 
Q 3128 4100 2886 4159 
Q 2644 4219 2406 4219 
Q 1781 4219 1451 3797 
Q 1122 3375 1075 2522 
Q 1259 2794 1537 2939 
Q 1816 3084 2150 3084 
Q 2853 3084 3261 2657 
Q 3669 2231 3669 1497 
Q 3669 778 3244 343 
Q 2819 -91 2113 -91 
Q 1303 -91 875 529 
Q 447 1150 447 2328 
Q 447 3434 972 4092 
Q 1497 4750 2381 4750 
Q 2619 4750 2861 4703 
Q 3103 4656 3366 4563 
z
" transform="scale(0.015625)"/>
       </defs>
       <use xlink:href="#DejaVuSans-36"/>
       <use xlink:href="#DejaVuSans-30" transform="translate(63.623047 0)"/>
      </g>
     </g>
    </g>
    <g id="ytick_5">
     <g id="line2d_22">
      <path d="M 50.87 147.033189 
L 1062.922 147.033189 
" clip-path="url(#p7e6bc4255e)" style="fill: none; stroke-dasharray: 2.96,1.28; stroke-dashoffset: 0; stroke: #b0b0b0; stroke-opacity: 0.5; stroke-width: 0.8"/>
     </g>
     <g id="line2d_23">
      <g>
       <use xlink:href="#mb3a59ecf66" x="50.87" y="147.033189" style="stroke: #000000; stroke-width: 0.8"/>
      </g>
     </g>
     <g id="text_19">
      <!-- 80 -->
      <g transform="translate(31.145 150.832408) scale(0.1 -0.1)">
       <defs>
        <path id="DejaVuSans-38" d="M 2034 2216 
Q 1584 2216 1326 1975 
Q 1069 1734 1069 1313 
Q 1069 891 1326 650 
Q 1584 409 2034 409 
Q 2484 409 2743 651 
Q 3003 894 3003 1313 
Q 3003 1734 2745 1975 
Q 2488 2216 2034 2216 
z
M 1403 2484 
Q 997 2584 770 2862 
Q 544 3141 544 3541 
Q 544 4100 942 4425 
Q 1341 4750 2034 4750 
Q 2731 4750 3128 4425 
Q 3525 4100 3525 3541 
Q 3525 3141 3298 2862 
Q 3072 2584 2669 2484 
Q 3125 2378 3379 2068 
Q 3634 1759 3634 1313 
Q 3634 634 3220 271 
Q 2806 -91 2034 -91 
Q 1263 -91 848 271 
Q 434 634 434 1313 
Q 434 1759 690 2068 
Q 947 2378 1403 2484 
z
M 1172 3481 
Q 1172 3119 1398 2916 
Q 1625 2713 2034 2713 
Q 2441 2713 2670 2916 
Q 2900 3119 2900 3481 
Q 2900 3844 2670 4047 
Q 2441 4250 2034 4250 
Q 1625 4250 1398 4047 
Q 1172 3844 1172 3481 
z
" transform="scale(0.015625)"/>
       </defs>
       <use xlink:href="#DejaVuSans-38"/>
       <use xlink:href="#DejaVuSans-30" transform="translate(63.623047 0)"/>
      </g>
     </g>
    </g>
    <g id="ytick_6">
     <g id="line2d_24">
      <path d="M 50.87 76.468851 
L 1062.922 76.468851 
" clip-path="url(#p7e6bc4255e)" style="fill: none; stroke-dasharray: 2.96,1.28; stroke-dashoffset: 0; stroke: #b0b0b0; stroke-opacity: 0.5; stroke-width: 0.8"/>
     </g>
     <g id="line2d_25">
      <g>
       <use xlink:href="#mb3a59ecf66" x="50.87" y="76.468851" style="stroke: #000000; stroke-width: 0.8"/>
      </g>
     </g>
     <g id="text_20">
      <!-- 100 -->
      <g transform="translate(24.7825 80.26807) scale(0.1 -0.1)">
       <defs>
        <path id="DejaVuSans-31" d="M 794 531 
L 1825 531 
L 1825 4091 
L 703 3866 
L 703 4441 
L 1819 4666 
L 2450 4666 
L 2450 531 
L 3481 531 
L 3481 0 
L 794 0 
L 794 531 
z
" transform="scale(0.015625)"/>
       </defs>
       <use xlink:href="#DejaVuSans-31"/>
       <use xlink:href="#DejaVuSans-30" transform="translate(63.623047 0)"/>
       <use xlink:href="#DejaVuSans-30" transform="translate(127.246094 0)"/>
      </g>
     </g>
    </g>
    <g id="text_21">
     <!-- Number of Cases -->
     <g transform="translate(18.702812 275.870271) rotate(-90) scale(0.1 -0.1)">
      <defs>
       <path id="DejaVuSans-75" d="M 544 1381 
L 544 3500 
L 1119 3500 
L 1119 1403 
Q 1119 906 1312 657 
Q 1506 409 1894 409 
Q 2359 409 2629 706 
Q 2900 1003 2900 1516 
L 2900 3500 
L 3475 3500 
L 3475 0 
L 2900 0 
L 2900 538 
Q 2691 219 2414 64 
Q 2138 -91 1772 -91 
Q 1169 -91 856 284 
Q 544 659 544 1381 
z
M 1991 3584 
L 1991 3584 
z
" transform="scale(0.015625)"/>
       <path id="DejaVuSans-62" d="M 3116 1747 
Q 3116 2381 2855 2742 
Q 2594 3103 2138 3103 
Q 1681 3103 1420 2742 
Q 1159 2381 1159 1747 
Q 1159 1113 1420 752 
Q 1681 391 2138 391 
Q 2594 391 2855 752 
Q 3116 1113 3116 1747 
z
M 1159 2969 
Q 1341 3281 1617 3432 
Q 1894 3584 2278 3584 
Q 2916 3584 3314 3078 
Q 3713 2572 3713 1747 
Q 3713 922 3314 415 
Q 2916 -91 2278 -91 
Q 1894 -91 1617 61 
Q 1341 213 1159 525 
L 1159 0 
L 581 0 
L 581 4863 
L 1159 4863 
L 1159 2969 
z
" transform="scale(0.015625)"/>
       <path id="DejaVuSans-66" d="M 2375 4863 
L 2375 4384 
L 1825 4384 
Q 1516 4384 1395 4259 
Q 1275 4134 1275 3809 
L 1275 3500 
L 2222 3500 
L 2222 3053 
L 1275 3053 
L 1275 0 
L 697 0 
L 697 3053 
L 147 3053 
L 147 3500 
L 697 3500 
L 697 3744 
Q 697 4328 969 4595 
Q 1241 4863 1831 4863 
L 2375 4863 
z
" transform="scale(0.015625)"/>
       <path id="DejaVuSans-61" d="M 2194 1759 
Q 1497 1759 1228 1600 
Q 959 1441 959 1056 
Q 959 750 1161 570 
Q 1363 391 1709 391 
Q 2188 391 2477 730 
Q 2766 1069 2766 1631 
L 2766 1759 
L 2194 1759 
z
M 3341 1997 
L 3341 0 
L 2766 0 
L 2766 531 
Q 2569 213 2275 61 
Q 1981 -91 1556 -91 
Q 1019 -91 701 211 
Q 384 513 384 1019 
Q 384 1609 779 1909 
Q 1175 2209 1959 2209 
L 2766 2209 
L 2766 2266 
Q 2766 2663 2505 2880 
Q 2244 3097 1772 3097 
Q 1472 3097 1187 3025 
Q 903 2953 641 2809 
L 641 3341 
Q 956 3463 1253 3523 
Q 1550 3584 1831 3584 
Q 2591 3584 2966 3190 
Q 3341 2797 3341 1997 
z
" transform="scale(0.015625)"/>
       <path id="DejaVuSans-73" d="M 2834 3397 
L 2834 2853 
Q 2591 2978 2328 3040 
Q 2066 3103 1784 3103 
Q 1356 3103 1142 2972 
Q 928 2841 928 2578 
Q 928 2378 1081 2264 
Q 1234 2150 1697 2047 
L 1894 2003 
Q 2506 1872 2764 1633 
Q 3022 1394 3022 966 
Q 3022 478 2636 193 
Q 2250 -91 1575 -91 
Q 1294 -91 989 -36 
Q 684 19 347 128 
L 347 722 
Q 666 556 975 473 
Q 1284 391 1588 391 
Q 1994 391 2212 530 
Q 2431 669 2431 922 
Q 2431 1156 2273 1281 
Q 2116 1406 1581 1522 
L 1381 1569 
Q 847 1681 609 1914 
Q 372 2147 372 2553 
Q 372 3047 722 3315 
Q 1072 3584 1716 3584 
Q 2034 3584 2315 3537 
Q 2597 3491 2834 3397 
z
" transform="scale(0.015625)"/>
      </defs>
      <use xlink:href="#DejaVuSans-4e"/>
      <use xlink:href="#DejaVuSans-75" transform="translate(74.804688 0)"/>
      <use xlink:href="#DejaVuSans-6d" transform="translate(138.183594 0)"/>
      <use xlink:href="#DejaVuSans-62" transform="translate(235.595703 0)"/>
      <use xlink:href="#DejaVuSans-65" transform="translate(299.072266 0)"/>
      <use xlink:href="#DejaVuSans-72" transform="translate(360.595703 0)"/>
      <use xlink:href="#DejaVuSans-20" transform="translate(401.708984 0)"/>
      <use xlink:href="#DejaVuSans-6f" transform="translate(433.496094 0)"/>
      <use xlink:href="#DejaVuSans-66" transform="translate(494.677734 0)"/>
      <use xlink:href="#DejaVuSans-20" transform="translate(529.882812 0)"/>
      <use xlink:href="#DejaVuSans-43" transform="translate(561.669922 0)"/>
      <use xlink:href="#DejaVuSans-61" transform="translate(631.494141 0)"/>
      <use xlink:href="#DejaVuSans-73" transform="translate(692.773438 0)"/>
      <use xlink:href="#DejaVuSans-65" transform="translate(744.873047 0)"/>
      <use xlink:href="#DejaVuSans-73" transform="translate(806.396484 0)"/>
     </g>
    </g>
   </g>
   <g id="patch_120">
    <path d="M 50.87 429.290542 
L 50.87 36.6 
" style="fill: none; stroke: #000000; stroke-width: 0.8; stroke-linejoin: miter; stroke-linecap: square"/>
   </g>
   <g id="patch_121">
    <path d="M 1062.922 429.290542 
L 1062.922 36.6 
" style="fill: none; stroke: #000000; stroke-width: 0.8; stroke-linejoin: miter; stroke-linecap: square"/>
   </g>
   <g id="patch_122">
    <path d="M 50.87 429.290542 
L 1062.922 429.290542 
" style="fill: none; stroke: #000000; stroke-width: 0.8; stroke-linejoin: miter; stroke-linecap: square"/>
   </g>
   <g id="patch_123">
    <path d="M 50.87 36.6 
L 1062.922 36.6 
" style="fill: none; stroke: #000000; stroke-width: 0.8; stroke-linejoin: miter; stroke-linecap: square"/>
   </g>
   <g id="text_22">
    <!-- Sanction Regimes by Sender and Goal (absolute frequencies) -->
    <g transform="translate(341.944594 21.6) scale(0.14 -0.14)">
     <defs>
      <path id="DejaVuSans-74" d="M 1172 4494 
L 1172 3500 
L 2356 3500 
L 2356 3053 
L 1172 3053 
L 1172 1153 
Q 1172 725 1289 603 
Q 1406 481 1766 481 
L 2356 481 
L 2356 0 
L 1766 0 
Q 1100 0 847 248 
Q 594 497 594 1153 
L 594 3053 
L 172 3053 
L 172 3500 
L 594 3500 
L 594 4494 
L 1172 4494 
z
" transform="scale(0.015625)"/>
      <path id="DejaVuSans-69" d="M 603 3500 
L 1178 3500 
L 1178 0 
L 603 0 
L 603 3500 
z
M 603 4863 
L 1178 4863 
L 1178 4134 
L 603 4134 
L 603 4863 
z
" transform="scale(0.015625)"/>
      <path id="DejaVuSans-52" d="M 2841 2188 
Q 3044 2119 3236 1894 
Q 3428 1669 3622 1275 
L 4263 0 
L 3584 0 
L 2988 1197 
Q 2756 1666 2539 1819 
Q 2322 1972 1947 1972 
L 1259 1972 
L 1259 0 
L 628 0 
L 628 4666 
L 2053 4666 
Q 2853 4666 3247 4331 
Q 3641 3997 3641 3322 
Q 3641 2881 3436 2590 
Q 3231 2300 2841 2188 
z
M 1259 4147 
L 1259 2491 
L 2053 2491 
Q 2509 2491 2742 2702 
Q 2975 2913 2975 3322 
Q 2975 3731 2742 3939 
Q 2509 4147 2053 4147 
L 1259 4147 
z
" transform="scale(0.015625)"/>
      <path id="DejaVuSans-67" d="M 2906 1791 
Q 2906 2416 2648 2759 
Q 2391 3103 1925 3103 
Q 1463 3103 1205 2759 
Q 947 2416 947 1791 
Q 947 1169 1205 825 
Q 1463 481 1925 481 
Q 2391 481 2648 825 
Q 2906 1169 2906 1791 
z
M 3481 434 
Q 3481 -459 3084 -895 
Q 2688 -1331 1869 -1331 
Q 1566 -1331 1297 -1286 
Q 1028 -1241 775 -1147 
L 775 -588 
Q 1028 -725 1275 -790 
Q 1522 -856 1778 -856 
Q 2344 -856 2625 -561 
Q 2906 -266 2906 331 
L 2906 616 
Q 2728 306 2450 153 
Q 2172 0 1784 0 
Q 1141 0 747 490 
Q 353 981 353 1791 
Q 353 2603 747 3093 
Q 1141 3584 1784 3584 
Q 2172 3584 2450 3431 
Q 2728 3278 2906 2969 
L 2906 3500 
L 3481 3500 
L 3481 434 
z
" transform="scale(0.015625)"/>
      <path id="DejaVuSans-79" d="M 2059 -325 
Q 1816 -950 1584 -1140 
Q 1353 -1331 966 -1331 
L 506 -1331 
L 506 -850 
L 844 -850 
Q 1081 -850 1212 -737 
Q 1344 -625 1503 -206 
L 1606 56 
L 191 3500 
L 800 3500 
L 1894 763 
L 2988 3500 
L 3597 3500 
L 2059 -325 
z
" transform="scale(0.015625)"/>
      <path id="DejaVuSans-47" d="M 3809 666 
L 3809 1919 
L 2778 1919 
L 2778 2438 
L 4434 2438 
L 4434 434 
Q 4069 175 3628 42 
Q 3188 -91 2688 -91 
Q 1594 -91 976 548 
Q 359 1188 359 2328 
Q 359 3472 976 4111 
Q 1594 4750 2688 4750 
Q 3144 4750 3555 4637 
Q 3966 4525 4313 4306 
L 4313 3634 
Q 3963 3931 3569 4081 
Q 3175 4231 2741 4231 
Q 1884 4231 1454 3753 
Q 1025 3275 1025 2328 
Q 1025 1384 1454 906 
Q 1884 428 2741 428 
Q 3075 428 3337 486 
Q 3600 544 3809 666 
z
" transform="scale(0.015625)"/>
      <path id="DejaVuSans-6c" d="M 603 4863 
L 1178 4863 
L 1178 0 
L 603 0 
L 603 4863 
z
" transform="scale(0.015625)"/>
      <path id="DejaVuSans-28" d="M 1984 4856 
Q 1566 4138 1362 3434 
Q 1159 2731 1159 2009 
Q 1159 1288 1364 580 
Q 1569 -128 1984 -844 
L 1484 -844 
Q 1016 -109 783 600 
Q 550 1309 550 2009 
Q 550 2706 781 3412 
Q 1013 4119 1484 4856 
L 1984 4856 
z
" transform="scale(0.015625)"/>
      <path id="DejaVuSans-71" d="M 947 1747 
Q 947 1113 1208 752 
Q 1469 391 1925 391 
Q 2381 391 2643 752 
Q 2906 1113 2906 1747 
Q 2906 2381 2643 2742 
Q 2381 3103 1925 3103 
Q 1469 3103 1208 2742 
Q 947 2381 947 1747 
z
M 2906 525 
Q 2725 213 2448 61 
Q 2172 -91 1784 -91 
Q 1150 -91 751 415 
Q 353 922 353 1747 
Q 353 2572 751 3078 
Q 1150 3584 1784 3584 
Q 2172 3584 2448 3432 
Q 2725 3281 2906 2969 
L 2906 3500 
L 3481 3500 
L 3481 -1331 
L 2906 -1331 
L 2906 525 
z
" transform="scale(0.015625)"/>
      <path id="DejaVuSans-29" d="M 513 4856 
L 1013 4856 
Q 1481 4119 1714 3412 
Q 1947 2706 1947 2009 
Q 1947 1309 1714 600 
Q 1481 -109 1013 -844 
L 513 -844 
Q 928 -128 1133 580 
Q 1338 1288 1338 2009 
Q 1338 2731 1133 3434 
Q 928 4138 513 4856 
z
" transform="scale(0.015625)"/>
     </defs>
     <use xlink:href="#DejaVuSans-53"/>
     <use xlink:href="#DejaVuSans-61" transform="translate(63.476562 0)"/>
     <use xlink:href="#DejaVuSans-6e" transform="translate(124.755859 0)"/>
     <use xlink:href="#DejaVuSans-63" transform="translate(188.134766 0)"/>
     <use xlink:href="#DejaVuSans-74" transform="translate(243.115234 0)"/>
     <use xlink:href="#DejaVuSans-69" transform="translate(282.324219 0)"/>
     <use xlink:href="#DejaVuSans-6f" transform="translate(310.107422 0)"/>
     <use xlink:href="#DejaVuSans-6e" transform="translate(371.289062 0)"/>
     <use xlink:href="#DejaVuSans-20" transform="translate(434.667969 0)"/>
     <use xlink:href="#DejaVuSans-52" transform="translate(466.455078 0)"/>
     <use xlink:href="#DejaVuSans-65" transform="translate(531.4375 0)"/>
     <use xlink:href="#DejaVuSans-67" transform="translate(592.960938 0)"/>
     <use xlink:href="#DejaVuSans-69" transform="translate(656.4375 0)"/>
     <use xlink:href="#DejaVuSans-6d" transform="translate(684.220703 0)"/>
     <use xlink:href="#DejaVuSans-65" transform="translate(781.632812 0)"/>
     <use xlink:href="#DejaVuSans-73" transform="translate(843.15625 0)"/>
     <use xlink:href="#DejaVuSans-20" transform="translate(895.255859 0)"/>
     <use xlink:href="#DejaVuSans-62" transform="translate(927.042969 0)"/>
     <use xlink:href="#DejaVuSans-79" transform="translate(990.519531 0)"/>
     <use xlink:href="#DejaVuSans-20" transform="translate(1049.699219 0)"/>
     <use xlink:href="#DejaVuSans-53" transform="translate(1081.486328 0)"/>
     <use xlink:href="#DejaVuSans-65" transform="translate(1144.962891 0)"/>
     <use xlink:href="#DejaVuSans-6e" transform="translate(1206.486328 0)"/>
     <use xlink:href="#DejaVuSans-64" transform="translate(1269.865234 0)"/>
     <use xlink:href="#DejaVuSans-65" transform="translate(1333.341797 0)"/>
     <use xlink:href="#DejaVuSans-72" transform="translate(1394.865234 0)"/>
     <use xlink:href="#DejaVuSans-20" transform="translate(1435.978516 0)"/>
     <use xlink:href="#DejaVuSans-61" transform="translate(1467.765625 0)"/>
     <use xlink:href="#DejaVuSans-6e" transform="translate(1529.044922 0)"/>
     <use xlink:href="#DejaVuSans-64" transform="translate(1592.423828 0)"/>
     <use xlink:href="#DejaVuSans-20" transform="translate(1655.900391 0)"/>
     <use xlink:href="#DejaVuSans-47" transform="translate(1687.6875 0)"/>
     <use xlink:href="#DejaVuSans-6f" transform="translate(1765.177734 0)"/>
     <use xlink:href="#DejaVuSans-61" transform="translate(1826.359375 0)"/>
     <use xlink:href="#DejaVuSans-6c" transform="translate(1887.638672 0)"/>
     <use xlink:href="#DejaVuSans-20" transform="translate(1915.421875 0)"/>
     <use xlink:href="#DejaVuSans-28" transform="translate(1947.208984 0)"/>
     <use xlink:href="#DejaVuSans-61" transform="translate(1986.222656 0)"/>
     <use xlink:href="#DejaVuSans-62" transform="translate(2047.501953 0)"/>
     <use xlink:href="#DejaVuSans-73" transform="translate(2110.978516 0)"/>
     <use xlink:href="#DejaVuSans-6f" transform="translate(2163.078125 0)"/>
     <use xlink:href="#DejaVuSans-6c" transform="translate(2224.259766 0)"/>
     <use xlink:href="#DejaVuSans-75" transform="translate(2252.042969 0)"/>
     <use xlink:href="#DejaVuSans-74" transform="translate(2315.421875 0)"/>
     <use xlink:href="#DejaVuSans-65" transform="translate(2354.630859 0)"/>
     <use xlink:href="#DejaVuSans-20" transform="translate(2416.154297 0)"/>
     <use xlink:href="#DejaVuSans-66" transform="translate(2447.941406 0)"/>
     <use xlink:href="#DejaVuSans-72" transform="translate(2483.146484 0)"/>
     <use xlink:href="#DejaVuSans-65" transform="translate(2522.009766 0)"/>
     <use xlink:href="#DejaVuSans-71" transform="translate(2583.533203 0)"/>
     <use xlink:href="#DejaVuSans-75" transform="translate(2647.009766 0)"/>
     <use xlink:href="#DejaVuSans-65" transform="translate(2710.388672 0)"/>
     <use xlink:href="#DejaVuSans-6e" transform="translate(2771.912109 0)"/>
     <use xlink:href="#DejaVuSans-63" transform="translate(2835.291016 0)"/>
     <use xlink:href="#DejaVuSans-69" transform="translate(2890.271484 0)"/>
     <use xlink:href="#DejaVuSans-65" transform="translate(2918.054688 0)"/>
     <use xlink:href="#DejaVuSans-73" transform="translate(2979.578125 0)"/>
     <use xlink:href="#DejaVuSans-29" transform="translate(3031.677734 0)"/>
    </g>
   </g>
   <g id="legend_1">
    <g id="patch_124">
     <path d="M 1080.04252 191.38125 
L 1140.43627 191.38125 
Q 1142.43627 191.38125 1142.43627 189.38125 
L 1142.43627 43.6 
Q 1142.43627 41.6 1140.43627 41.6 
L 1080.04252 41.6 
Q 1078.04252 41.6 1078.04252 43.6 
L 1078.04252 189.38125 
Q 1078.04252 191.38125 1080.04252 191.38125 
z
" style="fill: #ffffff; opacity: 0.8; stroke: #cccccc; stroke-linejoin: miter"/>
    </g>
    <g id="text_23">
     <!-- Goal -->
     <g transform="translate(1098.852676 53.198437) scale(0.1 -0.1)">
      <use xlink:href="#DejaVuSans-47"/>
      <use xlink:href="#DejaVuSans-6f" transform="translate(77.490234 0)"/>
      <use xlink:href="#DejaVuSans-61" transform="translate(138.671875 0)"/>
      <use xlink:href="#DejaVuSans-6c" transform="translate(199.951172 0)"/>
     </g>
    </g>
    <g id="patch_125">
     <path d="M 1082.04252 67.876562 
L 1102.04252 67.876562 
L 1102.04252 60.876562 
L 1082.04252 60.876562 
z
" style="fill: #1f77b4"/>
    </g>
    <g id="text_24">
     <!-- AC -->
     <g transform="translate(1110.04252 67.876562) scale(0.1 -0.1)">
      <use xlink:href="#DejaVuSans-41"/>
      <use xlink:href="#DejaVuSans-43" transform="translate(66.658203 0)"/>
     </g>
    </g>
    <g id="patch_126">
     <path d="M 1082.04252 82.554688 
L 1102.04252 82.554688 
L 1102.04252 75.554688 
L 1082.04252 75.554688 
z
" style="fill: #ff7f0e"/>
    </g>
    <g id="text_25">
     <!-- CB -->
     <g transform="translate(1110.04252 82.554688) scale(0.1 -0.1)">
      <defs>
       <path id="DejaVuSans-42" d="M 1259 2228 
L 1259 519 
L 2272 519 
Q 2781 519 3026 730 
Q 3272 941 3272 1375 
Q 3272 1813 3026 2020 
Q 2781 2228 2272 2228 
L 1259 2228 
z
M 1259 4147 
L 1259 2741 
L 2194 2741 
Q 2656 2741 2882 2914 
Q 3109 3088 3109 3444 
Q 3109 3797 2882 3972 
Q 2656 4147 2194 4147 
L 1259 4147 
z
M 628 4666 
L 2241 4666 
Q 2963 4666 3353 4366 
Q 3744 4066 3744 3513 
Q 3744 3084 3544 2831 
Q 3344 2578 2956 2516 
Q 3422 2416 3680 2098 
Q 3938 1781 3938 1306 
Q 3938 681 3513 340 
Q 3088 0 2303 0 
L 628 0 
L 628 4666 
z
" transform="scale(0.015625)"/>
      </defs>
      <use xlink:href="#DejaVuSans-43"/>
      <use xlink:href="#DejaVuSans-42" transform="translate(69.824219 0)"/>
     </g>
    </g>
    <g id="patch_127">
     <path d="M 1082.04252 97.232812 
L 1102.04252 97.232812 
L 1102.04252 90.232812 
L 1082.04252 90.232812 
z
" style="fill: #2ca02c"/>
    </g>
    <g id="text_26">
     <!-- CT -->
     <g transform="translate(1110.04252 97.232812) scale(0.1 -0.1)">
      <defs>
       <path id="DejaVuSans-54" d="M -19 4666 
L 3928 4666 
L 3928 4134 
L 2272 4134 
L 2272 0 
L 1638 0 
L 1638 4134 
L -19 4134 
L -19 4666 
z
" transform="scale(0.015625)"/>
      </defs>
      <use xlink:href="#DejaVuSans-43"/>
      <use xlink:href="#DejaVuSans-54" transform="translate(69.824219 0)"/>
     </g>
    </g>
    <g id="patch_128">
     <path d="M 1082.04252 111.910937 
L 1102.04252 111.910937 
L 1102.04252 104.910937 
L 1082.04252 104.910937 
z
" style="fill: #d62728"/>
    </g>
    <g id="text_27">
     <!-- DM -->
     <g transform="translate(1110.04252 111.910937) scale(0.1 -0.1)">
      <use xlink:href="#DejaVuSans-44"/>
      <use xlink:href="#DejaVuSans-4d" transform="translate(77.001953 0)"/>
     </g>
    </g>
    <g id="patch_129">
     <path d="M 1082.04252 126.589062 
L 1102.04252 126.589062 
L 1102.04252 119.589062 
L 1082.04252 119.589062 
z
" style="fill: #8c564b"/>
    </g>
    <g id="text_28">
     <!-- DT -->
     <g transform="translate(1110.04252 126.589062) scale(0.1 -0.1)">
      <use xlink:href="#DejaVuSans-44"/>
      <use xlink:href="#DejaVuSans-54" transform="translate(77.001953 0)"/>
     </g>
    </g>
    <g id="patch_130">
     <path d="M 1082.04252 141.267187 
L 1102.04252 141.267187 
L 1102.04252 134.267187 
L 1082.04252 134.267187 
z
" style="fill: #e377c2"/>
    </g>
    <g id="text_29">
     <!-- HR -->
     <g transform="translate(1110.04252 141.267187) scale(0.1 -0.1)">
      <defs>
       <path id="DejaVuSans-48" d="M 628 4666 
L 1259 4666 
L 1259 2753 
L 3553 2753 
L 3553 4666 
L 4184 4666 
L 4184 0 
L 3553 0 
L 3553 2222 
L 1259 2222 
L 1259 0 
L 628 0 
L 628 4666 
z
" transform="scale(0.015625)"/>
      </defs>
      <use xlink:href="#DejaVuSans-48"/>
      <use xlink:href="#DejaVuSans-52" transform="translate(75.195312 0)"/>
     </g>
    </g>
    <g id="patch_131">
     <path d="M 1082.04252 155.945312 
L 1102.04252 155.945312 
L 1102.04252 148.945312 
L 1082.04252 148.945312 
z
" style="fill: #7f7f7f"/>
    </g>
    <g id="text_30">
     <!-- NP -->
     <g transform="translate(1110.04252 155.945312) scale(0.1 -0.1)">
      <defs>
       <path id="DejaVuSans-50" d="M 1259 4147 
L 1259 2394 
L 2053 2394 
Q 2494 2394 2734 2622 
Q 2975 2850 2975 3272 
Q 2975 3691 2734 3919 
Q 2494 4147 2053 4147 
L 1259 4147 
z
M 628 4666 
L 2053 4666 
Q 2838 4666 3239 4311 
Q 3641 3956 3641 3272 
Q 3641 2581 3239 2228 
Q 2838 1875 2053 1875 
L 1259 1875 
L 1259 0 
L 628 0 
L 628 4666 
z
" transform="scale(0.015625)"/>
      </defs>
      <use xlink:href="#DejaVuSans-4e"/>
      <use xlink:href="#DejaVuSans-50" transform="translate(74.804688 0)"/>
     </g>
    </g>
    <g id="patch_132">
     <path d="M 1082.04252 170.623437 
L 1102.04252 170.623437 
L 1102.04252 163.623437 
L 1082.04252 163.623437 
z
" style="fill: #bcbd22"/>
    </g>
    <g id="text_31">
     <!-- Other -->
     <g transform="translate(1110.04252 170.623437) scale(0.1 -0.1)">
      <defs>
       <path id="DejaVuSans-68" d="M 3513 2113 
L 3513 0 
L 2938 0 
L 2938 2094 
Q 2938 2591 2744 2837 
Q 2550 3084 2163 3084 
Q 1697 3084 1428 2787 
Q 1159 2491 1159 1978 
L 1159 0 
L 581 0 
L 581 4863 
L 1159 4863 
L 1159 2956 
Q 1366 3272 1645 3428 
Q 1925 3584 2291 3584 
Q 2894 3584 3203 3211 
Q 3513 2838 3513 2113 
z
" transform="scale(0.015625)"/>
      </defs>
      <use xlink:href="#DejaVuSans-4f"/>
      <use xlink:href="#DejaVuSans-74" transform="translate(78.710938 0)"/>
      <use xlink:href="#DejaVuSans-68" transform="translate(117.919922 0)"/>
      <use xlink:href="#DejaVuSans-65" transform="translate(181.298828 0)"/>
      <use xlink:href="#DejaVuSans-72" transform="translate(242.822266 0)"/>
     </g>
    </g>
    <g id="patch_133">
     <path d="M 1082.04252 185.301562 
L 1102.04252 185.301562 
L 1102.04252 178.301562 
L 1082.04252 178.301562 
z
" style="fill: #17becf"/>
    </g>
    <g id="text_32">
     <!-- WM -->
     <g transform="translate(1110.04252 185.301562) scale(0.1 -0.1)">
      <use xlink:href="#DejaVuSans-57"/>
      <use xlink:href="#DejaVuSans-4d" transform="translate(98.876953 0)"/>
     </g>
    </g>
   </g>
  </g>
 </g>
 <defs>
  <clipPath id="p7e6bc4255e">
   <rect x="50.87" y="36.6" width="1012.052" height="392.690542"/>
  </clipPath>
 </defs>
</svg>
