<?xml version="1.0" encoding="utf-8" standalone="no"?>
<!DOCTYPE svg PUBLIC "-//W3C//DTD SVG 1.1//EN"
  "http://www.w3.org/Graphics/SVG/1.1/DTD/svg11.dtd">
<svg xmlns:xlink="http://www.w3.org/1999/xlink" width="1008pt" height="432pt" viewBox="0 0 1008 432" xmlns="http://www.w3.org/2000/svg" version="1.1">
 <metadata>
  <rdf:RDF xmlns:dc="http://purl.org/dc/elements/1.1/" xmlns:cc="http://creativecommons.org/ns#" xmlns:rdf="http://www.w3.org/1999/02/22-rdf-syntax-ns#">
   <cc:Work>
    <dc:type rdf:resource="http://purl.org/dc/dcmitype/StillImage"/>
    <dc:date>2026-06-05T22:46:46.050420</dc:date>
    <dc:format>image/svg+xml</dc:format>
    <dc:creator>
     <cc:Agent>
      <dc:title>Matplotlib v3.10.9, https://matplotlib.org/</dc:title>
     </cc:Agent>
    </dc:creator>
   </cc:Work>
  </rdf:RDF>
 </metadata>
 <defs>
  <style type="text/css">*{stroke-linejoin: round; stroke-linecap: butt}</style>
 </defs>
 <g id="figure_1">
  <g id="patch_1">
   <path d="M 0 432 
L 1008 432 
L 1008 0 
L 0 0 
z
" style="fill: #ffffff"/>
  </g>
  <g id="axes_1">
   <g id="patch_2">
    <path d="M 60.32 357.290542 
L 796.288 357.290542 
L 796.288 36.6 
L 60.32 36.6 
z
" style="fill: #ffffff"/>
   </g>
   <g id="patch_3">
    <path d="M 74.206189 357.290542 
L 115.864755 357.290542 
L 115.864755 357.290542 
L 74.206189 357.290542 
z
" clip-path="url(#pb58a6cfc9e)" style="fill: #1f77b4"/>
   </g>
   <g id="patch_4">
    <path d="M 129.750943 357.290542 
L 171.409509 357.290542 
L 171.409509 357.290542 
L 129.750943 357.290542 
z
" clip-path="url(#pb58a6cfc9e)" style="fill: #1f77b4"/>
   </g>
   <g id="patch_5">
    <path d="M 185.295698 357.290542 
L 226.954264 357.290542 
L 226.954264 321.693892 
L 185.295698 321.693892 
z
" clip-path="url(#pb58a6cfc9e)" style="fill: #1f77b4"/>
   </g>
   <g id="patch_6">
    <path d="M 240.840453 357.290542 
L 282.499019 357.290542 
L 282.499019 357.290542 
L 240.840453 357.290542 
z
" clip-path="url(#pb58a6cfc9e)" style="fill: #1f77b4"/>
   </g>
   <g id="patch_7">
    <path d="M 296.385208 357.290542 
L 338.043774 357.290542 
L 338.043774 357.290542 
L 296.385208 357.290542 
z
" clip-path="url(#pb58a6cfc9e)" style="fill: #1f77b4"/>
   </g>
   <g id="patch_8">
    <path d="M 351.929962 357.290542 
L 393.588528 357.290542 
L 393.588528 346.707754 
L 351.929962 346.707754 
z
" clip-path="url(#pb58a6cfc9e)" style="fill: #1f77b4"/>
   </g>
   <g id="patch_9">
    <path d="M 407.474717 357.290542 
L 449.133283 357.290542 
L 449.133283 357.290542 
L 407.474717 357.290542 
z
" clip-path="url(#pb58a6cfc9e)" style="fill: #1f77b4"/>
   </g>
   <g id="patch_10">
    <path d="M 463.019472 357.290542 
L 504.678038 357.290542 
L 504.678038 357.290542 
L 463.019472 357.290542 
z
" clip-path="url(#pb58a6cfc9e)" style="fill: #1f77b4"/>
   </g>
   <g id="patch_11">
    <path d="M 518.564226 357.290542 
L 560.222792 357.290542 
L 560.222792 357.290542 
L 518.564226 357.290542 
z
" clip-path="url(#pb58a6cfc9e)" style="fill: #1f77b4"/>
   </g>
   <g id="patch_12">
    <path d="M 574.108981 357.290542 
L 615.767547 357.290542 
L 615.767547 357.290542 
L 574.108981 357.290542 
z
" clip-path="url(#pb58a6cfc9e)" style="fill: #1f77b4"/>
   </g>
   <g id="patch_13">
    <path d="M 629.653736 357.290542 
L 671.312302 357.290542 
L 671.312302 357.290542 
L 629.653736 357.290542 
z
" clip-path="url(#pb58a6cfc9e)" style="fill: #1f77b4"/>
   </g>
   <g id="patch_14">
    <path d="M 685.198491 357.290542 
L 726.857057 357.290542 
L 726.857057 347.349135 
L 685.198491 347.349135 
z
" clip-path="url(#pb58a6cfc9e)" style="fill: #1f77b4"/>
   </g>
   <g id="patch_15">
    <path d="M 740.743245 357.290542 
L 782.401811 357.290542 
L 782.401811 337.728419 
L 740.743245 337.728419 
z
" clip-path="url(#pb58a6cfc9e)" style="fill: #1f77b4"/>
   </g>
   <g id="patch_16">
    <path d="M 74.206189 357.290542 
L 115.864755 357.290542 
L 115.864755 357.290542 
L 74.206189 357.290542 
z
" clip-path="url(#pb58a6cfc9e)" style="fill: #2ca02c"/>
   </g>
   <g id="patch_17">
    <path d="M 129.750943 357.290542 
L 171.409509 357.290542 
L 171.409509 357.290542 
L 129.750943 357.290542 
z
" clip-path="url(#pb58a6cfc9e)" style="fill: #2ca02c"/>
   </g>
   <g id="patch_18">
    <path d="M 185.295698 321.693892 
L 226.954264 321.693892 
L 226.954264 321.693892 
L 185.295698 321.693892 
z
" clip-path="url(#pb58a6cfc9e)" style="fill: #2ca02c"/>
   </g>
   <g id="patch_19">
    <path d="M 240.840453 357.290542 
L 282.499019 357.290542 
L 282.499019 357.290542 
L 240.840453 357.290542 
z
" clip-path="url(#pb58a6cfc9e)" style="fill: #2ca02c"/>
   </g>
   <g id="patch_20">
    <path d="M 296.385208 357.290542 
L 338.043774 357.290542 
L 338.043774 319.449058 
L 296.385208 319.449058 
z
" clip-path="url(#pb58a6cfc9e)" style="fill: #2ca02c"/>
   </g>
   <g id="patch_21">
    <path d="M 351.929962 346.707754 
L 393.588528 346.707754 
L 393.588528 330.993918 
L 351.929962 330.993918 
z
" clip-path="url(#pb58a6cfc9e)" style="fill: #2ca02c"/>
   </g>
   <g id="patch_22">
    <path d="M 407.474717 357.290542 
L 449.133283 357.290542 
L 449.133283 357.290542 
L 407.474717 357.290542 
z
" clip-path="url(#pb58a6cfc9e)" style="fill: #2ca02c"/>
   </g>
   <g id="patch_23">
    <path d="M 463.019472 357.290542 
L 504.678038 357.290542 
L 504.678038 250.500592 
L 463.019472 250.500592 
z
" clip-path="url(#pb58a6cfc9e)" style="fill: #2ca02c"/>
   </g>
   <g id="patch_24">
    <path d="M 518.564226 357.290542 
L 560.222792 357.290542 
L 560.222792 334.521514 
L 518.564226 334.521514 
z
" clip-path="url(#pb58a6cfc9e)" style="fill: #2ca02c"/>
   </g>
   <g id="patch_25">
    <path d="M 574.108981 357.290542 
L 615.767547 357.290542 
L 615.767547 357.290542 
L 574.108981 357.290542 
z
" clip-path="url(#pb58a6cfc9e)" style="fill: #2ca02c"/>
   </g>
   <g id="patch_26">
    <path d="M 629.653736 357.290542 
L 671.312302 357.290542 
L 671.312302 357.290542 
L 629.653736 357.290542 
z
" clip-path="url(#pb58a6cfc9e)" style="fill: #2ca02c"/>
   </g>
   <g id="patch_27">
    <path d="M 685.198491 347.349135 
L 726.857057 347.349135 
L 726.857057 347.349135 
L 685.198491 347.349135 
z
" clip-path="url(#pb58a6cfc9e)" style="fill: #2ca02c"/>
   </g>
   <g id="patch_28">
    <path d="M 740.743245 337.728419 
L 782.401811 337.728419 
L 782.401811 284.173099 
L 740.743245 284.173099 
z
" clip-path="url(#pb58a6cfc9e)" style="fill: #2ca02c"/>
   </g>
   <g id="patch_29">
    <path d="M 74.206189 357.290542 
L 115.864755 357.290542 
L 115.864755 357.290542 
L 74.206189 357.290542 
z
" clip-path="url(#pb58a6cfc9e)" style="fill: #9467bd"/>
   </g>
   <g id="patch_30">
    <path d="M 129.750943 357.290542 
L 171.409509 357.290542 
L 171.409509 357.290542 
L 129.750943 357.290542 
z
" clip-path="url(#pb58a6cfc9e)" style="fill: #9467bd"/>
   </g>
   <g id="patch_31">
    <path d="M 185.295698 321.693892 
L 226.954264 321.693892 
L 226.954264 286.097242 
L 185.295698 286.097242 
z
" clip-path="url(#pb58a6cfc9e)" style="fill: #9467bd"/>
   </g>
   <g id="patch_32">
    <path d="M 240.840453 357.290542 
L 282.499019 357.290542 
L 282.499019 357.290542 
L 240.840453 357.290542 
z
" clip-path="url(#pb58a6cfc9e)" style="fill: #9467bd"/>
   </g>
   <g id="patch_33">
    <path d="M 296.385208 319.449058 
L 338.043774 319.449058 
L 338.043774 319.449058 
L 296.385208 319.449058 
z
" clip-path="url(#pb58a6cfc9e)" style="fill: #9467bd"/>
   </g>
   <g id="patch_34">
    <path d="M 351.929962 330.993918 
L 393.588528 330.993918 
L 393.588528 315.280081 
L 351.929962 315.280081 
z
" clip-path="url(#pb58a6cfc9e)" style="fill: #9467bd"/>
   </g>
   <g id="patch_35">
    <path d="M 407.474717 357.290542 
L 449.133283 357.290542 
L 449.133283 357.290542 
L 407.474717 357.290542 
z
" clip-path="url(#pb58a6cfc9e)" style="fill: #9467bd"/>
   </g>
   <g id="patch_36">
    <path d="M 463.019472 250.500592 
L 504.678038 250.500592 
L 504.678038 250.500592 
L 463.019472 250.500592 
z
" clip-path="url(#pb58a6cfc9e)" style="fill: #9467bd"/>
   </g>
   <g id="patch_37">
    <path d="M 518.564226 334.521514 
L 560.222792 334.521514 
L 560.222792 334.521514 
L 518.564226 334.521514 
z
" clip-path="url(#pb58a6cfc9e)" style="fill: #9467bd"/>
   </g>
   <g id="patch_38">
    <path d="M 574.108981 357.290542 
L 615.767547 357.290542 
L 615.767547 357.290542 
L 574.108981 357.290542 
z
" clip-path="url(#pb58a6cfc9e)" style="fill: #9467bd"/>
   </g>
   <g id="patch_39">
    <path d="M 629.653736 357.290542 
L 671.312302 357.290542 
L 671.312302 357.290542 
L 629.653736 357.290542 
z
" clip-path="url(#pb58a6cfc9e)" style="fill: #9467bd"/>
   </g>
   <g id="patch_40">
    <path d="M 685.198491 347.349135 
L 726.857057 347.349135 
L 726.857057 307.262818 
L 685.198491 307.262818 
z
" clip-path="url(#pb58a6cfc9e)" style="fill: #9467bd"/>
   </g>
   <g id="patch_41">
    <path d="M 740.743245 284.173099 
L 782.401811 284.173099 
L 782.401811 259.159236 
L 740.743245 259.159236 
z
" clip-path="url(#pb58a6cfc9e)" style="fill: #9467bd"/>
   </g>
   <g id="patch_42">
    <path d="M 74.206189 357.290542 
L 115.864755 357.290542 
L 115.864755 174.176243 
L 74.206189 174.176243 
z
" clip-path="url(#pb58a6cfc9e)" style="fill: #e377c2"/>
   </g>
   <g id="patch_43">
    <path d="M 129.750943 357.290542 
L 171.409509 357.290542 
L 171.409509 357.290542 
L 129.750943 357.290542 
z
" clip-path="url(#pb58a6cfc9e)" style="fill: #e377c2"/>
   </g>
   <g id="patch_44">
    <path d="M 185.295698 286.097242 
L 226.954264 286.097242 
L 226.954264 143.710641 
L 185.295698 143.710641 
z
" clip-path="url(#pb58a6cfc9e)" style="fill: #e377c2"/>
   </g>
   <g id="patch_45">
    <path d="M 240.840453 357.290542 
L 282.499019 357.290542 
L 282.499019 229.014325 
L 240.840453 229.014325 
z
" clip-path="url(#pb58a6cfc9e)" style="fill: #e377c2"/>
   </g>
   <g id="patch_46">
    <path d="M 296.385208 319.449058 
L 338.043774 319.449058 
L 338.043774 149.803761 
L 296.385208 149.803761 
z
" clip-path="url(#pb58a6cfc9e)" style="fill: #e377c2"/>
   </g>
   <g id="patch_47">
    <path d="M 351.929962 315.280081 
L 393.588528 315.280081 
L 393.588528 257.555784 
L 351.929962 257.555784 
z
" clip-path="url(#pb58a6cfc9e)" style="fill: #e377c2"/>
   </g>
   <g id="patch_48">
    <path d="M 407.474717 357.290542 
L 449.133283 357.290542 
L 449.133283 357.290542 
L 407.474717 357.290542 
z
" clip-path="url(#pb58a6cfc9e)" style="fill: #e377c2"/>
   </g>
   <g id="patch_49">
    <path d="M 463.019472 250.500592 
L 504.678038 250.500592 
L 504.678038 143.710641 
L 463.019472 143.710641 
z
" clip-path="url(#pb58a6cfc9e)" style="fill: #e377c2"/>
   </g>
   <g id="patch_50">
    <path d="M 518.564226 334.521514 
L 560.222792 334.521514 
L 560.222792 105.548467 
L 518.564226 105.548467 
z
" clip-path="url(#pb58a6cfc9e)" style="fill: #e377c2"/>
   </g>
   <g id="patch_51">
    <path d="M 574.108981 357.290542 
L 615.767547 357.290542 
L 615.767547 36.6 
L 574.108981 36.6 
z
" clip-path="url(#pb58a6cfc9e)" style="fill: #e377c2"/>
   </g>
   <g id="patch_52">
    <path d="M 629.653736 357.290542 
L 671.312302 357.290542 
L 671.312302 36.6 
L 629.653736 36.6 
z
" clip-path="url(#pb58a6cfc9e)" style="fill: #e377c2"/>
   </g>
   <g id="patch_53">
    <path d="M 685.198491 307.262818 
L 726.857057 307.262818 
L 726.857057 207.207368 
L 685.198491 207.207368 
z
" clip-path="url(#pb58a6cfc9e)" style="fill: #e377c2"/>
   </g>
   <g id="patch_54">
    <path d="M 740.743245 259.159236 
L 782.401811 259.159236 
L 782.401811 195.021128 
L 740.743245 195.021128 
z
" clip-path="url(#pb58a6cfc9e)" style="fill: #e377c2"/>
   </g>
   <g id="patch_55">
    <path d="M 74.206189 174.176243 
L 115.864755 174.176243 
L 115.864755 82.458748 
L 74.206189 82.458748 
z
" clip-path="url(#pb58a6cfc9e)" style="fill: #bcbd22"/>
   </g>
   <g id="patch_56">
    <path d="M 129.750943 357.290542 
L 171.409509 357.290542 
L 171.409509 36.6 
L 129.750943 36.6 
z
" clip-path="url(#pb58a6cfc9e)" style="fill: #bcbd22"/>
   </g>
   <g id="patch_57">
    <path d="M 185.295698 143.710641 
L 226.954264 143.710641 
L 226.954264 36.920691 
L 185.295698 36.920691 
z
" clip-path="url(#pb58a6cfc9e)" style="fill: #bcbd22"/>
   </g>
   <g id="patch_58">
    <path d="M 240.840453 229.014325 
L 282.499019 229.014325 
L 282.499019 36.6 
L 240.840453 36.6 
z
" clip-path="url(#pb58a6cfc9e)" style="fill: #bcbd22"/>
   </g>
   <g id="patch_59">
    <path d="M 296.385208 149.803761 
L 338.043774 149.803761 
L 338.043774 93.362226 
L 296.385208 93.362226 
z
" clip-path="url(#pb58a6cfc9e)" style="fill: #bcbd22"/>
   </g>
   <g id="patch_60">
    <path d="M 351.929962 257.555784 
L 393.588528 257.555784 
L 393.588528 136.655449 
L 351.929962 136.655449 
z
" clip-path="url(#pb58a6cfc9e)" style="fill: #bcbd22"/>
   </g>
   <g id="patch_61">
    <path d="M 407.474717 357.290542 
L 449.133283 357.290542 
L 449.133283 250.500592 
L 407.474717 250.500592 
z
" clip-path="url(#pb58a6cfc9e)" style="fill: #bcbd22"/>
   </g>
   <g id="patch_62">
    <path d="M 463.019472 143.710641 
L 504.678038 143.710641 
L 504.678038 36.920691 
L 463.019472 36.920691 
z
" clip-path="url(#pb58a6cfc9e)" style="fill: #bcbd22"/>
   </g>
   <g id="patch_63">
    <path d="M 518.564226 105.548467 
L 560.222792 105.548467 
L 560.222792 36.920691 
L 518.564226 36.920691 
z
" clip-path="url(#pb58a6cfc9e)" style="fill: #bcbd22"/>
   </g>
   <g id="patch_64">
    <path d="M 574.108981 36.6 
L 615.767547 36.6 
L 615.767547 36.6 
L 574.108981 36.6 
z
" clip-path="url(#pb58a6cfc9e)" style="fill: #bcbd22"/>
   </g>
   <g id="patch_65">
    <path d="M 629.653736 36.6 
L 671.312302 36.6 
L 671.312302 36.6 
L 629.653736 36.6 
z
" clip-path="url(#pb58a6cfc9e)" style="fill: #bcbd22"/>
   </g>
   <g id="patch_66">
    <path d="M 685.198491 207.207368 
L 726.857057 207.207368 
L 726.857057 127.034733 
L 685.198491 127.034733 
z
" clip-path="url(#pb58a6cfc9e)" style="fill: #bcbd22"/>
   </g>
   <g id="patch_67">
    <path d="M 740.743245 195.021128 
L 782.401811 195.021128 
L 782.401811 133.448544 
L 740.743245 133.448544 
z
" clip-path="url(#pb58a6cfc9e)" style="fill: #bcbd22"/>
   </g>
   <g id="patch_68">
    <path d="M 74.206189 82.458748 
L 115.864755 82.458748 
L 115.864755 36.6 
L 74.206189 36.6 
z
" clip-path="url(#pb58a6cfc9e)" style="fill: #17becf"/>
   </g>
   <g id="patch_69">
    <path d="M 129.750943 36.6 
L 171.409509 36.6 
L 171.409509 36.6 
L 129.750943 36.6 
z
" clip-path="url(#pb58a6cfc9e)" style="fill: #17becf"/>
   </g>
   <g id="patch_70">
    <path d="M 185.295698 36.920691 
L 226.954264 36.920691 
L 226.954264 36.920691 
L 185.295698 36.920691 
z
" clip-path="url(#pb58a6cfc9e)" style="fill: #17becf"/>
   </g>
   <g id="patch_71">
    <path d="M 240.840453 36.6 
L 282.499019 36.6 
L 282.499019 36.6 
L 240.840453 36.6 
z
" clip-path="url(#pb58a6cfc9e)" style="fill: #17becf"/>
   </g>
   <g id="patch_72">
    <path d="M 296.385208 93.362226 
L 338.043774 93.362226 
L 338.043774 36.920691 
L 296.385208 36.920691 
z
" clip-path="url(#pb58a6cfc9e)" style="fill: #17becf"/>
   </g>
   <g id="patch_73">
    <path d="M 351.929962 136.655449 
L 393.588528 136.655449 
L 393.588528 36.920691 
L 351.929962 36.920691 
z
" clip-path="url(#pb58a6cfc9e)" style="fill: #17becf"/>
   </g>
   <g id="patch_74">
    <path d="M 407.474717 250.500592 
L 449.133283 250.500592 
L 449.133283 36.6 
L 407.474717 36.6 
z
" clip-path="url(#pb58a6cfc9e)" style="fill: #17becf"/>
   </g>
   <g id="patch_75">
    <path d="M 463.019472 36.920691 
L 504.678038 36.920691 
L 504.678038 36.920691 
L 463.019472 36.920691 
z
" clip-path="url(#pb58a6cfc9e)" style="fill: #17becf"/>
   </g>
   <g id="patch_76">
    <path d="M 518.564226 36.920691 
L 560.222792 36.920691 
L 560.222792 36.920691 
L 518.564226 36.920691 
z
" clip-path="url(#pb58a6cfc9e)" style="fill: #17becf"/>
   </g>
   <g id="patch_77">
    <path d="M 574.108981 36.6 
L 615.767547 36.6 
L 615.767547 36.6 
L 574.108981 36.6 
z
" clip-path="url(#pb58a6cfc9e)" style="fill: #17becf"/>
   </g>
   <g id="patch_78">
    <path d="M 629.653736 36.6 
L 671.312302 36.6 
L 671.312302 36.6 
L 629.653736 36.6 
z
" clip-path="url(#pb58a6cfc9e)" style="fill: #17becf"/>
   </g>
   <g id="patch_79">
    <path d="M 685.198491 127.034733 
L 726.857057 127.034733 
L 726.857057 36.920691 
L 685.198491 36.920691 
z
" clip-path="url(#pb58a6cfc9e)" style="fill: #17becf"/>
   </g>
   <g id="patch_80">
    <path d="M 740.743245 133.448544 
L 782.401811 133.448544 
L 782.401811 36.6 
L 740.743245 36.6 
z
" clip-path="url(#pb58a6cfc9e)" style="fill: #17becf"/>
   </g>
   <g id="matplotlib.axis_1">
    <g id="xtick_1">
     <g id="line2d_1">
      <defs>
       <path id="m43f2a6cec6" d="M 0 0 
L 0 3.5 
" style="stroke: #000000; stroke-width: 0.8"/>
      </defs>
      <g>
       <use xlink:href="#m43f2a6cec6" x="95.035472" y="357.290542" style="stroke: #000000; stroke-width: 0.8"/>
      </g>
     </g>
     <g id="text_1">
      <!-- CommSec -->
      <g transform="translate(79.10292 405.430899) rotate(-45) scale(0.1 -0.1)">
       <defs>
        <path id="DejaVuSans-43" d="M 4122 4306 
L 4122 3641 
Q 3803 3938 3442 4084 
Q 3081 4231 2675 4231 
Q 1875 4231 1450 3742 
Q 1025 3253 1025 2328 
Q 1025 1406 1450 917 
Q 1875 428 2675 428 
Q 3081 428 3442 575 
Q 3803 722 4122 1019 
L 4122 359 
Q 3791 134 3420 21 
Q 3050 -91 2638 -91 
Q 1578 -91 968 557 
Q 359 1206 359 2328 
Q 359 3453 968 4101 
Q 1578 4750 2638 4750 
Q 3056 4750 3426 4639 
Q 3797 4528 4122 4306 
z
" transform="scale(0.015625)"/>
        <path id="DejaVuSans-6f" d="M 1959 3097 
Q 1497 3097 1228 2736 
Q 959 2375 959 1747 
Q 959 1119 1226 758 
Q 1494 397 1959 397 
Q 2419 397 2687 759 
Q 2956 1122 2956 1747 
Q 2956 2369 2687 2733 
Q 2419 3097 1959 3097 
z
M 1959 3584 
Q 2709 3584 3137 3096 
Q 3566 2609 3566 1747 
Q 3566 888 3137 398 
Q 2709 -91 1959 -91 
Q 1206 -91 779 398 
Q 353 888 353 1747 
Q 353 2609 779 3096 
Q 1206 3584 1959 3584 
z
" transform="scale(0.015625)"/>
        <path id="DejaVuSans-6d" d="M 3328 2828 
Q 3544 3216 3844 3400 
Q 4144 3584 4550 3584 
Q 5097 3584 5394 3201 
Q 5691 2819 5691 2113 
L 5691 0 
L 5113 0 
L 5113 2094 
Q 5113 2597 4934 2840 
Q 4756 3084 4391 3084 
Q 3944 3084 3684 2787 
Q 3425 2491 3425 1978 
L 3425 0 
L 2847 0 
L 2847 2094 
Q 2847 2600 2669 2842 
Q 2491 3084 2119 3084 
Q 1678 3084 1418 2786 
Q 1159 2488 1159 1978 
L 1159 0 
L 581 0 
L 581 3500 
L 1159 3500 
L 1159 2956 
Q 1356 3278 1631 3431 
Q 1906 3584 2284 3584 
Q 2666 3584 2933 3390 
Q 3200 3197 3328 2828 
z
" transform="scale(0.015625)"/>
        <path id="DejaVuSans-53" d="M 3425 4513 
L 3425 3897 
Q 3066 4069 2747 4153 
Q 2428 4238 2131 4238 
Q 1616 4238 1336 4038 
Q 1056 3838 1056 3469 
Q 1056 3159 1242 3001 
Q 1428 2844 1947 2747 
L 2328 2669 
Q 3034 2534 3370 2195 
Q 3706 1856 3706 1288 
Q 3706 609 3251 259 
Q 2797 -91 1919 -91 
Q 1588 -91 1214 -16 
Q 841 59 441 206 
L 441 856 
Q 825 641 1194 531 
Q 1563 422 1919 422 
Q 2459 422 2753 634 
Q 3047 847 3047 1241 
Q 3047 1584 2836 1778 
Q 2625 1972 2144 2069 
L 1759 2144 
Q 1053 2284 737 2584 
Q 422 2884 422 3419 
Q 422 4038 858 4394 
Q 1294 4750 2059 4750 
Q 2388 4750 2728 4690 
Q 3069 4631 3425 4513 
z
" transform="scale(0.015625)"/>
        <path id="DejaVuSans-65" d="M 3597 1894 
L 3597 1613 
L 953 1613 
Q 991 1019 1311 708 
Q 1631 397 2203 397 
Q 2534 397 2845 478 
Q 3156 559 3463 722 
L 3463 178 
Q 3153 47 2828 -22 
Q 2503 -91 2169 -91 
Q 1331 -91 842 396 
Q 353 884 353 1716 
Q 353 2575 817 3079 
Q 1281 3584 2069 3584 
Q 2775 3584 3186 3129 
Q 3597 2675 3597 1894 
z
M 3022 2063 
Q 3016 2534 2758 2815 
Q 2500 3097 2075 3097 
Q 1594 3097 1305 2825 
Q 1016 2553 972 2059 
L 3022 2063 
z
" transform="scale(0.015625)"/>
        <path id="DejaVuSans-63" d="M 3122 3366 
L 3122 2828 
Q 2878 2963 2633 3030 
Q 2388 3097 2138 3097 
Q 1578 3097 1268 2742 
Q 959 2388 959 1747 
Q 959 1106 1268 751 
Q 1578 397 2138 397 
Q 2388 397 2633 464 
Q 2878 531 3122 666 
L 3122 134 
Q 2881 22 2623 -34 
Q 2366 -91 2075 -91 
Q 1284 -91 818 406 
Q 353 903 353 1747 
Q 353 2603 823 3093 
Q 1294 3584 2113 3584 
Q 2378 3584 2631 3529 
Q 2884 3475 3122 3366 
z
" transform="scale(0.015625)"/>
       </defs>
       <use xlink:href="#DejaVuSans-43"/>
       <use xlink:href="#DejaVuSans-6f" transform="translate(69.824219 0)"/>
       <use xlink:href="#DejaVuSans-6d" transform="translate(131.005859 0)"/>
       <use xlink:href="#DejaVuSans-6d" transform="translate(228.417969 0)"/>
       <use xlink:href="#DejaVuSans-53" transform="translate(325.830078 0)"/>
       <use xlink:href="#DejaVuSans-65" transform="translate(389.306641 0)"/>
       <use xlink:href="#DejaVuSans-63" transform="translate(450.830078 0)"/>
      </g>
     </g>
    </g>
    <g id="xtick_2">
     <g id="line2d_2">
      <g>
       <use xlink:href="#m43f2a6cec6" x="150.580226" y="357.290542" style="stroke: #000000; stroke-width: 0.8"/>
      </g>
     </g>
     <g id="text_2">
      <!-- EAC -->
      <g transform="translate(145.471932 383.782383) rotate(-45) scale(0.1 -0.1)">
       <defs>
        <path id="DejaVuSans-45" d="M 628 4666 
L 3578 4666 
L 3578 4134 
L 1259 4134 
L 1259 2753 
L 3481 2753 
L 3481 2222 
L 1259 2222 
L 1259 531 
L 3634 531 
L 3634 0 
L 628 0 
L 628 4666 
z
" transform="scale(0.015625)"/>
        <path id="DejaVuSans-41" d="M 2188 4044 
L 1331 1722 
L 3047 1722 
L 2188 4044 
z
M 1831 4666 
L 2547 4666 
L 4325 0 
L 3669 0 
L 3244 1197 
L 1141 1197 
L 716 0 
L 50 0 
L 1831 4666 
z
" transform="scale(0.015625)"/>
       </defs>
       <use xlink:href="#DejaVuSans-45"/>
       <use xlink:href="#DejaVuSans-41" transform="translate(63.183594 0)"/>
       <use xlink:href="#DejaVuSans-43" transform="translate(129.841797 0)"/>
      </g>
     </g>
    </g>
    <g id="xtick_3">
     <g id="line2d_3">
      <g>
       <use xlink:href="#m43f2a6cec6" x="206.124981" y="357.290542" style="stroke: #000000; stroke-width: 0.8"/>
      </g>
     </g>
     <g id="text_3">
      <!-- ECOWAS -->
      <g transform="translate(192.625871 400.564015) rotate(-45) scale(0.1 -0.1)">
       <defs>
        <path id="DejaVuSans-4f" d="M 2522 4238 
Q 1834 4238 1429 3725 
Q 1025 3213 1025 2328 
Q 1025 1447 1429 934 
Q 1834 422 2522 422 
Q 3209 422 3611 934 
Q 4013 1447 4013 2328 
Q 4013 3213 3611 3725 
Q 3209 4238 2522 4238 
z
M 2522 4750 
Q 3503 4750 4090 4092 
Q 4678 3434 4678 2328 
Q 4678 1225 4090 567 
Q 3503 -91 2522 -91 
Q 1538 -91 948 565 
Q 359 1222 359 2328 
Q 359 3434 948 4092 
Q 1538 4750 2522 4750 
z
" transform="scale(0.015625)"/>
        <path id="DejaVuSans-57" d="M 213 4666 
L 850 4666 
L 1831 722 
L 2809 4666 
L 3519 4666 
L 4500 722 
L 5478 4666 
L 6119 4666 
L 4947 0 
L 4153 0 
L 3169 4050 
L 2175 0 
L 1381 0 
L 213 4666 
z
" transform="scale(0.015625)"/>
       </defs>
       <use xlink:href="#DejaVuSans-45"/>
       <use xlink:href="#DejaVuSans-43" transform="translate(63.183594 0)"/>
       <use xlink:href="#DejaVuSans-4f" transform="translate(133.007812 0)"/>
       <use xlink:href="#DejaVuSans-57" transform="translate(211.71875 0)"/>
       <use xlink:href="#DejaVuSans-41" transform="translate(305.095703 0)"/>
       <use xlink:href="#DejaVuSans-53" transform="translate(373.503906 0)"/>
      </g>
     </g>
    </g>
    <g id="xtick_4">
     <g id="line2d_4">
      <g>
       <use xlink:href="#m43f2a6cec6" x="261.669736" y="357.290542" style="stroke: #000000; stroke-width: 0.8"/>
      </g>
     </g>
     <g id="text_4">
      <!-- EEC -->
      <g transform="translate(256.684081 383.537105) rotate(-45) scale(0.1 -0.1)">
       <use xlink:href="#DejaVuSans-45"/>
       <use xlink:href="#DejaVuSans-45" transform="translate(63.183594 0)"/>
       <use xlink:href="#DejaVuSans-43" transform="translate(126.367188 0)"/>
      </g>
     </g>
    </g>
    <g id="xtick_5">
     <g id="line2d_5">
      <g>
       <use xlink:href="#m43f2a6cec6" x="317.214491" y="357.290542" style="stroke: #000000; stroke-width: 0.8"/>
      </g>
     </g>
     <g id="text_5">
      <!-- EEC &amp; EU -->
      <g transform="translate(302.402813 403.189149) rotate(-45) scale(0.1 -0.1)">
       <defs>
        <path id="DejaVuSans-20" transform="scale(0.015625)"/>
        <path id="DejaVuSans-26" d="M 1556 2509 
Q 1272 2256 1139 2004 
Q 1006 1753 1006 1478 
Q 1006 1022 1337 719 
Q 1669 416 2169 416 
Q 2466 416 2725 514 
Q 2984 613 3213 813 
L 1556 2509 
z
M 1997 2859 
L 3584 1234 
Q 3769 1513 3872 1830 
Q 3975 2147 3994 2503 
L 4575 2503 
Q 4538 2091 4375 1687 
Q 4213 1284 3922 891 
L 4794 0 
L 4006 0 
L 3559 459 
Q 3234 181 2878 45 
Q 2522 -91 2113 -91 
Q 1359 -91 881 339 
Q 403 769 403 1441 
Q 403 1841 612 2192 
Q 822 2544 1241 2853 
Q 1091 3050 1012 3245 
Q 934 3441 934 3628 
Q 934 4134 1281 4442 
Q 1628 4750 2203 4750 
Q 2463 4750 2720 4694 
Q 2978 4638 3244 4525 
L 3244 3956 
Q 2972 4103 2725 4179 
Q 2478 4256 2266 4256 
Q 1938 4256 1733 4082 
Q 1528 3909 1528 3634 
Q 1528 3475 1620 3314 
Q 1713 3153 1997 2859 
z
" transform="scale(0.015625)"/>
        <path id="DejaVuSans-55" d="M 556 4666 
L 1191 4666 
L 1191 1831 
Q 1191 1081 1462 751 
Q 1734 422 2344 422 
Q 2950 422 3222 751 
Q 3494 1081 3494 1831 
L 3494 4666 
L 4128 4666 
L 4128 1753 
Q 4128 841 3676 375 
Q 3225 -91 2344 -91 
Q 1459 -91 1007 375 
Q 556 841 556 1753 
L 556 4666 
z
" transform="scale(0.015625)"/>
       </defs>
       <use xlink:href="#DejaVuSans-45"/>
       <use xlink:href="#DejaVuSans-45" transform="translate(63.183594 0)"/>
       <use xlink:href="#DejaVuSans-43" transform="translate(126.367188 0)"/>
       <use xlink:href="#DejaVuSans-20" transform="translate(196.191406 0)"/>
       <use xlink:href="#DejaVuSans-26" transform="translate(227.978516 0)"/>
       <use xlink:href="#DejaVuSans-20" transform="translate(305.957031 0)"/>
       <use xlink:href="#DejaVuSans-45" transform="translate(337.744141 0)"/>
       <use xlink:href="#DejaVuSans-55" transform="translate(400.927734 0)"/>
      </g>
     </g>
    </g>
    <g id="xtick_6">
     <g id="line2d_6">
      <g>
       <use xlink:href="#m43f2a6cec6" x="372.759245" y="357.290542" style="stroke: #000000; stroke-width: 0.8"/>
      </g>
     </g>
     <g id="text_6">
      <!-- EU -->
      <g transform="translate(369.888834 379.306618) rotate(-45) scale(0.1 -0.1)">
       <use xlink:href="#DejaVuSans-45"/>
       <use xlink:href="#DejaVuSans-55" transform="translate(63.183594 0)"/>
      </g>
     </g>
    </g>
    <g id="xtick_7">
     <g id="line2d_7">
      <g>
       <use xlink:href="#m43f2a6cec6" x="428.304" y="357.290542" style="stroke: #000000; stroke-width: 0.8"/>
      </g>
     </g>
     <g id="text_7">
      <!-- LAS -->
      <g transform="translate(423.54263 383.088534) rotate(-45) scale(0.1 -0.1)">
       <defs>
        <path id="DejaVuSans-4c" d="M 628 4666 
L 1259 4666 
L 1259 531 
L 3531 531 
L 3531 0 
L 628 0 
L 628 4666 
z
" transform="scale(0.015625)"/>
       </defs>
       <use xlink:href="#DejaVuSans-4c"/>
       <use xlink:href="#DejaVuSans-41" transform="translate(57.962891 0)"/>
       <use xlink:href="#DejaVuSans-53" transform="translate(126.371094 0)"/>
      </g>
     </g>
    </g>
    <g id="xtick_8">
     <g id="line2d_8">
      <g>
       <use xlink:href="#m43f2a6cec6" x="483.848755" y="357.290542" style="stroke: #000000; stroke-width: 0.8"/>
      </g>
     </g>
     <g id="text_8">
      <!-- OAS -->
      <g transform="translate(478.415633 384.432037) rotate(-45) scale(0.1 -0.1)">
       <use xlink:href="#DejaVuSans-4f"/>
       <use xlink:href="#DejaVuSans-41" transform="translate(76.960938 0)"/>
       <use xlink:href="#DejaVuSans-53" transform="translate(145.369141 0)"/>
      </g>
     </g>
    </g>
    <g id="xtick_9">
     <g id="line2d_9">
      <g>
       <use xlink:href="#m43f2a6cec6" x="539.393509" y="357.290542" style="stroke: #000000; stroke-width: 0.8"/>
      </g>
     </g>
     <g id="text_9">
      <!-- OAU -->
      <g transform="translate(533.617331 385.118152) rotate(-45) scale(0.1 -0.1)">
       <use xlink:href="#DejaVuSans-4f"/>
       <use xlink:href="#DejaVuSans-41" transform="translate(76.960938 0)"/>
       <use xlink:href="#DejaVuSans-55" transform="translate(145.369141 0)"/>
      </g>
     </g>
    </g>
    <g id="xtick_10">
     <g id="line2d_10">
      <g>
       <use xlink:href="#m43f2a6cec6" x="594.938264" y="357.290542" style="stroke: #000000; stroke-width: 0.8"/>
      </g>
     </g>
     <g id="text_10">
      <!-- SADC -->
      <g transform="translate(586.96895 389.504423) rotate(-45) scale(0.1 -0.1)">
       <defs>
        <path id="DejaVuSans-44" d="M 1259 4147 
L 1259 519 
L 2022 519 
Q 2988 519 3436 956 
Q 3884 1394 3884 2338 
Q 3884 3275 3436 3711 
Q 2988 4147 2022 4147 
L 1259 4147 
z
M 628 4666 
L 1925 4666 
Q 3281 4666 3915 4102 
Q 4550 3538 4550 2338 
Q 4550 1131 3912 565 
Q 3275 0 1925 0 
L 628 0 
L 628 4666 
z
" transform="scale(0.015625)"/>
       </defs>
       <use xlink:href="#DejaVuSans-53"/>
       <use xlink:href="#DejaVuSans-41" transform="translate(65.351562 0)"/>
       <use xlink:href="#DejaVuSans-44" transform="translate(133.759766 0)"/>
       <use xlink:href="#DejaVuSans-43" transform="translate(210.761719 0)"/>
      </g>
     </g>
    </g>
    <g id="xtick_11">
     <g id="line2d_11">
      <g>
       <use xlink:href="#m43f2a6cec6" x="650.483019" y="357.290542" style="stroke: #000000; stroke-width: 0.8"/>
      </g>
     </g>
     <g id="text_11">
      <!-- UM -->
      <g transform="translate(646.79612 380.939592) rotate(-45) scale(0.1 -0.1)">
       <defs>
        <path id="DejaVuSans-4d" d="M 628 4666 
L 1569 4666 
L 2759 1491 
L 3956 4666 
L 4897 4666 
L 4897 0 
L 4281 0 
L 4281 4097 
L 3078 897 
L 2444 897 
L 1241 4097 
L 1241 0 
L 628 0 
L 628 4666 
z
" transform="scale(0.015625)"/>
       </defs>
       <use xlink:href="#DejaVuSans-55"/>
       <use xlink:href="#DejaVuSans-4d" transform="translate(73.193359 0)"/>
      </g>
     </g>
    </g>
    <g id="xtick_12">
     <g id="line2d_12">
      <g>
       <use xlink:href="#m43f2a6cec6" x="706.027774" y="357.290542" style="stroke: #000000; stroke-width: 0.8"/>
      </g>
     </g>
     <g id="text_12">
      <!-- UN -->
      <g transform="translate(702.746356 380.128629) rotate(-45) scale(0.1 -0.1)">
       <defs>
        <path id="DejaVuSans-4e" d="M 628 4666 
L 1478 4666 
L 3547 763 
L 3547 4666 
L 4159 4666 
L 4159 0 
L 3309 0 
L 1241 3903 
L 1241 0 
L 628 0 
L 628 4666 
z
" transform="scale(0.015625)"/>
       </defs>
       <use xlink:href="#DejaVuSans-55"/>
       <use xlink:href="#DejaVuSans-4e" transform="translate(73.193359 0)"/>
      </g>
     </g>
    </g>
    <g id="xtick_13">
     <g id="line2d_13">
      <g>
       <use xlink:href="#m43f2a6cec6" x="761.572528" y="357.290542" style="stroke: #000000; stroke-width: 0.8"/>
      </g>
     </g>
     <g id="text_13">
      <!-- USA -->
      <g transform="translate(756.206803 384.297245) rotate(-45) scale(0.1 -0.1)">
       <use xlink:href="#DejaVuSans-55"/>
       <use xlink:href="#DejaVuSans-53" transform="translate(73.193359 0)"/>
       <use xlink:href="#DejaVuSans-41" transform="translate(138.544922 0)"/>
      </g>
     </g>
    </g>
    <g id="text_14">
     <!-- Sender -->
     <g transform="translate(410.578219 418.499897) scale(0.1 -0.1)">
      <defs>
       <path id="DejaVuSans-6e" d="M 3513 2113 
L 3513 0 
L 2938 0 
L 2938 2094 
Q 2938 2591 2744 2837 
Q 2550 3084 2163 3084 
Q 1697 3084 1428 2787 
Q 1159 2491 1159 1978 
L 1159 0 
L 581 0 
L 581 3500 
L 1159 3500 
L 1159 2956 
Q 1366 3272 1645 3428 
Q 1925 3584 2291 3584 
Q 2894 3584 3203 3211 
Q 3513 2838 3513 2113 
z
" transform="scale(0.015625)"/>
       <path id="DejaVuSans-64" d="M 2906 2969 
L 2906 4863 
L 3481 4863 
L 3481 0 
L 2906 0 
L 2906 525 
Q 2725 213 2448 61 
Q 2172 -91 1784 -91 
Q 1150 -91 751 415 
Q 353 922 353 1747 
Q 353 2572 751 3078 
Q 1150 3584 1784 3584 
Q 2172 3584 2448 3432 
Q 2725 3281 2906 2969 
z
M 947 1747 
Q 947 1113 1208 752 
Q 1469 391 1925 391 
Q 2381 391 2643 752 
Q 2906 1113 2906 1747 
Q 2906 2381 2643 2742 
Q 2381 3103 1925 3103 
Q 1469 3103 1208 2742 
Q 947 2381 947 1747 
z
" transform="scale(0.015625)"/>
       <path id="DejaVuSans-72" d="M 2631 2963 
Q 2534 3019 2420 3045 
Q 2306 3072 2169 3072 
Q 1681 3072 1420 2755 
Q 1159 2438 1159 1844 
L 1159 0 
L 581 0 
L 581 3500 
L 1159 3500 
L 1159 2956 
Q 1341 3275 1631 3429 
Q 1922 3584 2338 3584 
Q 2397 3584 2469 3576 
Q 2541 3569 2628 3553 
L 2631 2963 
z
" transform="scale(0.015625)"/>
      </defs>
      <use xlink:href="#DejaVuSans-53"/>
      <use xlink:href="#DejaVuSans-65" transform="translate(63.476562 0)"/>
      <use xlink:href="#DejaVuSans-6e" transform="translate(125 0)"/>
      <use xlink:href="#DejaVuSans-64" transform="translate(188.378906 0)"/>
      <use xlink:href="#DejaVuSans-65" transform="translate(251.855469 0)"/>
      <use xlink:href="#DejaVuSans-72" transform="translate(313.378906 0)"/>
     </g>
    </g>
   </g>
   <g id="matplotlib.axis_2">
    <g id="ytick_1">
     <g id="line2d_14">
      <path d="M 60.32 357.290542 
L 796.288 357.290542 
" clip-path="url(#pb58a6cfc9e)" style="fill: none; stroke-dasharray: 2.96,1.28; stroke-dashoffset: 0; stroke: #b0b0b0; stroke-opacity: 0.5; stroke-width: 0.8"/>
     </g>
     <g id="line2d_15">
      <defs>
       <path id="m7990df06dd" d="M 0 0 
L -3.5 0 
" style="stroke: #000000; stroke-width: 0.8"/>
      </defs>
      <g>
       <use xlink:href="#m7990df06dd" x="60.32" y="357.290542" style="stroke: #000000; stroke-width: 0.8"/>
      </g>
     </g>
     <g id="text_15">
      <!-- 0% -->
      <g transform="translate(37.455938 361.089761) scale(0.1 -0.1)">
       <defs>
        <path id="DejaVuSans-30" d="M 2034 4250 
Q 1547 4250 1301 3770 
Q 1056 3291 1056 2328 
Q 1056 1369 1301 889 
Q 1547 409 2034 409 
Q 2525 409 2770 889 
Q 3016 1369 3016 2328 
Q 3016 3291 2770 3770 
Q 2525 4250 2034 4250 
z
M 2034 4750 
Q 2819 4750 3233 4129 
Q 3647 3509 3647 2328 
Q 3647 1150 3233 529 
Q 2819 -91 2034 -91 
Q 1250 -91 836 529 
Q 422 1150 422 2328 
Q 422 3509 836 4129 
Q 1250 4750 2034 4750 
z
" transform="scale(0.015625)"/>
        <path id="DejaVuSans-25" d="M 4653 2053 
Q 4381 2053 4226 1822 
Q 4072 1591 4072 1178 
Q 4072 772 4226 539 
Q 4381 306 4653 306 
Q 4919 306 5073 539 
Q 5228 772 5228 1178 
Q 5228 1588 5073 1820 
Q 4919 2053 4653 2053 
z
M 4653 2450 
Q 5147 2450 5437 2106 
Q 5728 1763 5728 1178 
Q 5728 594 5436 251 
Q 5144 -91 4653 -91 
Q 4153 -91 3862 251 
Q 3572 594 3572 1178 
Q 3572 1766 3864 2108 
Q 4156 2450 4653 2450 
z
M 1428 4353 
Q 1159 4353 1004 4120 
Q 850 3888 850 3481 
Q 850 3069 1003 2837 
Q 1156 2606 1428 2606 
Q 1700 2606 1854 2837 
Q 2009 3069 2009 3481 
Q 2009 3884 1853 4118 
Q 1697 4353 1428 4353 
z
M 4250 4750 
L 4750 4750 
L 1831 -91 
L 1331 -91 
L 4250 4750 
z
M 1428 4750 
Q 1922 4750 2215 4408 
Q 2509 4066 2509 3481 
Q 2509 2891 2217 2550 
Q 1925 2209 1428 2209 
Q 931 2209 642 2551 
Q 353 2894 353 3481 
Q 353 4063 643 4406 
Q 934 4750 1428 4750 
z
" transform="scale(0.015625)"/>
       </defs>
       <use xlink:href="#DejaVuSans-30"/>
       <use xlink:href="#DejaVuSans-25" transform="translate(63.623047 0)"/>
      </g>
     </g>
    </g>
    <g id="ytick_2">
     <g id="line2d_16">
      <path d="M 60.32 293.152434 
L 796.288 293.152434 
" clip-path="url(#pb58a6cfc9e)" style="fill: none; stroke-dasharray: 2.96,1.28; stroke-dashoffset: 0; stroke: #b0b0b0; stroke-opacity: 0.5; stroke-width: 0.8"/>
     </g>
     <g id="line2d_17">
      <g>
       <use xlink:href="#m7990df06dd" x="60.32" y="293.152434" style="stroke: #000000; stroke-width: 0.8"/>
      </g>
     </g>
     <g id="text_16">
      <!-- 20% -->
      <g transform="translate(31.093438 296.951653) scale(0.1 -0.1)">
       <defs>
        <path id="DejaVuSans-32" d="M 1228 531 
L 3431 531 
L 3431 0 
L 469 0 
L 469 531 
Q 828 903 1448 1529 
Q 2069 2156 2228 2338 
Q 2531 2678 2651 2914 
Q 2772 3150 2772 3378 
Q 2772 3750 2511 3984 
Q 2250 4219 1831 4219 
Q 1534 4219 1204 4116 
Q 875 4013 500 3803 
L 500 4441 
Q 881 4594 1212 4672 
Q 1544 4750 1819 4750 
Q 2544 4750 2975 4387 
Q 3406 4025 3406 3419 
Q 3406 3131 3298 2873 
Q 3191 2616 2906 2266 
Q 2828 2175 2409 1742 
Q 1991 1309 1228 531 
z
" transform="scale(0.015625)"/>
       </defs>
       <use xlink:href="#DejaVuSans-32"/>
       <use xlink:href="#DejaVuSans-30" transform="translate(63.623047 0)"/>
       <use xlink:href="#DejaVuSans-25" transform="translate(127.246094 0)"/>
      </g>
     </g>
    </g>
    <g id="ytick_3">
     <g id="line2d_18">
      <path d="M 60.32 229.014325 
L 796.288 229.014325 
" clip-path="url(#pb58a6cfc9e)" style="fill: none; stroke-dasharray: 2.96,1.28; stroke-dashoffset: 0; stroke: #b0b0b0; stroke-opacity: 0.5; stroke-width: 0.8"/>
     </g>
     <g id="line2d_19">
      <g>
       <use xlink:href="#m7990df06dd" x="60.32" y="229.014325" style="stroke: #000000; stroke-width: 0.8"/>
      </g>
     </g>
     <g id="text_17">
      <!-- 40% -->
      <g transform="translate(31.093438 232.813544) scale(0.1 -0.1)">
       <defs>
        <path id="DejaVuSans-34" d="M 2419 4116 
L 825 1625 
L 2419 1625 
L 2419 4116 
z
M 2253 4666 
L 3047 4666 
L 3047 1625 
L 3713 1625 
L 3713 1100 
L 3047 1100 
L 3047 0 
L 2419 0 
L 2419 1100 
L 313 1100 
L 313 1709 
L 2253 4666 
z
" transform="scale(0.015625)"/>
       </defs>
       <use xlink:href="#DejaVuSans-34"/>
       <use xlink:href="#DejaVuSans-30" transform="translate(63.623047 0)"/>
       <use xlink:href="#DejaVuSans-25" transform="translate(127.246094 0)"/>
      </g>
     </g>
    </g>
    <g id="ytick_4">
     <g id="line2d_20">
      <path d="M 60.32 164.876217 
L 796.288 164.876217 
" clip-path="url(#pb58a6cfc9e)" style="fill: none; stroke-dasharray: 2.96,1.28; stroke-dashoffset: 0; stroke: #b0b0b0; stroke-opacity: 0.5; stroke-width: 0.8"/>
     </g>
     <g id="line2d_21">
      <g>
       <use xlink:href="#m7990df06dd" x="60.32" y="164.876217" style="stroke: #000000; stroke-width: 0.8"/>
      </g>
     </g>
     <g id="text_18">
      <!-- 60% -->
      <g transform="translate(31.093438 168.675436) scale(0.1 -0.1)">
       <defs>
        <path id="DejaVuSans-36" d="M 2113 2584 
Q 1688 2584 1439 2293 
Q 1191 2003 1191 1497 
Q 1191 994 1439 701 
Q 1688 409 2113 409 
Q 2538 409 2786 701 
Q 3034 994 3034 1497 
Q 3034 2003 2786 2293 
Q 2538 2584 2113 2584 
z
M 3366 4563 
L 3366 3988 
Q 3128 4100 2886 4159 
Q 2644 4219 2406 4219 
Q 1781 4219 1451 3797 
Q 1122 3375 1075 2522 
Q 1259 2794 1537 2939 
Q 1816 3084 2150 3084 
Q 2853 3084 3261 2657 
Q 3669 2231 3669 1497 
Q 3669 778 3244 343 
Q 2819 -91 2113 -91 
Q 1303 -91 875 529 
Q 447 1150 447 2328 
Q 447 3434 972 4092 
Q 1497 4750 2381 4750 
Q 2619 4750 2861 4703 
Q 3103 4656 3366 4563 
z
" transform="scale(0.015625)"/>
       </defs>
       <use xlink:href="#DejaVuSans-36"/>
       <use xlink:href="#DejaVuSans-30" transform="translate(63.623047 0)"/>
       <use xlink:href="#DejaVuSans-25" transform="translate(127.246094 0)"/>
      </g>
     </g>
    </g>
    <g id="ytick_5">
     <g id="line2d_22">
      <path d="M 60.32 100.738108 
L 796.288 100.738108 
" clip-path="url(#pb58a6cfc9e)" style="fill: none; stroke-dasharray: 2.96,1.28; stroke-dashoffset: 0; stroke: #b0b0b0; stroke-opacity: 0.5; stroke-width: 0.8"/>
     </g>
     <g id="line2d_23">
      <g>
       <use xlink:href="#m7990df06dd" x="60.32" y="100.738108" style="stroke: #000000; stroke-width: 0.8"/>
      </g>
     </g>
     <g id="text_19">
      <!-- 80% -->
      <g transform="translate(31.093438 104.537327) scale(0.1 -0.1)">
       <defs>
        <path id="DejaVuSans-38" d="M 2034 2216 
Q 1584 2216 1326 1975 
Q 1069 1734 1069 1313 
Q 1069 891 1326 650 
Q 1584 409 2034 409 
Q 2484 409 2743 651 
Q 3003 894 3003 1313 
Q 3003 1734 2745 1975 
Q 2488 2216 2034 2216 
z
M 1403 2484 
Q 997 2584 770 2862 
Q 544 3141 544 3541 
Q 544 4100 942 4425 
Q 1341 4750 2034 4750 
Q 2731 4750 3128 4425 
Q 3525 4100 3525 3541 
Q 3525 3141 3298 2862 
Q 3072 2584 2669 2484 
Q 3125 2378 3379 2068 
Q 3634 1759 3634 1313 
Q 3634 634 3220 271 
Q 2806 -91 2034 -91 
Q 1263 -91 848 271 
Q 434 634 434 1313 
Q 434 1759 690 2068 
Q 947 2378 1403 2484 
z
M 1172 3481 
Q 1172 3119 1398 2916 
Q 1625 2713 2034 2713 
Q 2441 2713 2670 2916 
Q 2900 3119 2900 3481 
Q 2900 3844 2670 4047 
Q 2441 4250 2034 4250 
Q 1625 4250 1398 4047 
Q 1172 3844 1172 3481 
z
" transform="scale(0.015625)"/>
       </defs>
       <use xlink:href="#DejaVuSans-38"/>
       <use xlink:href="#DejaVuSans-30" transform="translate(63.623047 0)"/>
       <use xlink:href="#DejaVuSans-25" transform="translate(127.246094 0)"/>
      </g>
     </g>
    </g>
    <g id="ytick_6">
     <g id="line2d_24">
      <path d="M 60.32 36.6 
L 796.288 36.6 
" clip-path="url(#pb58a6cfc9e)" style="fill: none; stroke-dasharray: 2.96,1.28; stroke-dashoffset: 0; stroke: #b0b0b0; stroke-opacity: 0.5; stroke-width: 0.8"/>
     </g>
     <g id="line2d_25">
      <g>
       <use xlink:href="#m7990df06dd" x="60.32" y="36.6" style="stroke: #000000; stroke-width: 0.8"/>
      </g>
     </g>
     <g id="text_20">
      <!-- 100% -->
      <g transform="translate(24.730938 40.399219) scale(0.1 -0.1)">
       <defs>
        <path id="DejaVuSans-31" d="M 794 531 
L 1825 531 
L 1825 4091 
L 703 3866 
L 703 4441 
L 1819 4666 
L 2450 4666 
L 2450 531 
L 3481 531 
L 3481 0 
L 794 0 
L 794 531 
z
" transform="scale(0.015625)"/>
       </defs>
       <use xlink:href="#DejaVuSans-31"/>
       <use xlink:href="#DejaVuSans-30" transform="translate(63.623047 0)"/>
       <use xlink:href="#DejaVuSans-30" transform="translate(127.246094 0)"/>
       <use xlink:href="#DejaVuSans-25" transform="translate(190.869141 0)"/>
      </g>
     </g>
    </g>
    <g id="text_21">
     <!-- Percentage of Cases -->
     <g transform="translate(18.65125 247.90699) rotate(-90) scale(0.1 -0.1)">
      <defs>
       <path id="DejaVuSans-50" d="M 1259 4147 
L 1259 2394 
L 2053 2394 
Q 2494 2394 2734 2622 
Q 2975 2850 2975 3272 
Q 2975 3691 2734 3919 
Q 2494 4147 2053 4147 
L 1259 4147 
z
M 628 4666 
L 2053 4666 
Q 2838 4666 3239 4311 
Q 3641 3956 3641 3272 
Q 3641 2581 3239 2228 
Q 2838 1875 2053 1875 
L 1259 1875 
L 1259 0 
L 628 0 
L 628 4666 
z
" transform="scale(0.015625)"/>
       <path id="DejaVuSans-74" d="M 1172 4494 
L 1172 3500 
L 2356 3500 
L 2356 3053 
L 1172 3053 
L 1172 1153 
Q 1172 725 1289 603 
Q 1406 481 1766 481 
L 2356 481 
L 2356 0 
L 1766 0 
Q 1100 0 847 248 
Q 594 497 594 1153 
L 594 3053 
L 172 3053 
L 172 3500 
L 594 3500 
L 594 4494 
L 1172 4494 
z
" transform="scale(0.015625)"/>
       <path id="DejaVuSans-61" d="M 2194 1759 
Q 1497 1759 1228 1600 
Q 959 1441 959 1056 
Q 959 750 1161 570 
Q 1363 391 1709 391 
Q 2188 391 2477 730 
Q 2766 1069 2766 1631 
L 2766 1759 
L 2194 1759 
z
M 3341 1997 
L 3341 0 
L 2766 0 
L 2766 531 
Q 2569 213 2275 61 
Q 1981 -91 1556 -91 
Q 1019 -91 701 211 
Q 384 513 384 1019 
Q 384 1609 779 1909 
Q 1175 2209 1959 2209 
L 2766 2209 
L 2766 2266 
Q 2766 2663 2505 2880 
Q 2244 3097 1772 3097 
Q 1472 3097 1187 3025 
Q 903 2953 641 2809 
L 641 3341 
Q 956 3463 1253 3523 
Q 1550 3584 1831 3584 
Q 2591 3584 2966 3190 
Q 3341 2797 3341 1997 
z
" transform="scale(0.015625)"/>
       <path id="DejaVuSans-67" d="M 2906 1791 
Q 2906 2416 2648 2759 
Q 2391 3103 1925 3103 
Q 1463 3103 1205 2759 
Q 947 2416 947 1791 
Q 947 1169 1205 825 
Q 1463 481 1925 481 
Q 2391 481 2648 825 
Q 2906 1169 2906 1791 
z
M 3481 434 
Q 3481 -459 3084 -895 
Q 2688 -1331 1869 -1331 
Q 1566 -1331 1297 -1286 
Q 1028 -1241 775 -1147 
L 775 -588 
Q 1028 -725 1275 -790 
Q 1522 -856 1778 -856 
Q 2344 -856 2625 -561 
Q 2906 -266 2906 331 
L 2906 616 
Q 2728 306 2450 153 
Q 2172 0 1784 0 
Q 1141 0 747 490 
Q 353 981 353 1791 
Q 353 2603 747 3093 
Q 1141 3584 1784 3584 
Q 2172 3584 2450 3431 
Q 2728 3278 2906 2969 
L 2906 3500 
L 3481 3500 
L 3481 434 
z
" transform="scale(0.015625)"/>
       <path id="DejaVuSans-66" d="M 2375 4863 
L 2375 4384 
L 1825 4384 
Q 1516 4384 1395 4259 
Q 1275 4134 1275 3809 
L 1275 3500 
L 2222 3500 
L 2222 3053 
L 1275 3053 
L 1275 0 
L 697 0 
L 697 3053 
L 147 3053 
L 147 3500 
L 697 3500 
L 697 3744 
Q 697 4328 969 4595 
Q 1241 4863 1831 4863 
L 2375 4863 
z
" transform="scale(0.015625)"/>
       <path id="DejaVuSans-73" d="M 2834 3397 
L 2834 2853 
Q 2591 2978 2328 3040 
Q 2066 3103 1784 3103 
Q 1356 3103 1142 2972 
Q 928 2841 928 2578 
Q 928 2378 1081 2264 
Q 1234 2150 1697 2047 
L 1894 2003 
Q 2506 1872 2764 1633 
Q 3022 1394 3022 966 
Q 3022 478 2636 193 
Q 2250 -91 1575 -91 
Q 1294 -91 989 -36 
Q 684 19 347 128 
L 347 722 
Q 666 556 975 473 
Q 1284 391 1588 391 
Q 1994 391 2212 530 
Q 2431 669 2431 922 
Q 2431 1156 2273 1281 
Q 2116 1406 1581 1522 
L 1381 1569 
Q 847 1681 609 1914 
Q 372 2147 372 2553 
Q 372 3047 722 3315 
Q 1072 3584 1716 3584 
Q 2034 3584 2315 3537 
Q 2597 3491 2834 3397 
z
" transform="scale(0.015625)"/>
      </defs>
      <use xlink:href="#DejaVuSans-50"/>
      <use xlink:href="#DejaVuSans-65" transform="translate(56.677734 0)"/>
      <use xlink:href="#DejaVuSans-72" transform="translate(118.201172 0)"/>
      <use xlink:href="#DejaVuSans-63" transform="translate(157.064453 0)"/>
      <use xlink:href="#DejaVuSans-65" transform="translate(212.044922 0)"/>
      <use xlink:href="#DejaVuSans-6e" transform="translate(273.568359 0)"/>
      <use xlink:href="#DejaVuSans-74" transform="translate(336.947266 0)"/>
      <use xlink:href="#DejaVuSans-61" transform="translate(376.15625 0)"/>
      <use xlink:href="#DejaVuSans-67" transform="translate(437.435547 0)"/>
      <use xlink:href="#DejaVuSans-65" transform="translate(500.912109 0)"/>
      <use xlink:href="#DejaVuSans-20" transform="translate(562.435547 0)"/>
      <use xlink:href="#DejaVuSans-6f" transform="translate(594.222656 0)"/>
      <use xlink:href="#DejaVuSans-66" transform="translate(655.404297 0)"/>
      <use xlink:href="#DejaVuSans-20" transform="translate(690.609375 0)"/>
      <use xlink:href="#DejaVuSans-43" transform="translate(722.396484 0)"/>
      <use xlink:href="#DejaVuSans-61" transform="translate(792.220703 0)"/>
      <use xlink:href="#DejaVuSans-73" transform="translate(853.5 0)"/>
      <use xlink:href="#DejaVuSans-65" transform="translate(905.599609 0)"/>
      <use xlink:href="#DejaVuSans-73" transform="translate(967.123047 0)"/>
     </g>
    </g>
   </g>
   <g id="patch_81">
    <path d="M 60.32 357.290542 
L 60.32 36.6 
" style="fill: none; stroke: #000000; stroke-width: 0.8; stroke-linejoin: miter; stroke-linecap: square"/>
   </g>
   <g id="patch_82">
    <path d="M 796.288 357.290542 
L 796.288 36.6 
" style="fill: none; stroke: #000000; stroke-width: 0.8; stroke-linejoin: miter; stroke-linecap: square"/>
   </g>
   <g id="patch_83">
    <path d="M 60.32 357.290542 
L 796.288 357.290542 
" style="fill: none; stroke: #000000; stroke-width: 0.8; stroke-linejoin: miter; stroke-linecap: square"/>
   </g>
   <g id="patch_84">
    <path d="M 60.32 36.6 
L 796.288 36.6 
" style="fill: none; stroke: #000000; stroke-width: 0.8; stroke-linejoin: miter; stroke-linecap: square"/>
   </g>
   <g id="text_22">
    <!-- Sanction Outcome Type by Sender (relative frequencies) -->
    <g transform="translate(230.375719 21.6) scale(0.14 -0.14)">
     <defs>
      <path id="DejaVuSans-69" d="M 603 3500 
L 1178 3500 
L 1178 0 
L 603 0 
L 603 3500 
z
M 603 4863 
L 1178 4863 
L 1178 4134 
L 603 4134 
L 603 4863 
z
" transform="scale(0.015625)"/>
      <path id="DejaVuSans-75" d="M 544 1381 
L 544 3500 
L 1119 3500 
L 1119 1403 
Q 1119 906 1312 657 
Q 1506 409 1894 409 
Q 2359 409 2629 706 
Q 2900 1003 2900 1516 
L 2900 3500 
L 3475 3500 
L 3475 0 
L 2900 0 
L 2900 538 
Q 2691 219 2414 64 
Q 2138 -91 1772 -91 
Q 1169 -91 856 284 
Q 544 659 544 1381 
z
M 1991 3584 
L 1991 3584 
z
" transform="scale(0.015625)"/>
      <path id="DejaVuSans-54" d="M -19 4666 
L 3928 4666 
L 3928 4134 
L 2272 4134 
L 2272 0 
L 1638 0 
L 1638 4134 
L -19 4134 
L -19 4666 
z
" transform="scale(0.015625)"/>
      <path id="DejaVuSans-79" d="M 2059 -325 
Q 1816 -950 1584 -1140 
Q 1353 -1331 966 -1331 
L 506 -1331 
L 506 -850 
L 844 -850 
Q 1081 -850 1212 -737 
Q 1344 -625 1503 -206 
L 1606 56 
L 191 3500 
L 800 3500 
L 1894 763 
L 2988 3500 
L 3597 3500 
L 2059 -325 
z
" transform="scale(0.015625)"/>
      <path id="DejaVuSans-70" d="M 1159 525 
L 1159 -1331 
L 581 -1331 
L 581 3500 
L 1159 3500 
L 1159 2969 
Q 1341 3281 1617 3432 
Q 1894 3584 2278 3584 
Q 2916 3584 3314 3078 
Q 3713 2572 3713 1747 
Q 3713 922 3314 415 
Q 2916 -91 2278 -91 
Q 1894 -91 1617 61 
Q 1341 213 1159 525 
z
M 3116 1747 
Q 3116 2381 2855 2742 
Q 2594 3103 2138 3103 
Q 1681 3103 1420 2742 
Q 1159 2381 1159 1747 
Q 1159 1113 1420 752 
Q 1681 391 2138 391 
Q 2594 391 2855 752 
Q 3116 1113 3116 1747 
z
" transform="scale(0.015625)"/>
      <path id="DejaVuSans-62" d="M 3116 1747 
Q 3116 2381 2855 2742 
Q 2594 3103 2138 3103 
Q 1681 3103 1420 2742 
Q 1159 2381 1159 1747 
Q 1159 1113 1420 752 
Q 1681 391 2138 391 
Q 2594 391 2855 752 
Q 3116 1113 3116 1747 
z
M 1159 2969 
Q 1341 3281 1617 3432 
Q 1894 3584 2278 3584 
Q 2916 3584 3314 3078 
Q 3713 2572 3713 1747 
Q 3713 922 3314 415 
Q 2916 -91 2278 -91 
Q 1894 -91 1617 61 
Q 1341 213 1159 525 
L 1159 0 
L 581 0 
L 581 4863 
L 1159 4863 
L 1159 2969 
z
" transform="scale(0.015625)"/>
      <path id="DejaVuSans-28" d="M 1984 4856 
Q 1566 4138 1362 3434 
Q 1159 2731 1159 2009 
Q 1159 1288 1364 580 
Q 1569 -128 1984 -844 
L 1484 -844 
Q 1016 -109 783 600 
Q 550 1309 550 2009 
Q 550 2706 781 3412 
Q 1013 4119 1484 4856 
L 1984 4856 
z
" transform="scale(0.015625)"/>
      <path id="DejaVuSans-6c" d="M 603 4863 
L 1178 4863 
L 1178 0 
L 603 0 
L 603 4863 
z
" transform="scale(0.015625)"/>
      <path id="DejaVuSans-76" d="M 191 3500 
L 800 3500 
L 1894 563 
L 2988 3500 
L 3597 3500 
L 2284 0 
L 1503 0 
L 191 3500 
z
" transform="scale(0.015625)"/>
      <path id="DejaVuSans-71" d="M 947 1747 
Q 947 1113 1208 752 
Q 1469 391 1925 391 
Q 2381 391 2643 752 
Q 2906 1113 2906 1747 
Q 2906 2381 2643 2742 
Q 2381 3103 1925 3103 
Q 1469 3103 1208 2742 
Q 947 2381 947 1747 
z
M 2906 525 
Q 2725 213 2448 61 
Q 2172 -91 1784 -91 
Q 1150 -91 751 415 
Q 353 922 353 1747 
Q 353 2572 751 3078 
Q 1150 3584 1784 3584 
Q 2172 3584 2448 3432 
Q 2725 3281 2906 2969 
L 2906 3500 
L 3481 3500 
L 3481 -1331 
L 2906 -1331 
L 2906 525 
z
" transform="scale(0.015625)"/>
      <path id="DejaVuSans-29" d="M 513 4856 
L 1013 4856 
Q 1481 4119 1714 3412 
Q 1947 2706 1947 2009 
Q 1947 1309 1714 600 
Q 1481 -109 1013 -844 
L 513 -844 
Q 928 -128 1133 580 
Q 1338 1288 1338 2009 
Q 1338 2731 1133 3434 
Q 928 4138 513 4856 
z
" transform="scale(0.015625)"/>
     </defs>
     <use xlink:href="#DejaVuSans-53"/>
     <use xlink:href="#DejaVuSans-61" transform="translate(63.476562 0)"/>
     <use xlink:href="#DejaVuSans-6e" transform="translate(124.755859 0)"/>
     <use xlink:href="#DejaVuSans-63" transform="translate(188.134766 0)"/>
     <use xlink:href="#DejaVuSans-74" transform="translate(243.115234 0)"/>
     <use xlink:href="#DejaVuSans-69" transform="translate(282.324219 0)"/>
     <use xlink:href="#DejaVuSans-6f" transform="translate(310.107422 0)"/>
     <use xlink:href="#DejaVuSans-6e" transform="translate(371.289062 0)"/>
     <use xlink:href="#DejaVuSans-20" transform="translate(434.667969 0)"/>
     <use xlink:href="#DejaVuSans-4f" transform="translate(466.455078 0)"/>
     <use xlink:href="#DejaVuSans-75" transform="translate(545.166016 0)"/>
     <use xlink:href="#DejaVuSans-74" transform="translate(608.544922 0)"/>
     <use xlink:href="#DejaVuSans-63" transform="translate(647.753906 0)"/>
     <use xlink:href="#DejaVuSans-6f" transform="translate(702.734375 0)"/>
     <use xlink:href="#DejaVuSans-6d" transform="translate(763.916016 0)"/>
     <use xlink:href="#DejaVuSans-65" transform="translate(861.328125 0)"/>
     <use xlink:href="#DejaVuSans-20" transform="translate(922.851562 0)"/>
     <use xlink:href="#DejaVuSans-54" transform="translate(954.638672 0)"/>
     <use xlink:href="#DejaVuSans-79" transform="translate(1000.097656 0)"/>
     <use xlink:href="#DejaVuSans-70" transform="translate(1059.277344 0)"/>
     <use xlink:href="#DejaVuSans-65" transform="translate(1122.753906 0)"/>
     <use xlink:href="#DejaVuSans-20" transform="translate(1184.277344 0)"/>
     <use xlink:href="#DejaVuSans-62" transform="translate(1216.064453 0)"/>
     <use xlink:href="#DejaVuSans-79" transform="translate(1279.541016 0)"/>
     <use xlink:href="#DejaVuSans-20" transform="translate(1338.720703 0)"/>
     <use xlink:href="#DejaVuSans-53" transform="translate(1370.507812 0)"/>
     <use xlink:href="#DejaVuSans-65" transform="translate(1433.984375 0)"/>
     <use xlink:href="#DejaVuSans-6e" transform="translate(1495.507812 0)"/>
     <use xlink:href="#DejaVuSans-64" transform="translate(1558.886719 0)"/>
     <use xlink:href="#DejaVuSans-65" transform="translate(1622.363281 0)"/>
     <use xlink:href="#DejaVuSans-72" transform="translate(1683.886719 0)"/>
     <use xlink:href="#DejaVuSans-20" transform="translate(1725 0)"/>
     <use xlink:href="#DejaVuSans-28" transform="translate(1756.787109 0)"/>
     <use xlink:href="#DejaVuSans-72" transform="translate(1795.800781 0)"/>
     <use xlink:href="#DejaVuSans-65" transform="translate(1834.664062 0)"/>
     <use xlink:href="#DejaVuSans-6c" transform="translate(1896.1875 0)"/>
     <use xlink:href="#DejaVuSans-61" transform="translate(1923.970703 0)"/>
     <use xlink:href="#DejaVuSans-74" transform="translate(1985.25 0)"/>
     <use xlink:href="#DejaVuSans-69" transform="translate(2024.458984 0)"/>
     <use xlink:href="#DejaVuSans-76" transform="translate(2052.242188 0)"/>
     <use xlink:href="#DejaVuSans-65" transform="translate(2111.421875 0)"/>
     <use xlink:href="#DejaVuSans-20" transform="translate(2172.945312 0)"/>
     <use xlink:href="#DejaVuSans-66" transform="translate(2204.732422 0)"/>
     <use xlink:href="#DejaVuSans-72" transform="translate(2239.9375 0)"/>
     <use xlink:href="#DejaVuSans-65" transform="translate(2278.800781 0)"/>
     <use xlink:href="#DejaVuSans-71" transform="translate(2340.324219 0)"/>
     <use xlink:href="#DejaVuSans-75" transform="translate(2403.800781 0)"/>
     <use xlink:href="#DejaVuSans-65" transform="translate(2467.179688 0)"/>
     <use xlink:href="#DejaVuSans-6e" transform="translate(2528.703125 0)"/>
     <use xlink:href="#DejaVuSans-63" transform="translate(2592.082031 0)"/>
     <use xlink:href="#DejaVuSans-69" transform="translate(2647.0625 0)"/>
     <use xlink:href="#DejaVuSans-65" transform="translate(2674.845703 0)"/>
     <use xlink:href="#DejaVuSans-73" transform="translate(2736.369141 0)"/>
     <use xlink:href="#DejaVuSans-29" transform="translate(2788.46875 0)"/>
    </g>
   </g>
   <g id="legend_1">
    <g id="patch_85">
     <path d="M 810.64768 147.346875 
L 994.752368 147.346875 
Q 996.752368 147.346875 996.752368 145.346875 
L 996.752368 43.6 
Q 996.752368 41.6 994.752368 41.6 
L 810.64768 41.6 
Q 808.64768 41.6 808.64768 43.6 
L 808.64768 145.346875 
Q 808.64768 147.346875 810.64768 147.346875 
z
" style="fill: #ffffff; opacity: 0.8; stroke: #cccccc; stroke-linejoin: miter"/>
    </g>
    <g id="text_23">
     <!-- Outcome Type -->
     <g transform="translate(866.807836 53.198437) scale(0.1 -0.1)">
      <use xlink:href="#DejaVuSans-4f"/>
      <use xlink:href="#DejaVuSans-75" transform="translate(78.710938 0)"/>
      <use xlink:href="#DejaVuSans-74" transform="translate(142.089844 0)"/>
      <use xlink:href="#DejaVuSans-63" transform="translate(181.298828 0)"/>
      <use xlink:href="#DejaVuSans-6f" transform="translate(236.279297 0)"/>
      <use xlink:href="#DejaVuSans-6d" transform="translate(297.460938 0)"/>
      <use xlink:href="#DejaVuSans-65" transform="translate(394.873047 0)"/>
      <use xlink:href="#DejaVuSans-20" transform="translate(456.396484 0)"/>
      <use xlink:href="#DejaVuSans-54" transform="translate(488.183594 0)"/>
      <use xlink:href="#DejaVuSans-79" transform="translate(533.642578 0)"/>
      <use xlink:href="#DejaVuSans-70" transform="translate(592.822266 0)"/>
      <use xlink:href="#DejaVuSans-65" transform="translate(656.298828 0)"/>
     </g>
    </g>
    <g id="patch_86">
     <path d="M 812.64768 67.876562 
L 832.64768 67.876562 
L 832.64768 60.876562 
L 812.64768 60.876562 
z
" style="fill: #1f77b4"/>
    </g>
    <g id="text_24">
     <!-- Negotiated settlement -->
     <g transform="translate(840.64768 67.876562) scale(0.1 -0.1)">
      <use xlink:href="#DejaVuSans-4e"/>
      <use xlink:href="#DejaVuSans-65" transform="translate(74.804688 0)"/>
      <use xlink:href="#DejaVuSans-67" transform="translate(136.328125 0)"/>
      <use xlink:href="#DejaVuSans-6f" transform="translate(199.804688 0)"/>
      <use xlink:href="#DejaVuSans-74" transform="translate(260.986328 0)"/>
      <use xlink:href="#DejaVuSans-69" transform="translate(300.195312 0)"/>
      <use xlink:href="#DejaVuSans-61" transform="translate(327.978516 0)"/>
      <use xlink:href="#DejaVuSans-74" transform="translate(389.257812 0)"/>
      <use xlink:href="#DejaVuSans-65" transform="translate(428.466797 0)"/>
      <use xlink:href="#DejaVuSans-64" transform="translate(489.990234 0)"/>
      <use xlink:href="#DejaVuSans-20" transform="translate(553.466797 0)"/>
      <use xlink:href="#DejaVuSans-73" transform="translate(585.253906 0)"/>
      <use xlink:href="#DejaVuSans-65" transform="translate(637.353516 0)"/>
      <use xlink:href="#DejaVuSans-74" transform="translate(698.876953 0)"/>
      <use xlink:href="#DejaVuSans-74" transform="translate(738.085938 0)"/>
      <use xlink:href="#DejaVuSans-6c" transform="translate(777.294922 0)"/>
      <use xlink:href="#DejaVuSans-65" transform="translate(805.078125 0)"/>
      <use xlink:href="#DejaVuSans-6d" transform="translate(866.601562 0)"/>
      <use xlink:href="#DejaVuSans-65" transform="translate(964.013672 0)"/>
      <use xlink:href="#DejaVuSans-6e" transform="translate(1025.537109 0)"/>
      <use xlink:href="#DejaVuSans-74" transform="translate(1088.916016 0)"/>
     </g>
    </g>
    <g id="patch_87">
     <path d="M 812.64768 82.554688 
L 832.64768 82.554688 
L 832.64768 75.554688 
L 812.64768 75.554688 
z
" style="fill: #2ca02c"/>
    </g>
    <g id="text_25">
     <!-- Sender capitulation -->
     <g transform="translate(840.64768 82.554688) scale(0.1 -0.1)">
      <use xlink:href="#DejaVuSans-53"/>
      <use xlink:href="#DejaVuSans-65" transform="translate(63.476562 0)"/>
      <use xlink:href="#DejaVuSans-6e" transform="translate(125 0)"/>
      <use xlink:href="#DejaVuSans-64" transform="translate(188.378906 0)"/>
      <use xlink:href="#DejaVuSans-65" transform="translate(251.855469 0)"/>
      <use xlink:href="#DejaVuSans-72" transform="translate(313.378906 0)"/>
      <use xlink:href="#DejaVuSans-20" transform="translate(354.492188 0)"/>
      <use xlink:href="#DejaVuSans-63" transform="translate(386.279297 0)"/>
      <use xlink:href="#DejaVuSans-61" transform="translate(441.259766 0)"/>
      <use xlink:href="#DejaVuSans-70" transform="translate(502.539062 0)"/>
      <use xlink:href="#DejaVuSans-69" transform="translate(566.015625 0)"/>
      <use xlink:href="#DejaVuSans-74" transform="translate(593.798828 0)"/>
      <use xlink:href="#DejaVuSans-75" transform="translate(633.007812 0)"/>
      <use xlink:href="#DejaVuSans-6c" transform="translate(696.386719 0)"/>
      <use xlink:href="#DejaVuSans-61" transform="translate(724.169922 0)"/>
      <use xlink:href="#DejaVuSans-74" transform="translate(785.449219 0)"/>
      <use xlink:href="#DejaVuSans-69" transform="translate(824.658203 0)"/>
      <use xlink:href="#DejaVuSans-6f" transform="translate(852.441406 0)"/>
      <use xlink:href="#DejaVuSans-6e" transform="translate(913.623047 0)"/>
     </g>
    </g>
    <g id="patch_88">
     <path d="M 812.64768 97.232812 
L 832.64768 97.232812 
L 832.64768 90.232812 
L 812.64768 90.232812 
z
" style="fill: #9467bd"/>
    </g>
    <g id="text_26">
     <!-- Stalemate -->
     <g transform="translate(840.64768 97.232812) scale(0.1 -0.1)">
      <use xlink:href="#DejaVuSans-53"/>
      <use xlink:href="#DejaVuSans-74" transform="translate(63.476562 0)"/>
      <use xlink:href="#DejaVuSans-61" transform="translate(102.685547 0)"/>
      <use xlink:href="#DejaVuSans-6c" transform="translate(163.964844 0)"/>
      <use xlink:href="#DejaVuSans-65" transform="translate(191.748047 0)"/>
      <use xlink:href="#DejaVuSans-6d" transform="translate(253.271484 0)"/>
      <use xlink:href="#DejaVuSans-61" transform="translate(350.683594 0)"/>
      <use xlink:href="#DejaVuSans-74" transform="translate(411.962891 0)"/>
      <use xlink:href="#DejaVuSans-65" transform="translate(451.171875 0)"/>
     </g>
    </g>
    <g id="patch_89">
     <path d="M 812.64768 111.910937 
L 832.64768 111.910937 
L 832.64768 104.910937 
L 812.64768 104.910937 
z
" style="fill: #e377c2"/>
    </g>
    <g id="text_27">
     <!-- Target complete acquiescence -->
     <g transform="translate(840.64768 111.910937) scale(0.1 -0.1)">
      <use xlink:href="#DejaVuSans-54"/>
      <use xlink:href="#DejaVuSans-61" transform="translate(44.583984 0)"/>
      <use xlink:href="#DejaVuSans-72" transform="translate(105.863281 0)"/>
      <use xlink:href="#DejaVuSans-67" transform="translate(145.226562 0)"/>
      <use xlink:href="#DejaVuSans-65" transform="translate(208.703125 0)"/>
      <use xlink:href="#DejaVuSans-74" transform="translate(270.226562 0)"/>
      <use xlink:href="#DejaVuSans-20" transform="translate(309.435547 0)"/>
      <use xlink:href="#DejaVuSans-63" transform="translate(341.222656 0)"/>
      <use xlink:href="#DejaVuSans-6f" transform="translate(396.203125 0)"/>
      <use xlink:href="#DejaVuSans-6d" transform="translate(457.384766 0)"/>
      <use xlink:href="#DejaVuSans-70" transform="translate(554.796875 0)"/>
      <use xlink:href="#DejaVuSans-6c" transform="translate(618.273438 0)"/>
      <use xlink:href="#DejaVuSans-65" transform="translate(646.056641 0)"/>
      <use xlink:href="#DejaVuSans-74" transform="translate(707.580078 0)"/>
      <use xlink:href="#DejaVuSans-65" transform="translate(746.789062 0)"/>
      <use xlink:href="#DejaVuSans-20" transform="translate(808.3125 0)"/>
      <use xlink:href="#DejaVuSans-61" transform="translate(840.099609 0)"/>
      <use xlink:href="#DejaVuSans-63" transform="translate(901.378906 0)"/>
      <use xlink:href="#DejaVuSans-71" transform="translate(956.359375 0)"/>
      <use xlink:href="#DejaVuSans-75" transform="translate(1019.835938 0)"/>
      <use xlink:href="#DejaVuSans-69" transform="translate(1083.214844 0)"/>
      <use xlink:href="#DejaVuSans-65" transform="translate(1110.998047 0)"/>
      <use xlink:href="#DejaVuSans-73" transform="translate(1172.521484 0)"/>
      <use xlink:href="#DejaVuSans-63" transform="translate(1224.621094 0)"/>
      <use xlink:href="#DejaVuSans-65" transform="translate(1279.601562 0)"/>
      <use xlink:href="#DejaVuSans-6e" transform="translate(1341.125 0)"/>
      <use xlink:href="#DejaVuSans-63" transform="translate(1404.503906 0)"/>
      <use xlink:href="#DejaVuSans-65" transform="translate(1459.484375 0)"/>
     </g>
    </g>
    <g id="patch_90">
     <path d="M 812.64768 126.589062 
L 832.64768 126.589062 
L 832.64768 119.589062 
L 812.64768 119.589062 
z
" style="fill: #bcbd22"/>
    </g>
    <g id="text_28">
     <!-- Target partial acquiescence -->
     <g transform="translate(840.64768 126.589062) scale(0.1 -0.1)">
      <use xlink:href="#DejaVuSans-54"/>
      <use xlink:href="#DejaVuSans-61" transform="translate(44.583984 0)"/>
      <use xlink:href="#DejaVuSans-72" transform="translate(105.863281 0)"/>
      <use xlink:href="#DejaVuSans-67" transform="translate(145.226562 0)"/>
      <use xlink:href="#DejaVuSans-65" transform="translate(208.703125 0)"/>
      <use xlink:href="#DejaVuSans-74" transform="translate(270.226562 0)"/>
      <use xlink:href="#DejaVuSans-20" transform="translate(309.435547 0)"/>
      <use xlink:href="#DejaVuSans-70" transform="translate(341.222656 0)"/>
      <use xlink:href="#DejaVuSans-61" transform="translate(404.699219 0)"/>
      <use xlink:href="#DejaVuSans-72" transform="translate(465.978516 0)"/>
      <use xlink:href="#DejaVuSans-74" transform="translate(507.091797 0)"/>
      <use xlink:href="#DejaVuSans-69" transform="translate(546.300781 0)"/>
      <use xlink:href="#DejaVuSans-61" transform="translate(574.083984 0)"/>
      <use xlink:href="#DejaVuSans-6c" transform="translate(635.363281 0)"/>
      <use xlink:href="#DejaVuSans-20" transform="translate(663.146484 0)"/>
      <use xlink:href="#DejaVuSans-61" transform="translate(694.933594 0)"/>
      <use xlink:href="#DejaVuSans-63" transform="translate(756.212891 0)"/>
      <use xlink:href="#DejaVuSans-71" transform="translate(811.193359 0)"/>
      <use xlink:href="#DejaVuSans-75" transform="translate(874.669922 0)"/>
      <use xlink:href="#DejaVuSans-69" transform="translate(938.048828 0)"/>
      <use xlink:href="#DejaVuSans-65" transform="translate(965.832031 0)"/>
      <use xlink:href="#DejaVuSans-73" transform="translate(1027.355469 0)"/>
      <use xlink:href="#DejaVuSans-63" transform="translate(1079.455078 0)"/>
      <use xlink:href="#DejaVuSans-65" transform="translate(1134.435547 0)"/>
      <use xlink:href="#DejaVuSans-6e" transform="translate(1195.958984 0)"/>
      <use xlink:href="#DejaVuSans-63" transform="translate(1259.337891 0)"/>
      <use xlink:href="#DejaVuSans-65" transform="translate(1314.318359 0)"/>
     </g>
    </g>
    <g id="patch_91">
     <path d="M 812.64768 141.267187 
L 832.64768 141.267187 
L 832.64768 134.267187 
L 812.64768 134.267187 
z
" style="fill: #17becf"/>
    </g>
    <g id="text_29">
     <!-- missing -->
     <g transform="translate(840.64768 141.267187) scale(0.1 -0.1)">
      <use xlink:href="#DejaVuSans-6d"/>
      <use xlink:href="#DejaVuSans-69" transform="translate(97.412109 0)"/>
      <use xlink:href="#DejaVuSans-73" transform="translate(125.195312 0)"/>
      <use xlink:href="#DejaVuSans-73" transform="translate(177.294922 0)"/>
      <use xlink:href="#DejaVuSans-69" transform="translate(229.394531 0)"/>
      <use xlink:href="#DejaVuSans-6e" transform="translate(257.177734 0)"/>
      <use xlink:href="#DejaVuSans-67" transform="translate(320.556641 0)"/>
     </g>
    </g>
   </g>
  </g>
 </g>
 <defs>
  <clipPath id="pb58a6cfc9e">
   <rect x="60.32" y="36.6" width="735.968" height="320.690542"/>
  </clipPath>
 </defs>
</svg>
