<?xml version="1.0" encoding="utf-8" standalone="no"?>
<!DOCTYPE svg PUBLIC "-//W3C//DTD SVG 1.1//EN"
  "http://www.w3.org/Graphics/SVG/1.1/DTD/svg11.dtd">
<svg xmlns:xlink="http://www.w3.org/1999/xlink" width="1008pt" height="360pt" viewBox="0 0 1008 360" xmlns="http://www.w3.org/2000/svg" version="1.1">
 <metadata>
  <rdf:RDF xmlns:dc="http://purl.org/dc/elements/1.1/" xmlns:cc="http://creativecommons.org/ns#" xmlns:rdf="http://www.w3.org/1999/02/22-rdf-syntax-ns#">
   <cc:Work>
    <dc:type rdf:resource="http://purl.org/dc/dcmitype/StillImage"/>
    <dc:date>2026-06-15T22:33:47.473395</dc:date>
    <dc:format>image/svg+xml</dc:format>
    <dc:creator>
     <cc:Agent>
      <dc:title>Matplotlib v3.10.9, https://matplotlib.org/</dc:title>
     </cc:Agent>
    </dc:creator>
   </cc:Work>
  </rdf:RDF>
 </metadata>
 <defs>
  <style type="text/css">*{stroke-linejoin: round; stroke-linecap: butt}</style>
 </defs>
 <g id="figure_1">
  <g id="patch_1">
   <path d="M 0 360 
L 1008 360 
L 1008 0 
L 0 0 
z
" style="fill: #ffffff"/>
  </g>
  <g id="axes_1">
   <g id="patch_2">
    <path d="M 60.32 266.470464 
L 669.388 266.470464 
L 669.388 35.88 
L 60.32 35.88 
z
" style="fill: #ffffff"/>
   </g>
   <g id="patch_3">
    <path d="M 72.90405 266.470464 
L 103.105769 266.470464 
L 103.105769 251.020903 
L 72.90405 251.020903 
z
" clip-path="url(#pa980cf1bf5)" style="fill: #1f77b4"/>
   </g>
   <g id="patch_4">
    <path d="M 123.240248 266.470464 
L 153.441967 266.470464 
L 153.441967 224.502999 
L 123.240248 224.502999 
z
" clip-path="url(#pa980cf1bf5)" style="fill: #1f77b4"/>
   </g>
   <g id="patch_5">
    <path d="M 173.576446 266.470464 
L 203.778165 266.470464 
L 203.778165 226.347723 
L 173.576446 226.347723 
z
" clip-path="url(#pa980cf1bf5)" style="fill: #1f77b4"/>
   </g>
   <g id="patch_6">
    <path d="M 223.912645 266.470464 
L 254.114364 266.470464 
L 254.114364 200.521591 
L 223.912645 200.521591 
z
" clip-path="url(#pa980cf1bf5)" style="fill: #1f77b4"/>
   </g>
   <g id="patch_7">
    <path d="M 274.248843 266.470464 
L 304.450562 266.470464 
L 304.450562 194.526239 
L 274.248843 194.526239 
z
" clip-path="url(#pa980cf1bf5)" style="fill: #1f77b4"/>
   </g>
   <g id="patch_8">
    <path d="M 324.585041 266.470464 
L 354.78676 266.470464 
L 354.78676 185.533211 
L 324.585041 185.533211 
z
" clip-path="url(#pa980cf1bf5)" style="fill: #1f77b4"/>
   </g>
   <g id="patch_9">
    <path d="M 374.92124 266.470464 
L 405.122959 266.470464 
L 405.122959 233.496028 
L 374.92124 233.496028 
z
" clip-path="url(#pa980cf1bf5)" style="fill: #1f77b4"/>
   </g>
   <g id="patch_10">
    <path d="M 425.257438 266.470464 
L 455.459157 266.470464 
L 455.459157 266.470464 
L 425.257438 266.470464 
z
" clip-path="url(#pa980cf1bf5)" style="fill: #1f77b4"/>
   </g>
   <g id="patch_11">
    <path d="M 475.593636 266.470464 
L 505.795355 266.470464 
L 505.795355 266.470464 
L 475.593636 266.470464 
z
" clip-path="url(#pa980cf1bf5)" style="fill: #1f77b4"/>
   </g>
   <g id="patch_12">
    <path d="M 525.929835 266.470464 
L 556.131554 266.470464 
L 556.131554 35.88 
L 525.929835 35.88 
z
" clip-path="url(#pa980cf1bf5)" style="fill: #1f77b4"/>
   </g>
   <g id="patch_13">
    <path d="M 576.266033 266.470464 
L 606.467752 266.470464 
L 606.467752 266.470464 
L 576.266033 266.470464 
z
" clip-path="url(#pa980cf1bf5)" style="fill: #1f77b4"/>
   </g>
   <g id="patch_14">
    <path d="M 626.602231 266.470464 
L 656.80395 266.470464 
L 656.80395 196.601553 
L 626.602231 196.601553 
z
" clip-path="url(#pa980cf1bf5)" style="fill: #1f77b4"/>
   </g>
   <g id="patch_15">
    <path d="M 72.90405 251.020903 
L 103.105769 251.020903 
L 103.105769 251.020903 
L 72.90405 251.020903 
z
" clip-path="url(#pa980cf1bf5)" style="fill: #ff7f0e"/>
   </g>
   <g id="patch_16">
    <path d="M 123.240248 224.502999 
L 153.441967 224.502999 
L 153.441967 217.585286 
L 123.240248 217.585286 
z
" clip-path="url(#pa980cf1bf5)" style="fill: #ff7f0e"/>
   </g>
   <g id="patch_17">
    <path d="M 173.576446 226.347723 
L 203.778165 226.347723 
L 203.778165 226.347723 
L 173.576446 226.347723 
z
" clip-path="url(#pa980cf1bf5)" style="fill: #ff7f0e"/>
   </g>
   <g id="patch_18">
    <path d="M 223.912645 200.521591 
L 254.114364 200.521591 
L 254.114364 200.521591 
L 223.912645 200.521591 
z
" clip-path="url(#pa980cf1bf5)" style="fill: #ff7f0e"/>
   </g>
   <g id="patch_19">
    <path d="M 274.248843 194.526239 
L 304.450562 194.526239 
L 304.450562 194.526239 
L 274.248843 194.526239 
z
" clip-path="url(#pa980cf1bf5)" style="fill: #ff7f0e"/>
   </g>
   <g id="patch_20">
    <path d="M 324.585041 185.533211 
L 354.78676 185.533211 
L 354.78676 181.382583 
L 324.585041 181.382583 
z
" clip-path="url(#pa980cf1bf5)" style="fill: #ff7f0e"/>
   </g>
   <g id="patch_21">
    <path d="M 374.92124 233.496028 
L 405.122959 233.496028 
L 405.122959 233.496028 
L 374.92124 233.496028 
z
" clip-path="url(#pa980cf1bf5)" style="fill: #ff7f0e"/>
   </g>
   <g id="patch_22">
    <path d="M 425.257438 266.470464 
L 455.459157 266.470464 
L 455.459157 266.470464 
L 425.257438 266.470464 
z
" clip-path="url(#pa980cf1bf5)" style="fill: #ff7f0e"/>
   </g>
   <g id="patch_23">
    <path d="M 475.593636 266.470464 
L 505.795355 266.470464 
L 505.795355 151.175232 
L 475.593636 151.175232 
z
" clip-path="url(#pa980cf1bf5)" style="fill: #ff7f0e"/>
   </g>
   <g id="patch_24">
    <path d="M 525.929835 35.88 
L 556.131554 35.88 
L 556.131554 35.88 
L 525.929835 35.88 
z
" clip-path="url(#pa980cf1bf5)" style="fill: #ff7f0e"/>
   </g>
   <g id="patch_25">
    <path d="M 576.266033 266.470464 
L 606.467752 266.470464 
L 606.467752 266.470464 
L 576.266033 266.470464 
z
" clip-path="url(#pa980cf1bf5)" style="fill: #ff7f0e"/>
   </g>
   <g id="patch_26">
    <path d="M 626.602231 196.601553 
L 656.80395 196.601553 
L 656.80395 195.218011 
L 626.602231 195.218011 
z
" clip-path="url(#pa980cf1bf5)" style="fill: #ff7f0e"/>
   </g>
   <g id="patch_27">
    <path d="M 72.90405 251.020903 
L 103.105769 251.020903 
L 103.105769 251.020903 
L 72.90405 251.020903 
z
" clip-path="url(#pa980cf1bf5)" style="fill: #2ca02c"/>
   </g>
   <g id="patch_28">
    <path d="M 123.240248 217.585286 
L 153.441967 217.585286 
L 153.441967 217.585286 
L 123.240248 217.585286 
z
" clip-path="url(#pa980cf1bf5)" style="fill: #2ca02c"/>
   </g>
   <g id="patch_29">
    <path d="M 173.576446 226.347723 
L 203.778165 226.347723 
L 203.778165 226.347723 
L 173.576446 226.347723 
z
" clip-path="url(#pa980cf1bf5)" style="fill: #2ca02c"/>
   </g>
   <g id="patch_30">
    <path d="M 223.912645 200.521591 
L 254.114364 200.521591 
L 254.114364 200.521591 
L 223.912645 200.521591 
z
" clip-path="url(#pa980cf1bf5)" style="fill: #2ca02c"/>
   </g>
   <g id="patch_31">
    <path d="M 274.248843 194.526239 
L 304.450562 194.526239 
L 304.450562 194.526239 
L 274.248843 194.526239 
z
" clip-path="url(#pa980cf1bf5)" style="fill: #2ca02c"/>
   </g>
   <g id="patch_32">
    <path d="M 324.585041 181.382583 
L 354.78676 181.382583 
L 354.78676 181.382583 
L 324.585041 181.382583 
z
" clip-path="url(#pa980cf1bf5)" style="fill: #2ca02c"/>
   </g>
   <g id="patch_33">
    <path d="M 374.92124 233.496028 
L 405.122959 233.496028 
L 405.122959 233.496028 
L 374.92124 233.496028 
z
" clip-path="url(#pa980cf1bf5)" style="fill: #2ca02c"/>
   </g>
   <g id="patch_34">
    <path d="M 425.257438 266.470464 
L 455.459157 266.470464 
L 455.459157 266.470464 
L 425.257438 266.470464 
z
" clip-path="url(#pa980cf1bf5)" style="fill: #2ca02c"/>
   </g>
   <g id="patch_35">
    <path d="M 475.593636 151.175232 
L 505.795355 151.175232 
L 505.795355 151.175232 
L 475.593636 151.175232 
z
" clip-path="url(#pa980cf1bf5)" style="fill: #2ca02c"/>
   </g>
   <g id="patch_36">
    <path d="M 525.929835 35.88 
L 556.131554 35.88 
L 556.131554 35.88 
L 525.929835 35.88 
z
" clip-path="url(#pa980cf1bf5)" style="fill: #2ca02c"/>
   </g>
   <g id="patch_37">
    <path d="M 576.266033 266.470464 
L 606.467752 266.470464 
L 606.467752 266.470464 
L 576.266033 266.470464 
z
" clip-path="url(#pa980cf1bf5)" style="fill: #2ca02c"/>
   </g>
   <g id="patch_38">
    <path d="M 626.602231 195.218011 
L 656.80395 195.218011 
L 656.80395 192.681515 
L 626.602231 192.681515 
z
" clip-path="url(#pa980cf1bf5)" style="fill: #2ca02c"/>
   </g>
   <g id="patch_39">
    <path d="M 72.90405 251.020903 
L 103.105769 251.020903 
L 103.105769 251.020903 
L 72.90405 251.020903 
z
" clip-path="url(#pa980cf1bf5)" style="fill: #d62728"/>
   </g>
   <g id="patch_40">
    <path d="M 123.240248 217.585286 
L 153.441967 217.585286 
L 153.441967 210.667572 
L 123.240248 210.667572 
z
" clip-path="url(#pa980cf1bf5)" style="fill: #d62728"/>
   </g>
   <g id="patch_41">
    <path d="M 173.576446 226.347723 
L 203.778165 226.347723 
L 203.778165 226.347723 
L 173.576446 226.347723 
z
" clip-path="url(#pa980cf1bf5)" style="fill: #d62728"/>
   </g>
   <g id="patch_42">
    <path d="M 223.912645 200.521591 
L 254.114364 200.521591 
L 254.114364 200.521591 
L 223.912645 200.521591 
z
" clip-path="url(#pa980cf1bf5)" style="fill: #d62728"/>
   </g>
   <g id="patch_43">
    <path d="M 274.248843 194.526239 
L 304.450562 194.526239 
L 304.450562 194.526239 
L 274.248843 194.526239 
z
" clip-path="url(#pa980cf1bf5)" style="fill: #d62728"/>
   </g>
   <g id="patch_44">
    <path d="M 324.585041 181.382583 
L 354.78676 181.382583 
L 354.78676 181.382583 
L 324.585041 181.382583 
z
" clip-path="url(#pa980cf1bf5)" style="fill: #d62728"/>
   </g>
   <g id="patch_45">
    <path d="M 374.92124 233.496028 
L 405.122959 233.496028 
L 405.122959 233.496028 
L 374.92124 233.496028 
z
" clip-path="url(#pa980cf1bf5)" style="fill: #d62728"/>
   </g>
   <g id="patch_46">
    <path d="M 425.257438 266.470464 
L 455.459157 266.470464 
L 455.459157 266.470464 
L 425.257438 266.470464 
z
" clip-path="url(#pa980cf1bf5)" style="fill: #d62728"/>
   </g>
   <g id="patch_47">
    <path d="M 475.593636 151.175232 
L 505.795355 151.175232 
L 505.795355 151.175232 
L 475.593636 151.175232 
z
" clip-path="url(#pa980cf1bf5)" style="fill: #d62728"/>
   </g>
   <g id="patch_48">
    <path d="M 525.929835 35.88 
L 556.131554 35.88 
L 556.131554 35.88 
L 525.929835 35.88 
z
" clip-path="url(#pa980cf1bf5)" style="fill: #d62728"/>
   </g>
   <g id="patch_49">
    <path d="M 576.266033 266.470464 
L 606.467752 266.470464 
L 606.467752 266.470464 
L 576.266033 266.470464 
z
" clip-path="url(#pa980cf1bf5)" style="fill: #d62728"/>
   </g>
   <g id="patch_50">
    <path d="M 626.602231 192.681515 
L 656.80395 192.681515 
L 656.80395 190.14502 
L 626.602231 190.14502 
z
" clip-path="url(#pa980cf1bf5)" style="fill: #d62728"/>
   </g>
   <g id="patch_51">
    <path d="M 72.90405 251.020903 
L 103.105769 251.020903 
L 103.105769 235.571342 
L 72.90405 235.571342 
z
" clip-path="url(#pa980cf1bf5)" style="fill: #8c564b"/>
   </g>
   <g id="patch_52">
    <path d="M 123.240248 210.667572 
L 153.441967 210.667572 
L 153.441967 210.667572 
L 123.240248 210.667572 
z
" clip-path="url(#pa980cf1bf5)" style="fill: #8c564b"/>
   </g>
   <g id="patch_53">
    <path d="M 173.576446 226.347723 
L 203.778165 226.347723 
L 203.778165 226.347723 
L 173.576446 226.347723 
z
" clip-path="url(#pa980cf1bf5)" style="fill: #8c564b"/>
   </g>
   <g id="patch_54">
    <path d="M 223.912645 200.521591 
L 254.114364 200.521591 
L 254.114364 200.521591 
L 223.912645 200.521591 
z
" clip-path="url(#pa980cf1bf5)" style="fill: #8c564b"/>
   </g>
   <g id="patch_55">
    <path d="M 274.248843 194.526239 
L 304.450562 194.526239 
L 304.450562 194.526239 
L 274.248843 194.526239 
z
" clip-path="url(#pa980cf1bf5)" style="fill: #8c564b"/>
   </g>
   <g id="patch_56">
    <path d="M 324.585041 181.382583 
L 354.78676 181.382583 
L 354.78676 177.231954 
L 324.585041 177.231954 
z
" clip-path="url(#pa980cf1bf5)" style="fill: #8c564b"/>
   </g>
   <g id="patch_57">
    <path d="M 374.92124 233.496028 
L 405.122959 233.496028 
L 405.122959 233.496028 
L 374.92124 233.496028 
z
" clip-path="url(#pa980cf1bf5)" style="fill: #8c564b"/>
   </g>
   <g id="patch_58">
    <path d="M 425.257438 266.470464 
L 455.459157 266.470464 
L 455.459157 266.470464 
L 425.257438 266.470464 
z
" clip-path="url(#pa980cf1bf5)" style="fill: #8c564b"/>
   </g>
   <g id="patch_59">
    <path d="M 475.593636 151.175232 
L 505.795355 151.175232 
L 505.795355 151.175232 
L 475.593636 151.175232 
z
" clip-path="url(#pa980cf1bf5)" style="fill: #8c564b"/>
   </g>
   <g id="patch_60">
    <path d="M 525.929835 35.88 
L 556.131554 35.88 
L 556.131554 35.88 
L 525.929835 35.88 
z
" clip-path="url(#pa980cf1bf5)" style="fill: #8c564b"/>
   </g>
   <g id="patch_61">
    <path d="M 576.266033 266.470464 
L 606.467752 266.470464 
L 606.467752 266.470464 
L 576.266033 266.470464 
z
" clip-path="url(#pa980cf1bf5)" style="fill: #8c564b"/>
   </g>
   <g id="patch_62">
    <path d="M 626.602231 190.14502 
L 656.80395 190.14502 
L 656.80395 179.768449 
L 626.602231 179.768449 
z
" clip-path="url(#pa980cf1bf5)" style="fill: #8c564b"/>
   </g>
   <g id="patch_63">
    <path d="M 72.90405 235.571342 
L 103.105769 235.571342 
L 103.105769 174.003688 
L 72.90405 174.003688 
z
" clip-path="url(#pa980cf1bf5)" style="fill: #e377c2"/>
   </g>
   <g id="patch_64">
    <path d="M 123.240248 210.667572 
L 153.441967 210.667572 
L 153.441967 210.667572 
L 123.240248 210.667572 
z
" clip-path="url(#pa980cf1bf5)" style="fill: #e377c2"/>
   </g>
   <g id="patch_65">
    <path d="M 173.576446 226.347723 
L 203.778165 226.347723 
L 203.778165 206.286353 
L 173.576446 206.286353 
z
" clip-path="url(#pa980cf1bf5)" style="fill: #e377c2"/>
   </g>
   <g id="patch_66">
    <path d="M 223.912645 200.521591 
L 254.114364 200.521591 
L 254.114364 200.521591 
L 223.912645 200.521591 
z
" clip-path="url(#pa980cf1bf5)" style="fill: #e377c2"/>
   </g>
   <g id="patch_67">
    <path d="M 274.248843 194.526239 
L 304.450562 194.526239 
L 304.450562 189.683839 
L 274.248843 189.683839 
z
" clip-path="url(#pa980cf1bf5)" style="fill: #e377c2"/>
   </g>
   <g id="patch_68">
    <path d="M 324.585041 177.231954 
L 354.78676 177.231954 
L 354.78676 173.081326 
L 324.585041 173.081326 
z
" clip-path="url(#pa980cf1bf5)" style="fill: #e377c2"/>
   </g>
   <g id="patch_69">
    <path d="M 374.92124 233.496028 
L 405.122959 233.496028 
L 405.122959 233.496028 
L 374.92124 233.496028 
z
" clip-path="url(#pa980cf1bf5)" style="fill: #e377c2"/>
   </g>
   <g id="patch_70">
    <path d="M 425.257438 266.470464 
L 455.459157 266.470464 
L 455.459157 266.470464 
L 425.257438 266.470464 
z
" clip-path="url(#pa980cf1bf5)" style="fill: #e377c2"/>
   </g>
   <g id="patch_71">
    <path d="M 475.593636 151.175232 
L 505.795355 151.175232 
L 505.795355 151.175232 
L 475.593636 151.175232 
z
" clip-path="url(#pa980cf1bf5)" style="fill: #e377c2"/>
   </g>
   <g id="patch_72">
    <path d="M 525.929835 35.88 
L 556.131554 35.88 
L 556.131554 35.88 
L 525.929835 35.88 
z
" clip-path="url(#pa980cf1bf5)" style="fill: #e377c2"/>
   </g>
   <g id="patch_73">
    <path d="M 576.266033 266.470464 
L 606.467752 266.470464 
L 606.467752 266.470464 
L 576.266033 266.470464 
z
" clip-path="url(#pa980cf1bf5)" style="fill: #e377c2"/>
   </g>
   <g id="patch_74">
    <path d="M 626.602231 179.768449 
L 656.80395 179.768449 
L 656.80395 130.652681 
L 626.602231 130.652681 
z
" clip-path="url(#pa980cf1bf5)" style="fill: #e377c2"/>
   </g>
   <g id="patch_75">
    <path d="M 72.90405 174.003688 
L 103.105769 174.003688 
L 103.105769 174.003688 
L 72.90405 174.003688 
z
" clip-path="url(#pa980cf1bf5)" style="fill: #7f7f7f"/>
   </g>
   <g id="patch_76">
    <path d="M 123.240248 210.667572 
L 153.441967 210.667572 
L 153.441967 175.617821 
L 123.240248 175.617821 
z
" clip-path="url(#pa980cf1bf5)" style="fill: #7f7f7f"/>
   </g>
   <g id="patch_77">
    <path d="M 173.576446 206.286353 
L 203.778165 206.286353 
L 203.778165 206.286353 
L 173.576446 206.286353 
z
" clip-path="url(#pa980cf1bf5)" style="fill: #7f7f7f"/>
   </g>
   <g id="patch_78">
    <path d="M 223.912645 200.521591 
L 254.114364 200.521591 
L 254.114364 200.521591 
L 223.912645 200.521591 
z
" clip-path="url(#pa980cf1bf5)" style="fill: #7f7f7f"/>
   </g>
   <g id="patch_79">
    <path d="M 274.248843 189.683839 
L 304.450562 189.683839 
L 304.450562 151.175232 
L 274.248843 151.175232 
z
" clip-path="url(#pa980cf1bf5)" style="fill: #7f7f7f"/>
   </g>
   <g id="patch_80">
    <path d="M 324.585041 173.081326 
L 354.78676 173.081326 
L 354.78676 160.860031 
L 324.585041 160.860031 
z
" clip-path="url(#pa980cf1bf5)" style="fill: #7f7f7f"/>
   </g>
   <g id="patch_81">
    <path d="M 374.92124 233.496028 
L 405.122959 233.496028 
L 405.122959 233.496028 
L 374.92124 233.496028 
z
" clip-path="url(#pa980cf1bf5)" style="fill: #7f7f7f"/>
   </g>
   <g id="patch_82">
    <path d="M 425.257438 266.470464 
L 455.459157 266.470464 
L 455.459157 266.470464 
L 425.257438 266.470464 
z
" clip-path="url(#pa980cf1bf5)" style="fill: #7f7f7f"/>
   </g>
   <g id="patch_83">
    <path d="M 475.593636 151.175232 
L 505.795355 151.175232 
L 505.795355 151.175232 
L 475.593636 151.175232 
z
" clip-path="url(#pa980cf1bf5)" style="fill: #7f7f7f"/>
   </g>
   <g id="patch_84">
    <path d="M 525.929835 35.88 
L 556.131554 35.88 
L 556.131554 35.88 
L 525.929835 35.88 
z
" clip-path="url(#pa980cf1bf5)" style="fill: #7f7f7f"/>
   </g>
   <g id="patch_85">
    <path d="M 576.266033 266.470464 
L 606.467752 266.470464 
L 606.467752 112.666624 
L 576.266033 112.666624 
z
" clip-path="url(#pa980cf1bf5)" style="fill: #7f7f7f"/>
   </g>
   <g id="patch_86">
    <path d="M 626.602231 130.652681 
L 656.80395 130.652681 
L 656.80395 118.892567 
L 626.602231 118.892567 
z
" clip-path="url(#pa980cf1bf5)" style="fill: #7f7f7f"/>
   </g>
   <g id="patch_87">
    <path d="M 72.90405 174.003688 
L 103.105769 174.003688 
L 103.105769 158.554127 
L 72.90405 158.554127 
z
" clip-path="url(#pa980cf1bf5)" style="fill: #bcbd22"/>
   </g>
   <g id="patch_88">
    <path d="M 123.240248 175.617821 
L 153.441967 175.617821 
L 153.441967 98.831197 
L 123.240248 98.831197 
z
" clip-path="url(#pa980cf1bf5)" style="fill: #bcbd22"/>
   </g>
   <g id="patch_89">
    <path d="M 173.576446 206.286353 
L 203.778165 206.286353 
L 203.778165 76.002741 
L 173.576446 76.002741 
z
" clip-path="url(#pa980cf1bf5)" style="fill: #bcbd22"/>
   </g>
   <g id="patch_90">
    <path d="M 223.912645 200.521591 
L 254.114364 200.521591 
L 254.114364 167.547155 
L 223.912645 167.547155 
z
" clip-path="url(#pa980cf1bf5)" style="fill: #bcbd22"/>
   </g>
   <g id="patch_91">
    <path d="M 274.248843 151.175232 
L 304.450562 151.175232 
L 304.450562 88.685216 
L 274.248843 88.685216 
z
" clip-path="url(#pa980cf1bf5)" style="fill: #bcbd22"/>
   </g>
   <g id="patch_92">
    <path d="M 324.585041 160.860031 
L 354.78676 160.860031 
L 354.78676 100.214739 
L 324.585041 100.214739 
z
" clip-path="url(#pa980cf1bf5)" style="fill: #bcbd22"/>
   </g>
   <g id="patch_93">
    <path d="M 374.92124 233.496028 
L 405.122959 233.496028 
L 405.122959 101.828873 
L 374.92124 101.828873 
z
" clip-path="url(#pa980cf1bf5)" style="fill: #bcbd22"/>
   </g>
   <g id="patch_94">
    <path d="M 425.257438 266.470464 
L 455.459157 266.470464 
L 455.459157 35.88 
L 425.257438 35.88 
z
" clip-path="url(#pa980cf1bf5)" style="fill: #bcbd22"/>
   </g>
   <g id="patch_95">
    <path d="M 475.593636 151.175232 
L 505.795355 151.175232 
L 505.795355 151.175232 
L 475.593636 151.175232 
z
" clip-path="url(#pa980cf1bf5)" style="fill: #bcbd22"/>
   </g>
   <g id="patch_96">
    <path d="M 525.929835 35.88 
L 556.131554 35.88 
L 556.131554 35.88 
L 525.929835 35.88 
z
" clip-path="url(#pa980cf1bf5)" style="fill: #bcbd22"/>
   </g>
   <g id="patch_97">
    <path d="M 576.266033 112.666624 
L 606.467752 112.666624 
L 606.467752 35.88 
L 576.266033 35.88 
z
" clip-path="url(#pa980cf1bf5)" style="fill: #bcbd22"/>
   </g>
   <g id="patch_98">
    <path d="M 626.602231 118.892567 
L 656.80395 118.892567 
L 656.80395 82.689864 
L 626.602231 82.689864 
z
" clip-path="url(#pa980cf1bf5)" style="fill: #bcbd22"/>
   </g>
   <g id="patch_99">
    <path d="M 72.90405 158.554127 
L 103.105769 158.554127 
L 103.105769 35.64941 
L 72.90405 35.64941 
z
" clip-path="url(#pa980cf1bf5)" style="fill: #17becf"/>
   </g>
   <g id="patch_100">
    <path d="M 123.240248 98.831197 
L 153.441967 98.831197 
L 153.441967 35.88 
L 123.240248 35.88 
z
" clip-path="url(#pa980cf1bf5)" style="fill: #17becf"/>
   </g>
   <g id="patch_101">
    <path d="M 173.576446 76.002741 
L 203.778165 76.002741 
L 203.778165 35.88 
L 173.576446 35.88 
z
" clip-path="url(#pa980cf1bf5)" style="fill: #17becf"/>
   </g>
   <g id="patch_102">
    <path d="M 223.912645 167.547155 
L 254.114364 167.547155 
L 254.114364 35.88 
L 223.912645 35.88 
z
" clip-path="url(#pa980cf1bf5)" style="fill: #17becf"/>
   </g>
   <g id="patch_103">
    <path d="M 274.248843 88.685216 
L 304.450562 88.685216 
L 304.450562 35.88 
L 274.248843 35.88 
z
" clip-path="url(#pa980cf1bf5)" style="fill: #17becf"/>
   </g>
   <g id="patch_104">
    <path d="M 324.585041 100.214739 
L 354.78676 100.214739 
L 354.78676 35.418819 
L 324.585041 35.418819 
z
" clip-path="url(#pa980cf1bf5)" style="fill: #17becf"/>
   </g>
   <g id="patch_105">
    <path d="M 374.92124 101.828873 
L 405.122959 101.828873 
L 405.122959 35.88 
L 374.92124 35.88 
z
" clip-path="url(#pa980cf1bf5)" style="fill: #17becf"/>
   </g>
   <g id="patch_106">
    <path d="M 425.257438 35.88 
L 455.459157 35.88 
L 455.459157 35.88 
L 425.257438 35.88 
z
" clip-path="url(#pa980cf1bf5)" style="fill: #17becf"/>
   </g>
   <g id="patch_107">
    <path d="M 475.593636 151.175232 
L 505.795355 151.175232 
L 505.795355 35.88 
L 475.593636 35.88 
z
" clip-path="url(#pa980cf1bf5)" style="fill: #17becf"/>
   </g>
   <g id="patch_108">
    <path d="M 525.929835 35.88 
L 556.131554 35.88 
L 556.131554 35.88 
L 525.929835 35.88 
z
" clip-path="url(#pa980cf1bf5)" style="fill: #17becf"/>
   </g>
   <g id="patch_109">
    <path d="M 576.266033 35.88 
L 606.467752 35.88 
L 606.467752 35.88 
L 576.266033 35.88 
z
" clip-path="url(#pa980cf1bf5)" style="fill: #17becf"/>
   </g>
   <g id="patch_110">
    <path d="M 626.602231 82.689864 
L 656.80395 82.689864 
L 656.80395 36.11059 
L 626.602231 36.11059 
z
" clip-path="url(#pa980cf1bf5)" style="fill: #17becf"/>
   </g>
   <g id="matplotlib.axis_1">
    <g id="xtick_1">
     <g id="line2d_1">
      <defs>
       <path id="m2a0b7cab4c" d="M 0 0 
L 0 3.5 
" style="stroke: #000000; stroke-width: 0.8"/>
      </defs>
      <g>
       <use xlink:href="#m2a0b7cab4c" x="88.004909" y="266.470464" style="stroke: #000000; stroke-width: 0.8"/>
      </g>
     </g>
     <g id="text_1">
      <!-- EU -->
      <g transform="translate(83.479386 286.869654) rotate(-30) scale(0.1 -0.1)">
       <defs>
        <path id="DejaVuSans-45" d="M 628 4666 
L 3578 4666 
L 3578 4134 
L 1259 4134 
L 1259 2753 
L 3481 2753 
L 3481 2222 
L 1259 2222 
L 1259 531 
L 3634 531 
L 3634 0 
L 628 0 
L 628 4666 
z
" transform="scale(0.015625)"/>
        <path id="DejaVuSans-55" d="M 556 4666 
L 1191 4666 
L 1191 1831 
Q 1191 1081 1462 751 
Q 1734 422 2344 422 
Q 2950 422 3222 751 
Q 3494 1081 3494 1831 
L 3494 4666 
L 4128 4666 
L 4128 1753 
Q 4128 841 3676 375 
Q 3225 -91 2344 -91 
Q 1459 -91 1007 375 
Q 556 841 556 1753 
L 556 4666 
z
" transform="scale(0.015625)"/>
       </defs>
       <use xlink:href="#DejaVuSans-45"/>
       <use xlink:href="#DejaVuSans-55" transform="translate(63.183594 0)"/>
      </g>
     </g>
    </g>
    <g id="xtick_2">
     <g id="line2d_2">
      <g>
       <use xlink:href="#m2a0b7cab4c" x="138.341107" y="266.470464" style="stroke: #000000; stroke-width: 0.8"/>
      </g>
     </g>
     <g id="text_2">
      <!-- EU &amp; RO &amp; UN &amp; USA -->
      <g transform="translate(93.640801 333.259498) rotate(-30) scale(0.1 -0.1)">
       <defs>
        <path id="DejaVuSans-20" transform="scale(0.015625)"/>
        <path id="DejaVuSans-26" d="M 1556 2509 
Q 1272 2256 1139 2004 
Q 1006 1753 1006 1478 
Q 1006 1022 1337 719 
Q 1669 416 2169 416 
Q 2466 416 2725 514 
Q 2984 613 3213 813 
L 1556 2509 
z
M 1997 2859 
L 3584 1234 
Q 3769 1513 3872 1830 
Q 3975 2147 3994 2503 
L 4575 2503 
Q 4538 2091 4375 1687 
Q 4213 1284 3922 891 
L 4794 0 
L 4006 0 
L 3559 459 
Q 3234 181 2878 45 
Q 2522 -91 2113 -91 
Q 1359 -91 881 339 
Q 403 769 403 1441 
Q 403 1841 612 2192 
Q 822 2544 1241 2853 
Q 1091 3050 1012 3245 
Q 934 3441 934 3628 
Q 934 4134 1281 4442 
Q 1628 4750 2203 4750 
Q 2463 4750 2720 4694 
Q 2978 4638 3244 4525 
L 3244 3956 
Q 2972 4103 2725 4179 
Q 2478 4256 2266 4256 
Q 1938 4256 1733 4082 
Q 1528 3909 1528 3634 
Q 1528 3475 1620 3314 
Q 1713 3153 1997 2859 
z
" transform="scale(0.015625)"/>
        <path id="DejaVuSans-52" d="M 2841 2188 
Q 3044 2119 3236 1894 
Q 3428 1669 3622 1275 
L 4263 0 
L 3584 0 
L 2988 1197 
Q 2756 1666 2539 1819 
Q 2322 1972 1947 1972 
L 1259 1972 
L 1259 0 
L 628 0 
L 628 4666 
L 2053 4666 
Q 2853 4666 3247 4331 
Q 3641 3997 3641 3322 
Q 3641 2881 3436 2590 
Q 3231 2300 2841 2188 
z
M 1259 4147 
L 1259 2491 
L 2053 2491 
Q 2509 2491 2742 2702 
Q 2975 2913 2975 3322 
Q 2975 3731 2742 3939 
Q 2509 4147 2053 4147 
L 1259 4147 
z
" transform="scale(0.015625)"/>
        <path id="DejaVuSans-4f" d="M 2522 4238 
Q 1834 4238 1429 3725 
Q 1025 3213 1025 2328 
Q 1025 1447 1429 934 
Q 1834 422 2522 422 
Q 3209 422 3611 934 
Q 4013 1447 4013 2328 
Q 4013 3213 3611 3725 
Q 3209 4238 2522 4238 
z
M 2522 4750 
Q 3503 4750 4090 4092 
Q 4678 3434 4678 2328 
Q 4678 1225 4090 567 
Q 3503 -91 2522 -91 
Q 1538 -91 948 565 
Q 359 1222 359 2328 
Q 359 3434 948 4092 
Q 1538 4750 2522 4750 
z
" transform="scale(0.015625)"/>
        <path id="DejaVuSans-4e" d="M 628 4666 
L 1478 4666 
L 3547 763 
L 3547 4666 
L 4159 4666 
L 4159 0 
L 3309 0 
L 1241 3903 
L 1241 0 
L 628 0 
L 628 4666 
z
" transform="scale(0.015625)"/>
        <path id="DejaVuSans-53" d="M 3425 4513 
L 3425 3897 
Q 3066 4069 2747 4153 
Q 2428 4238 2131 4238 
Q 1616 4238 1336 4038 
Q 1056 3838 1056 3469 
Q 1056 3159 1242 3001 
Q 1428 2844 1947 2747 
L 2328 2669 
Q 3034 2534 3370 2195 
Q 3706 1856 3706 1288 
Q 3706 609 3251 259 
Q 2797 -91 1919 -91 
Q 1588 -91 1214 -16 
Q 841 59 441 206 
L 441 856 
Q 825 641 1194 531 
Q 1563 422 1919 422 
Q 2459 422 2753 634 
Q 3047 847 3047 1241 
Q 3047 1584 2836 1778 
Q 2625 1972 2144 2069 
L 1759 2144 
Q 1053 2284 737 2584 
Q 422 2884 422 3419 
Q 422 4038 858 4394 
Q 1294 4750 2059 4750 
Q 2388 4750 2728 4690 
Q 3069 4631 3425 4513 
z
" transform="scale(0.015625)"/>
        <path id="DejaVuSans-41" d="M 2188 4044 
L 1331 1722 
L 3047 1722 
L 2188 4044 
z
M 1831 4666 
L 2547 4666 
L 4325 0 
L 3669 0 
L 3244 1197 
L 1141 1197 
L 716 0 
L 50 0 
L 1831 4666 
z
" transform="scale(0.015625)"/>
       </defs>
       <use xlink:href="#DejaVuSans-45"/>
       <use xlink:href="#DejaVuSans-55" transform="translate(63.183594 0)"/>
       <use xlink:href="#DejaVuSans-20" transform="translate(136.376953 0)"/>
       <use xlink:href="#DejaVuSans-26" transform="translate(168.164062 0)"/>
       <use xlink:href="#DejaVuSans-20" transform="translate(246.142578 0)"/>
       <use xlink:href="#DejaVuSans-52" transform="translate(277.929688 0)"/>
       <use xlink:href="#DejaVuSans-4f" transform="translate(347.412109 0)"/>
       <use xlink:href="#DejaVuSans-20" transform="translate(426.123047 0)"/>
       <use xlink:href="#DejaVuSans-26" transform="translate(457.910156 0)"/>
       <use xlink:href="#DejaVuSans-20" transform="translate(535.888672 0)"/>
       <use xlink:href="#DejaVuSans-55" transform="translate(567.675781 0)"/>
       <use xlink:href="#DejaVuSans-4e" transform="translate(640.869141 0)"/>
       <use xlink:href="#DejaVuSans-20" transform="translate(715.673828 0)"/>
       <use xlink:href="#DejaVuSans-26" transform="translate(747.460938 0)"/>
       <use xlink:href="#DejaVuSans-20" transform="translate(825.439453 0)"/>
       <use xlink:href="#DejaVuSans-55" transform="translate(857.226562 0)"/>
       <use xlink:href="#DejaVuSans-53" transform="translate(930.419922 0)"/>
       <use xlink:href="#DejaVuSans-41" transform="translate(995.771484 0)"/>
      </g>
     </g>
    </g>
    <g id="xtick_3">
     <g id="line2d_3">
      <g>
       <use xlink:href="#m2a0b7cab4c" x="188.677306" y="266.470464" style="stroke: #000000; stroke-width: 0.8"/>
      </g>
     </g>
     <g id="text_3">
      <!-- EU &amp; RO &amp; USA -->
      <g transform="translate(156.514747 318.782154) rotate(-30) scale(0.1 -0.1)">
       <use xlink:href="#DejaVuSans-45"/>
       <use xlink:href="#DejaVuSans-55" transform="translate(63.183594 0)"/>
       <use xlink:href="#DejaVuSans-20" transform="translate(136.376953 0)"/>
       <use xlink:href="#DejaVuSans-26" transform="translate(168.164062 0)"/>
       <use xlink:href="#DejaVuSans-20" transform="translate(246.142578 0)"/>
       <use xlink:href="#DejaVuSans-52" transform="translate(277.929688 0)"/>
       <use xlink:href="#DejaVuSans-4f" transform="translate(347.412109 0)"/>
       <use xlink:href="#DejaVuSans-20" transform="translate(426.123047 0)"/>
       <use xlink:href="#DejaVuSans-26" transform="translate(457.910156 0)"/>
       <use xlink:href="#DejaVuSans-20" transform="translate(535.888672 0)"/>
       <use xlink:href="#DejaVuSans-55" transform="translate(567.675781 0)"/>
       <use xlink:href="#DejaVuSans-53" transform="translate(640.869141 0)"/>
       <use xlink:href="#DejaVuSans-41" transform="translate(706.220703 0)"/>
      </g>
     </g>
    </g>
    <g id="xtick_4">
     <g id="line2d_4">
      <g>
       <use xlink:href="#m2a0b7cab4c" x="239.013504" y="266.470464" style="stroke: #000000; stroke-width: 0.8"/>
      </g>
     </g>
     <g id="text_4">
      <!-- EU &amp; UN -->
      <g transform="translate(221.950233 301.346998) rotate(-30) scale(0.1 -0.1)">
       <use xlink:href="#DejaVuSans-45"/>
       <use xlink:href="#DejaVuSans-55" transform="translate(63.183594 0)"/>
       <use xlink:href="#DejaVuSans-20" transform="translate(136.376953 0)"/>
       <use xlink:href="#DejaVuSans-26" transform="translate(168.164062 0)"/>
       <use xlink:href="#DejaVuSans-20" transform="translate(246.142578 0)"/>
       <use xlink:href="#DejaVuSans-55" transform="translate(277.929688 0)"/>
       <use xlink:href="#DejaVuSans-4e" transform="translate(351.123047 0)"/>
      </g>
     </g>
    </g>
    <g id="xtick_5">
     <g id="line2d_5">
      <g>
       <use xlink:href="#m2a0b7cab4c" x="289.349702" y="266.470464" style="stroke: #000000; stroke-width: 0.8"/>
      </g>
     </g>
     <g id="text_5">
      <!-- EU &amp; UN &amp; USA -->
      <g transform="translate(257.195939 318.771998) rotate(-30) scale(0.1 -0.1)">
       <use xlink:href="#DejaVuSans-45"/>
       <use xlink:href="#DejaVuSans-55" transform="translate(63.183594 0)"/>
       <use xlink:href="#DejaVuSans-20" transform="translate(136.376953 0)"/>
       <use xlink:href="#DejaVuSans-26" transform="translate(168.164062 0)"/>
       <use xlink:href="#DejaVuSans-20" transform="translate(246.142578 0)"/>
       <use xlink:href="#DejaVuSans-55" transform="translate(277.929688 0)"/>
       <use xlink:href="#DejaVuSans-4e" transform="translate(351.123047 0)"/>
       <use xlink:href="#DejaVuSans-20" transform="translate(425.927734 0)"/>
       <use xlink:href="#DejaVuSans-26" transform="translate(457.714844 0)"/>
       <use xlink:href="#DejaVuSans-20" transform="translate(535.693359 0)"/>
       <use xlink:href="#DejaVuSans-55" transform="translate(567.480469 0)"/>
       <use xlink:href="#DejaVuSans-53" transform="translate(640.673828 0)"/>
       <use xlink:href="#DejaVuSans-41" transform="translate(706.025391 0)"/>
      </g>
     </g>
    </g>
    <g id="xtick_6">
     <g id="line2d_6">
      <g>
       <use xlink:href="#m2a0b7cab4c" x="339.685901" y="266.470464" style="stroke: #000000; stroke-width: 0.8"/>
      </g>
     </g>
     <g id="text_6">
      <!-- EU &amp; USA -->
      <g transform="translate(320.069885 304.294654) rotate(-30) scale(0.1 -0.1)">
       <use xlink:href="#DejaVuSans-45"/>
       <use xlink:href="#DejaVuSans-55" transform="translate(63.183594 0)"/>
       <use xlink:href="#DejaVuSans-20" transform="translate(136.376953 0)"/>
       <use xlink:href="#DejaVuSans-26" transform="translate(168.164062 0)"/>
       <use xlink:href="#DejaVuSans-20" transform="translate(246.142578 0)"/>
       <use xlink:href="#DejaVuSans-55" transform="translate(277.929688 0)"/>
       <use xlink:href="#DejaVuSans-53" transform="translate(351.123047 0)"/>
       <use xlink:href="#DejaVuSans-41" transform="translate(416.474609 0)"/>
      </g>
     </g>
    </g>
    <g id="xtick_7">
     <g id="line2d_7">
      <g>
       <use xlink:href="#m2a0b7cab4c" x="390.022099" y="266.470464" style="stroke: #000000; stroke-width: 0.8"/>
      </g>
     </g>
     <g id="text_7">
      <!-- RO -->
      <g transform="translate(384.984403 287.46106) rotate(-30) scale(0.1 -0.1)">
       <use xlink:href="#DejaVuSans-52"/>
       <use xlink:href="#DejaVuSans-4f" transform="translate(69.482422 0)"/>
      </g>
     </g>
    </g>
    <g id="xtick_8">
     <g id="line2d_8">
      <g>
       <use xlink:href="#m2a0b7cab4c" x="440.358298" y="266.470464" style="stroke: #000000; stroke-width: 0.8"/>
      </g>
     </g>
     <g id="text_8">
      <!-- RO &amp; UN &amp; USA -->
      <g transform="translate(407.692361 319.363404) rotate(-30) scale(0.1 -0.1)">
       <use xlink:href="#DejaVuSans-52"/>
       <use xlink:href="#DejaVuSans-4f" transform="translate(69.482422 0)"/>
       <use xlink:href="#DejaVuSans-20" transform="translate(148.193359 0)"/>
       <use xlink:href="#DejaVuSans-26" transform="translate(179.980469 0)"/>
       <use xlink:href="#DejaVuSans-20" transform="translate(257.958984 0)"/>
       <use xlink:href="#DejaVuSans-55" transform="translate(289.746094 0)"/>
       <use xlink:href="#DejaVuSans-4e" transform="translate(362.939453 0)"/>
       <use xlink:href="#DejaVuSans-20" transform="translate(437.744141 0)"/>
       <use xlink:href="#DejaVuSans-26" transform="translate(469.53125 0)"/>
       <use xlink:href="#DejaVuSans-20" transform="translate(547.509766 0)"/>
       <use xlink:href="#DejaVuSans-55" transform="translate(579.296875 0)"/>
       <use xlink:href="#DejaVuSans-53" transform="translate(652.490234 0)"/>
       <use xlink:href="#DejaVuSans-41" transform="translate(717.841797 0)"/>
      </g>
     </g>
    </g>
    <g id="xtick_9">
     <g id="line2d_9">
      <g>
       <use xlink:href="#m2a0b7cab4c" x="490.694496" y="266.470464" style="stroke: #000000; stroke-width: 0.8"/>
      </g>
     </g>
     <g id="text_9">
      <!-- RO &amp; USA -->
      <g transform="translate(470.566307 304.88606) rotate(-30) scale(0.1 -0.1)">
       <use xlink:href="#DejaVuSans-52"/>
       <use xlink:href="#DejaVuSans-4f" transform="translate(69.482422 0)"/>
       <use xlink:href="#DejaVuSans-20" transform="translate(148.193359 0)"/>
       <use xlink:href="#DejaVuSans-26" transform="translate(179.980469 0)"/>
       <use xlink:href="#DejaVuSans-20" transform="translate(257.958984 0)"/>
       <use xlink:href="#DejaVuSans-55" transform="translate(289.746094 0)"/>
       <use xlink:href="#DejaVuSans-53" transform="translate(362.939453 0)"/>
       <use xlink:href="#DejaVuSans-41" transform="translate(428.291016 0)"/>
      </g>
     </g>
    </g>
    <g id="xtick_10">
     <g id="line2d_10">
      <g>
       <use xlink:href="#m2a0b7cab4c" x="541.030694" y="266.470464" style="stroke: #000000; stroke-width: 0.8"/>
      </g>
     </g>
     <g id="text_10">
      <!-- UN -->
      <g transform="translate(536.001794 287.450904) rotate(-30) scale(0.1 -0.1)">
       <use xlink:href="#DejaVuSans-55"/>
       <use xlink:href="#DejaVuSans-4e" transform="translate(73.193359 0)"/>
      </g>
     </g>
    </g>
    <g id="xtick_11">
     <g id="line2d_11">
      <g>
       <use xlink:href="#m2a0b7cab4c" x="591.366893" y="266.470464" style="stroke: #000000; stroke-width: 0.8"/>
      </g>
     </g>
     <g id="text_11">
      <!-- UN &amp; USA -->
      <g transform="translate(571.247499 304.875904) rotate(-30) scale(0.1 -0.1)">
       <use xlink:href="#DejaVuSans-55"/>
       <use xlink:href="#DejaVuSans-4e" transform="translate(73.193359 0)"/>
       <use xlink:href="#DejaVuSans-20" transform="translate(147.998047 0)"/>
       <use xlink:href="#DejaVuSans-26" transform="translate(179.785156 0)"/>
       <use xlink:href="#DejaVuSans-20" transform="translate(257.763672 0)"/>
       <use xlink:href="#DejaVuSans-55" transform="translate(289.550781 0)"/>
       <use xlink:href="#DejaVuSans-53" transform="translate(362.744141 0)"/>
       <use xlink:href="#DejaVuSans-41" transform="translate(428.095703 0)"/>
      </g>
     </g>
    </g>
    <g id="xtick_12">
     <g id="line2d_12">
      <g>
       <use xlink:href="#m2a0b7cab4c" x="641.703091" y="266.470464" style="stroke: #000000; stroke-width: 0.8"/>
      </g>
     </g>
     <g id="text_12">
      <!-- USA -->
      <g transform="translate(634.121445 290.39856) rotate(-30) scale(0.1 -0.1)">
       <use xlink:href="#DejaVuSans-55"/>
       <use xlink:href="#DejaVuSans-53" transform="translate(73.193359 0)"/>
       <use xlink:href="#DejaVuSans-41" transform="translate(138.544922 0)"/>
      </g>
     </g>
    </g>
    <g id="text_13">
     <!-- Multilateralism -->
     <g transform="translate(327.770406 346.658997) scale(0.1 -0.1)">
      <defs>
       <path id="DejaVuSans-4d" d="M 628 4666 
L 1569 4666 
L 2759 1491 
L 3956 4666 
L 4897 4666 
L 4897 0 
L 4281 0 
L 4281 4097 
L 3078 897 
L 2444 897 
L 1241 4097 
L 1241 0 
L 628 0 
L 628 4666 
z
" transform="scale(0.015625)"/>
       <path id="DejaVuSans-75" d="M 544 1381 
L 544 3500 
L 1119 3500 
L 1119 1403 
Q 1119 906 1312 657 
Q 1506 409 1894 409 
Q 2359 409 2629 706 
Q 2900 1003 2900 1516 
L 2900 3500 
L 3475 3500 
L 3475 0 
L 2900 0 
L 2900 538 
Q 2691 219 2414 64 
Q 2138 -91 1772 -91 
Q 1169 -91 856 284 
Q 544 659 544 1381 
z
M 1991 3584 
L 1991 3584 
z
" transform="scale(0.015625)"/>
       <path id="DejaVuSans-6c" d="M 603 4863 
L 1178 4863 
L 1178 0 
L 603 0 
L 603 4863 
z
" transform="scale(0.015625)"/>
       <path id="DejaVuSans-74" d="M 1172 4494 
L 1172 3500 
L 2356 3500 
L 2356 3053 
L 1172 3053 
L 1172 1153 
Q 1172 725 1289 603 
Q 1406 481 1766 481 
L 2356 481 
L 2356 0 
L 1766 0 
Q 1100 0 847 248 
Q 594 497 594 1153 
L 594 3053 
L 172 3053 
L 172 3500 
L 594 3500 
L 594 4494 
L 1172 4494 
z
" transform="scale(0.015625)"/>
       <path id="DejaVuSans-69" d="M 603 3500 
L 1178 3500 
L 1178 0 
L 603 0 
L 603 3500 
z
M 603 4863 
L 1178 4863 
L 1178 4134 
L 603 4134 
L 603 4863 
z
" transform="scale(0.015625)"/>
       <path id="DejaVuSans-61" d="M 2194 1759 
Q 1497 1759 1228 1600 
Q 959 1441 959 1056 
Q 959 750 1161 570 
Q 1363 391 1709 391 
Q 2188 391 2477 730 
Q 2766 1069 2766 1631 
L 2766 1759 
L 2194 1759 
z
M 3341 1997 
L 3341 0 
L 2766 0 
L 2766 531 
Q 2569 213 2275 61 
Q 1981 -91 1556 -91 
Q 1019 -91 701 211 
Q 384 513 384 1019 
Q 384 1609 779 1909 
Q 1175 2209 1959 2209 
L 2766 2209 
L 2766 2266 
Q 2766 2663 2505 2880 
Q 2244 3097 1772 3097 
Q 1472 3097 1187 3025 
Q 903 2953 641 2809 
L 641 3341 
Q 956 3463 1253 3523 
Q 1550 3584 1831 3584 
Q 2591 3584 2966 3190 
Q 3341 2797 3341 1997 
z
" transform="scale(0.015625)"/>
       <path id="DejaVuSans-65" d="M 3597 1894 
L 3597 1613 
L 953 1613 
Q 991 1019 1311 708 
Q 1631 397 2203 397 
Q 2534 397 2845 478 
Q 3156 559 3463 722 
L 3463 178 
Q 3153 47 2828 -22 
Q 2503 -91 2169 -91 
Q 1331 -91 842 396 
Q 353 884 353 1716 
Q 353 2575 817 3079 
Q 1281 3584 2069 3584 
Q 2775 3584 3186 3129 
Q 3597 2675 3597 1894 
z
M 3022 2063 
Q 3016 2534 2758 2815 
Q 2500 3097 2075 3097 
Q 1594 3097 1305 2825 
Q 1016 2553 972 2059 
L 3022 2063 
z
" transform="scale(0.015625)"/>
       <path id="DejaVuSans-72" d="M 2631 2963 
Q 2534 3019 2420 3045 
Q 2306 3072 2169 3072 
Q 1681 3072 1420 2755 
Q 1159 2438 1159 1844 
L 1159 0 
L 581 0 
L 581 3500 
L 1159 3500 
L 1159 2956 
Q 1341 3275 1631 3429 
Q 1922 3584 2338 3584 
Q 2397 3584 2469 3576 
Q 2541 3569 2628 3553 
L 2631 2963 
z
" transform="scale(0.015625)"/>
       <path id="DejaVuSans-73" d="M 2834 3397 
L 2834 2853 
Q 2591 2978 2328 3040 
Q 2066 3103 1784 3103 
Q 1356 3103 1142 2972 
Q 928 2841 928 2578 
Q 928 2378 1081 2264 
Q 1234 2150 1697 2047 
L 1894 2003 
Q 2506 1872 2764 1633 
Q 3022 1394 3022 966 
Q 3022 478 2636 193 
Q 2250 -91 1575 -91 
Q 1294 -91 989 -36 
Q 684 19 347 128 
L 347 722 
Q 666 556 975 473 
Q 1284 391 1588 391 
Q 1994 391 2212 530 
Q 2431 669 2431 922 
Q 2431 1156 2273 1281 
Q 2116 1406 1581 1522 
L 1381 1569 
Q 847 1681 609 1914 
Q 372 2147 372 2553 
Q 372 3047 722 3315 
Q 1072 3584 1716 3584 
Q 2034 3584 2315 3537 
Q 2597 3491 2834 3397 
z
" transform="scale(0.015625)"/>
       <path id="DejaVuSans-6d" d="M 3328 2828 
Q 3544 3216 3844 3400 
Q 4144 3584 4550 3584 
Q 5097 3584 5394 3201 
Q 5691 2819 5691 2113 
L 5691 0 
L 5113 0 
L 5113 2094 
Q 5113 2597 4934 2840 
Q 4756 3084 4391 3084 
Q 3944 3084 3684 2787 
Q 3425 2491 3425 1978 
L 3425 0 
L 2847 0 
L 2847 2094 
Q 2847 2600 2669 2842 
Q 2491 3084 2119 3084 
Q 1678 3084 1418 2786 
Q 1159 2488 1159 1978 
L 1159 0 
L 581 0 
L 581 3500 
L 1159 3500 
L 1159 2956 
Q 1356 3278 1631 3431 
Q 1906 3584 2284 3584 
Q 2666 3584 2933 3390 
Q 3200 3197 3328 2828 
z
" transform="scale(0.015625)"/>
      </defs>
      <use xlink:href="#DejaVuSans-4d"/>
      <use xlink:href="#DejaVuSans-75" transform="translate(86.279297 0)"/>
      <use xlink:href="#DejaVuSans-6c" transform="translate(149.658203 0)"/>
      <use xlink:href="#DejaVuSans-74" transform="translate(177.441406 0)"/>
      <use xlink:href="#DejaVuSans-69" transform="translate(216.650391 0)"/>
      <use xlink:href="#DejaVuSans-6c" transform="translate(244.433594 0)"/>
      <use xlink:href="#DejaVuSans-61" transform="translate(272.216797 0)"/>
      <use xlink:href="#DejaVuSans-74" transform="translate(333.496094 0)"/>
      <use xlink:href="#DejaVuSans-65" transform="translate(372.705078 0)"/>
      <use xlink:href="#DejaVuSans-72" transform="translate(434.228516 0)"/>
      <use xlink:href="#DejaVuSans-61" transform="translate(475.341797 0)"/>
      <use xlink:href="#DejaVuSans-6c" transform="translate(536.621094 0)"/>
      <use xlink:href="#DejaVuSans-69" transform="translate(564.404297 0)"/>
      <use xlink:href="#DejaVuSans-73" transform="translate(592.1875 0)"/>
      <use xlink:href="#DejaVuSans-6d" transform="translate(644.287109 0)"/>
     </g>
    </g>
   </g>
   <g id="matplotlib.axis_2">
    <g id="ytick_1">
     <g id="line2d_13">
      <path d="M 60.32 266.470464 
L 669.388 266.470464 
" clip-path="url(#pa980cf1bf5)" style="fill: none; stroke-dasharray: 2.96,1.28; stroke-dashoffset: 0; stroke: #b0b0b0; stroke-opacity: 0.5; stroke-width: 0.8"/>
     </g>
     <g id="line2d_14">
      <defs>
       <path id="mf00e92b3e0" d="M 0 0 
L -3.5 0 
" style="stroke: #000000; stroke-width: 0.8"/>
      </defs>
      <g>
       <use xlink:href="#mf00e92b3e0" x="60.32" y="266.470464" style="stroke: #000000; stroke-width: 0.8"/>
      </g>
     </g>
     <g id="text_14">
      <!-- 0% -->
      <g transform="translate(37.455938 270.269683) scale(0.1 -0.1)">
       <defs>
        <path id="DejaVuSans-30" d="M 2034 4250 
Q 1547 4250 1301 3770 
Q 1056 3291 1056 2328 
Q 1056 1369 1301 889 
Q 1547 409 2034 409 
Q 2525 409 2770 889 
Q 3016 1369 3016 2328 
Q 3016 3291 2770 3770 
Q 2525 4250 2034 4250 
z
M 2034 4750 
Q 2819 4750 3233 4129 
Q 3647 3509 3647 2328 
Q 3647 1150 3233 529 
Q 2819 -91 2034 -91 
Q 1250 -91 836 529 
Q 422 1150 422 2328 
Q 422 3509 836 4129 
Q 1250 4750 2034 4750 
z
" transform="scale(0.015625)"/>
        <path id="DejaVuSans-25" d="M 4653 2053 
Q 4381 2053 4226 1822 
Q 4072 1591 4072 1178 
Q 4072 772 4226 539 
Q 4381 306 4653 306 
Q 4919 306 5073 539 
Q 5228 772 5228 1178 
Q 5228 1588 5073 1820 
Q 4919 2053 4653 2053 
z
M 4653 2450 
Q 5147 2450 5437 2106 
Q 5728 1763 5728 1178 
Q 5728 594 5436 251 
Q 5144 -91 4653 -91 
Q 4153 -91 3862 251 
Q 3572 594 3572 1178 
Q 3572 1766 3864 2108 
Q 4156 2450 4653 2450 
z
M 1428 4353 
Q 1159 4353 1004 4120 
Q 850 3888 850 3481 
Q 850 3069 1003 2837 
Q 1156 2606 1428 2606 
Q 1700 2606 1854 2837 
Q 2009 3069 2009 3481 
Q 2009 3884 1853 4118 
Q 1697 4353 1428 4353 
z
M 4250 4750 
L 4750 4750 
L 1831 -91 
L 1331 -91 
L 4250 4750 
z
M 1428 4750 
Q 1922 4750 2215 4408 
Q 2509 4066 2509 3481 
Q 2509 2891 2217 2550 
Q 1925 2209 1428 2209 
Q 931 2209 642 2551 
Q 353 2894 353 3481 
Q 353 4063 643 4406 
Q 934 4750 1428 4750 
z
" transform="scale(0.015625)"/>
       </defs>
       <use xlink:href="#DejaVuSans-30"/>
       <use xlink:href="#DejaVuSans-25" transform="translate(63.623047 0)"/>
      </g>
     </g>
    </g>
    <g id="ytick_2">
     <g id="line2d_15">
      <path d="M 60.32 220.352371 
L 669.388 220.352371 
" clip-path="url(#pa980cf1bf5)" style="fill: none; stroke-dasharray: 2.96,1.28; stroke-dashoffset: 0; stroke: #b0b0b0; stroke-opacity: 0.5; stroke-width: 0.8"/>
     </g>
     <g id="line2d_16">
      <g>
       <use xlink:href="#mf00e92b3e0" x="60.32" y="220.352371" style="stroke: #000000; stroke-width: 0.8"/>
      </g>
     </g>
     <g id="text_15">
      <!-- 20% -->
      <g transform="translate(31.093438 224.15159) scale(0.1 -0.1)">
       <defs>
        <path id="DejaVuSans-32" d="M 1228 531 
L 3431 531 
L 3431 0 
L 469 0 
L 469 531 
Q 828 903 1448 1529 
Q 2069 2156 2228 2338 
Q 2531 2678 2651 2914 
Q 2772 3150 2772 3378 
Q 2772 3750 2511 3984 
Q 2250 4219 1831 4219 
Q 1534 4219 1204 4116 
Q 875 4013 500 3803 
L 500 4441 
Q 881 4594 1212 4672 
Q 1544 4750 1819 4750 
Q 2544 4750 2975 4387 
Q 3406 4025 3406 3419 
Q 3406 3131 3298 2873 
Q 3191 2616 2906 2266 
Q 2828 2175 2409 1742 
Q 1991 1309 1228 531 
z
" transform="scale(0.015625)"/>
       </defs>
       <use xlink:href="#DejaVuSans-32"/>
       <use xlink:href="#DejaVuSans-30" transform="translate(63.623047 0)"/>
       <use xlink:href="#DejaVuSans-25" transform="translate(127.246094 0)"/>
      </g>
     </g>
    </g>
    <g id="ytick_3">
     <g id="line2d_17">
      <path d="M 60.32 174.234278 
L 669.388 174.234278 
" clip-path="url(#pa980cf1bf5)" style="fill: none; stroke-dasharray: 2.96,1.28; stroke-dashoffset: 0; stroke: #b0b0b0; stroke-opacity: 0.5; stroke-width: 0.8"/>
     </g>
     <g id="line2d_18">
      <g>
       <use xlink:href="#mf00e92b3e0" x="60.32" y="174.234278" style="stroke: #000000; stroke-width: 0.8"/>
      </g>
     </g>
     <g id="text_16">
      <!-- 40% -->
      <g transform="translate(31.093438 178.033497) scale(0.1 -0.1)">
       <defs>
        <path id="DejaVuSans-34" d="M 2419 4116 
L 825 1625 
L 2419 1625 
L 2419 4116 
z
M 2253 4666 
L 3047 4666 
L 3047 1625 
L 3713 1625 
L 3713 1100 
L 3047 1100 
L 3047 0 
L 2419 0 
L 2419 1100 
L 313 1100 
L 313 1709 
L 2253 4666 
z
" transform="scale(0.015625)"/>
       </defs>
       <use xlink:href="#DejaVuSans-34"/>
       <use xlink:href="#DejaVuSans-30" transform="translate(63.623047 0)"/>
       <use xlink:href="#DejaVuSans-25" transform="translate(127.246094 0)"/>
      </g>
     </g>
    </g>
    <g id="ytick_4">
     <g id="line2d_19">
      <path d="M 60.32 128.116186 
L 669.388 128.116186 
" clip-path="url(#pa980cf1bf5)" style="fill: none; stroke-dasharray: 2.96,1.28; stroke-dashoffset: 0; stroke: #b0b0b0; stroke-opacity: 0.5; stroke-width: 0.8"/>
     </g>
     <g id="line2d_20">
      <g>
       <use xlink:href="#mf00e92b3e0" x="60.32" y="128.116186" style="stroke: #000000; stroke-width: 0.8"/>
      </g>
     </g>
     <g id="text_17">
      <!-- 60% -->
      <g transform="translate(31.093438 131.915404) scale(0.1 -0.1)">
       <defs>
        <path id="DejaVuSans-36" d="M 2113 2584 
Q 1688 2584 1439 2293 
Q 1191 2003 1191 1497 
Q 1191 994 1439 701 
Q 1688 409 2113 409 
Q 2538 409 2786 701 
Q 3034 994 3034 1497 
Q 3034 2003 2786 2293 
Q 2538 2584 2113 2584 
z
M 3366 4563 
L 3366 3988 
Q 3128 4100 2886 4159 
Q 2644 4219 2406 4219 
Q 1781 4219 1451 3797 
Q 1122 3375 1075 2522 
Q 1259 2794 1537 2939 
Q 1816 3084 2150 3084 
Q 2853 3084 3261 2657 
Q 3669 2231 3669 1497 
Q 3669 778 3244 343 
Q 2819 -91 2113 -91 
Q 1303 -91 875 529 
Q 447 1150 447 2328 
Q 447 3434 972 4092 
Q 1497 4750 2381 4750 
Q 2619 4750 2861 4703 
Q 3103 4656 3366 4563 
z
" transform="scale(0.015625)"/>
       </defs>
       <use xlink:href="#DejaVuSans-36"/>
       <use xlink:href="#DejaVuSans-30" transform="translate(63.623047 0)"/>
       <use xlink:href="#DejaVuSans-25" transform="translate(127.246094 0)"/>
      </g>
     </g>
    </g>
    <g id="ytick_5">
     <g id="line2d_21">
      <path d="M 60.32 81.998093 
L 669.388 81.998093 
" clip-path="url(#pa980cf1bf5)" style="fill: none; stroke-dasharray: 2.96,1.28; stroke-dashoffset: 0; stroke: #b0b0b0; stroke-opacity: 0.5; stroke-width: 0.8"/>
     </g>
     <g id="line2d_22">
      <g>
       <use xlink:href="#mf00e92b3e0" x="60.32" y="81.998093" style="stroke: #000000; stroke-width: 0.8"/>
      </g>
     </g>
     <g id="text_18">
      <!-- 80% -->
      <g transform="translate(31.093438 85.797312) scale(0.1 -0.1)">
       <defs>
        <path id="DejaVuSans-38" d="M 2034 2216 
Q 1584 2216 1326 1975 
Q 1069 1734 1069 1313 
Q 1069 891 1326 650 
Q 1584 409 2034 409 
Q 2484 409 2743 651 
Q 3003 894 3003 1313 
Q 3003 1734 2745 1975 
Q 2488 2216 2034 2216 
z
M 1403 2484 
Q 997 2584 770 2862 
Q 544 3141 544 3541 
Q 544 4100 942 4425 
Q 1341 4750 2034 4750 
Q 2731 4750 3128 4425 
Q 3525 4100 3525 3541 
Q 3525 3141 3298 2862 
Q 3072 2584 2669 2484 
Q 3125 2378 3379 2068 
Q 3634 1759 3634 1313 
Q 3634 634 3220 271 
Q 2806 -91 2034 -91 
Q 1263 -91 848 271 
Q 434 634 434 1313 
Q 434 1759 690 2068 
Q 947 2378 1403 2484 
z
M 1172 3481 
Q 1172 3119 1398 2916 
Q 1625 2713 2034 2713 
Q 2441 2713 2670 2916 
Q 2900 3119 2900 3481 
Q 2900 3844 2670 4047 
Q 2441 4250 2034 4250 
Q 1625 4250 1398 4047 
Q 1172 3844 1172 3481 
z
" transform="scale(0.015625)"/>
       </defs>
       <use xlink:href="#DejaVuSans-38"/>
       <use xlink:href="#DejaVuSans-30" transform="translate(63.623047 0)"/>
       <use xlink:href="#DejaVuSans-25" transform="translate(127.246094 0)"/>
      </g>
     </g>
    </g>
    <g id="ytick_6">
     <g id="line2d_23">
      <path d="M 60.32 35.88 
L 669.388 35.88 
" clip-path="url(#pa980cf1bf5)" style="fill: none; stroke-dasharray: 2.96,1.28; stroke-dashoffset: 0; stroke: #b0b0b0; stroke-opacity: 0.5; stroke-width: 0.8"/>
     </g>
     <g id="line2d_24">
      <g>
       <use xlink:href="#mf00e92b3e0" x="60.32" y="35.88" style="stroke: #000000; stroke-width: 0.8"/>
      </g>
     </g>
     <g id="text_19">
      <!-- 100% -->
      <g transform="translate(24.730938 39.679219) scale(0.1 -0.1)">
       <defs>
        <path id="DejaVuSans-31" d="M 794 531 
L 1825 531 
L 1825 4091 
L 703 3866 
L 703 4441 
L 1819 4666 
L 2450 4666 
L 2450 531 
L 3481 531 
L 3481 0 
L 794 0 
L 794 531 
z
" transform="scale(0.015625)"/>
       </defs>
       <use xlink:href="#DejaVuSans-31"/>
       <use xlink:href="#DejaVuSans-30" transform="translate(63.623047 0)"/>
       <use xlink:href="#DejaVuSans-30" transform="translate(127.246094 0)"/>
       <use xlink:href="#DejaVuSans-25" transform="translate(190.869141 0)"/>
      </g>
     </g>
    </g>
    <g id="text_20">
     <!-- Regime Cases -->
     <g transform="translate(18.65125 186.441638) rotate(-90) scale(0.1 -0.1)">
      <defs>
       <path id="DejaVuSans-67" d="M 2906 1791 
Q 2906 2416 2648 2759 
Q 2391 3103 1925 3103 
Q 1463 3103 1205 2759 
Q 947 2416 947 1791 
Q 947 1169 1205 825 
Q 1463 481 1925 481 
Q 2391 481 2648 825 
Q 2906 1169 2906 1791 
z
M 3481 434 
Q 3481 -459 3084 -895 
Q 2688 -1331 1869 -1331 
Q 1566 -1331 1297 -1286 
Q 1028 -1241 775 -1147 
L 775 -588 
Q 1028 -725 1275 -790 
Q 1522 -856 1778 -856 
Q 2344 -856 2625 -561 
Q 2906 -266 2906 331 
L 2906 616 
Q 2728 306 2450 153 
Q 2172 0 1784 0 
Q 1141 0 747 490 
Q 353 981 353 1791 
Q 353 2603 747 3093 
Q 1141 3584 1784 3584 
Q 2172 3584 2450 3431 
Q 2728 3278 2906 2969 
L 2906 3500 
L 3481 3500 
L 3481 434 
z
" transform="scale(0.015625)"/>
       <path id="DejaVuSans-43" d="M 4122 4306 
L 4122 3641 
Q 3803 3938 3442 4084 
Q 3081 4231 2675 4231 
Q 1875 4231 1450 3742 
Q 1025 3253 1025 2328 
Q 1025 1406 1450 917 
Q 1875 428 2675 428 
Q 3081 428 3442 575 
Q 3803 722 4122 1019 
L 4122 359 
Q 3791 134 3420 21 
Q 3050 -91 2638 -91 
Q 1578 -91 968 557 
Q 359 1206 359 2328 
Q 359 3453 968 4101 
Q 1578 4750 2638 4750 
Q 3056 4750 3426 4639 
Q 3797 4528 4122 4306 
z
" transform="scale(0.015625)"/>
      </defs>
      <use xlink:href="#DejaVuSans-52"/>
      <use xlink:href="#DejaVuSans-65" transform="translate(64.982422 0)"/>
      <use xlink:href="#DejaVuSans-67" transform="translate(126.505859 0)"/>
      <use xlink:href="#DejaVuSans-69" transform="translate(189.982422 0)"/>
      <use xlink:href="#DejaVuSans-6d" transform="translate(217.765625 0)"/>
      <use xlink:href="#DejaVuSans-65" transform="translate(315.177734 0)"/>
      <use xlink:href="#DejaVuSans-20" transform="translate(376.701172 0)"/>
      <use xlink:href="#DejaVuSans-43" transform="translate(408.488281 0)"/>
      <use xlink:href="#DejaVuSans-61" transform="translate(478.3125 0)"/>
      <use xlink:href="#DejaVuSans-73" transform="translate(539.591797 0)"/>
      <use xlink:href="#DejaVuSans-65" transform="translate(591.691406 0)"/>
      <use xlink:href="#DejaVuSans-73" transform="translate(653.214844 0)"/>
     </g>
    </g>
   </g>
   <g id="patch_111">
    <path d="M 60.32 266.470464 
L 60.32 35.88 
" style="fill: none; stroke: #000000; stroke-width: 0.8; stroke-linejoin: miter; stroke-linecap: square"/>
   </g>
   <g id="patch_112">
    <path d="M 669.388 266.470464 
L 669.388 35.88 
" style="fill: none; stroke: #000000; stroke-width: 0.8; stroke-linejoin: miter; stroke-linecap: square"/>
   </g>
   <g id="patch_113">
    <path d="M 60.32 266.470464 
L 669.388 266.470464 
" style="fill: none; stroke: #000000; stroke-width: 0.8; stroke-linejoin: miter; stroke-linecap: square"/>
   </g>
   <g id="patch_114">
    <path d="M 60.32 35.88 
L 669.388 35.88 
" style="fill: none; stroke: #000000; stroke-width: 0.8; stroke-linejoin: miter; stroke-linecap: square"/>
   </g>
   <g id="text_21">
    <!-- Outcome by Multilateralism (relative frequencies) -->
    <g transform="translate(203.211188 20.88) scale(0.13 -0.13)">
     <defs>
      <path id="DejaVuSans-63" d="M 3122 3366 
L 3122 2828 
Q 2878 2963 2633 3030 
Q 2388 3097 2138 3097 
Q 1578 3097 1268 2742 
Q 959 2388 959 1747 
Q 959 1106 1268 751 
Q 1578 397 2138 397 
Q 2388 397 2633 464 
Q 2878 531 3122 666 
L 3122 134 
Q 2881 22 2623 -34 
Q 2366 -91 2075 -91 
Q 1284 -91 818 406 
Q 353 903 353 1747 
Q 353 2603 823 3093 
Q 1294 3584 2113 3584 
Q 2378 3584 2631 3529 
Q 2884 3475 3122 3366 
z
" transform="scale(0.015625)"/>
      <path id="DejaVuSans-6f" d="M 1959 3097 
Q 1497 3097 1228 2736 
Q 959 2375 959 1747 
Q 959 1119 1226 758 
Q 1494 397 1959 397 
Q 2419 397 2687 759 
Q 2956 1122 2956 1747 
Q 2956 2369 2687 2733 
Q 2419 3097 1959 3097 
z
M 1959 3584 
Q 2709 3584 3137 3096 
Q 3566 2609 3566 1747 
Q 3566 888 3137 398 
Q 2709 -91 1959 -91 
Q 1206 -91 779 398 
Q 353 888 353 1747 
Q 353 2609 779 3096 
Q 1206 3584 1959 3584 
z
" transform="scale(0.015625)"/>
      <path id="DejaVuSans-62" d="M 3116 1747 
Q 3116 2381 2855 2742 
Q 2594 3103 2138 3103 
Q 1681 3103 1420 2742 
Q 1159 2381 1159 1747 
Q 1159 1113 1420 752 
Q 1681 391 2138 391 
Q 2594 391 2855 752 
Q 3116 1113 3116 1747 
z
M 1159 2969 
Q 1341 3281 1617 3432 
Q 1894 3584 2278 3584 
Q 2916 3584 3314 3078 
Q 3713 2572 3713 1747 
Q 3713 922 3314 415 
Q 2916 -91 2278 -91 
Q 1894 -91 1617 61 
Q 1341 213 1159 525 
L 1159 0 
L 581 0 
L 581 4863 
L 1159 4863 
L 1159 2969 
z
" transform="scale(0.015625)"/>
      <path id="DejaVuSans-79" d="M 2059 -325 
Q 1816 -950 1584 -1140 
Q 1353 -1331 966 -1331 
L 506 -1331 
L 506 -850 
L 844 -850 
Q 1081 -850 1212 -737 
Q 1344 -625 1503 -206 
L 1606 56 
L 191 3500 
L 800 3500 
L 1894 763 
L 2988 3500 
L 3597 3500 
L 2059 -325 
z
" transform="scale(0.015625)"/>
      <path id="DejaVuSans-28" d="M 1984 4856 
Q 1566 4138 1362 3434 
Q 1159 2731 1159 2009 
Q 1159 1288 1364 580 
Q 1569 -128 1984 -844 
L 1484 -844 
Q 1016 -109 783 600 
Q 550 1309 550 2009 
Q 550 2706 781 3412 
Q 1013 4119 1484 4856 
L 1984 4856 
z
" transform="scale(0.015625)"/>
      <path id="DejaVuSans-76" d="M 191 3500 
L 800 3500 
L 1894 563 
L 2988 3500 
L 3597 3500 
L 2284 0 
L 1503 0 
L 191 3500 
z
" transform="scale(0.015625)"/>
      <path id="DejaVuSans-66" d="M 2375 4863 
L 2375 4384 
L 1825 4384 
Q 1516 4384 1395 4259 
Q 1275 4134 1275 3809 
L 1275 3500 
L 2222 3500 
L 2222 3053 
L 1275 3053 
L 1275 0 
L 697 0 
L 697 3053 
L 147 3053 
L 147 3500 
L 697 3500 
L 697 3744 
Q 697 4328 969 4595 
Q 1241 4863 1831 4863 
L 2375 4863 
z
" transform="scale(0.015625)"/>
      <path id="DejaVuSans-71" d="M 947 1747 
Q 947 1113 1208 752 
Q 1469 391 1925 391 
Q 2381 391 2643 752 
Q 2906 1113 2906 1747 
Q 2906 2381 2643 2742 
Q 2381 3103 1925 3103 
Q 1469 3103 1208 2742 
Q 947 2381 947 1747 
z
M 2906 525 
Q 2725 213 2448 61 
Q 2172 -91 1784 -91 
Q 1150 -91 751 415 
Q 353 922 353 1747 
Q 353 2572 751 3078 
Q 1150 3584 1784 3584 
Q 2172 3584 2448 3432 
Q 2725 3281 2906 2969 
L 2906 3500 
L 3481 3500 
L 3481 -1331 
L 2906 -1331 
L 2906 525 
z
" transform="scale(0.015625)"/>
      <path id="DejaVuSans-6e" d="M 3513 2113 
L 3513 0 
L 2938 0 
L 2938 2094 
Q 2938 2591 2744 2837 
Q 2550 3084 2163 3084 
Q 1697 3084 1428 2787 
Q 1159 2491 1159 1978 
L 1159 0 
L 581 0 
L 581 3500 
L 1159 3500 
L 1159 2956 
Q 1366 3272 1645 3428 
Q 1925 3584 2291 3584 
Q 2894 3584 3203 3211 
Q 3513 2838 3513 2113 
z
" transform="scale(0.015625)"/>
      <path id="DejaVuSans-29" d="M 513 4856 
L 1013 4856 
Q 1481 4119 1714 3412 
Q 1947 2706 1947 2009 
Q 1947 1309 1714 600 
Q 1481 -109 1013 -844 
L 513 -844 
Q 928 -128 1133 580 
Q 1338 1288 1338 2009 
Q 1338 2731 1133 3434 
Q 928 4138 513 4856 
z
" transform="scale(0.015625)"/>
     </defs>
     <use xlink:href="#DejaVuSans-4f"/>
     <use xlink:href="#DejaVuSans-75" transform="translate(78.710938 0)"/>
     <use xlink:href="#DejaVuSans-74" transform="translate(142.089844 0)"/>
     <use xlink:href="#DejaVuSans-63" transform="translate(181.298828 0)"/>
     <use xlink:href="#DejaVuSans-6f" transform="translate(236.279297 0)"/>
     <use xlink:href="#DejaVuSans-6d" transform="translate(297.460938 0)"/>
     <use xlink:href="#DejaVuSans-65" transform="translate(394.873047 0)"/>
     <use xlink:href="#DejaVuSans-20" transform="translate(456.396484 0)"/>
     <use xlink:href="#DejaVuSans-62" transform="translate(488.183594 0)"/>
     <use xlink:href="#DejaVuSans-79" transform="translate(551.660156 0)"/>
     <use xlink:href="#DejaVuSans-20" transform="translate(610.839844 0)"/>
     <use xlink:href="#DejaVuSans-4d" transform="translate(642.626953 0)"/>
     <use xlink:href="#DejaVuSans-75" transform="translate(728.90625 0)"/>
     <use xlink:href="#DejaVuSans-6c" transform="translate(792.285156 0)"/>
     <use xlink:href="#DejaVuSans-74" transform="translate(820.068359 0)"/>
     <use xlink:href="#DejaVuSans-69" transform="translate(859.277344 0)"/>
     <use xlink:href="#DejaVuSans-6c" transform="translate(887.060547 0)"/>
     <use xlink:href="#DejaVuSans-61" transform="translate(914.84375 0)"/>
     <use xlink:href="#DejaVuSans-74" transform="translate(976.123047 0)"/>
     <use xlink:href="#DejaVuSans-65" transform="translate(1015.332031 0)"/>
     <use xlink:href="#DejaVuSans-72" transform="translate(1076.855469 0)"/>
     <use xlink:href="#DejaVuSans-61" transform="translate(1117.96875 0)"/>
     <use xlink:href="#DejaVuSans-6c" transform="translate(1179.248047 0)"/>
     <use xlink:href="#DejaVuSans-69" transform="translate(1207.03125 0)"/>
     <use xlink:href="#DejaVuSans-73" transform="translate(1234.814453 0)"/>
     <use xlink:href="#DejaVuSans-6d" transform="translate(1286.914062 0)"/>
     <use xlink:href="#DejaVuSans-20" transform="translate(1384.326172 0)"/>
     <use xlink:href="#DejaVuSans-28" transform="translate(1416.113281 0)"/>
     <use xlink:href="#DejaVuSans-72" transform="translate(1455.126953 0)"/>
     <use xlink:href="#DejaVuSans-65" transform="translate(1493.990234 0)"/>
     <use xlink:href="#DejaVuSans-6c" transform="translate(1555.513672 0)"/>
     <use xlink:href="#DejaVuSans-61" transform="translate(1583.296875 0)"/>
     <use xlink:href="#DejaVuSans-74" transform="translate(1644.576172 0)"/>
     <use xlink:href="#DejaVuSans-69" transform="translate(1683.785156 0)"/>
     <use xlink:href="#DejaVuSans-76" transform="translate(1711.568359 0)"/>
     <use xlink:href="#DejaVuSans-65" transform="translate(1770.748047 0)"/>
     <use xlink:href="#DejaVuSans-20" transform="translate(1832.271484 0)"/>
     <use xlink:href="#DejaVuSans-66" transform="translate(1864.058594 0)"/>
     <use xlink:href="#DejaVuSans-72" transform="translate(1899.263672 0)"/>
     <use xlink:href="#DejaVuSans-65" transform="translate(1938.126953 0)"/>
     <use xlink:href="#DejaVuSans-71" transform="translate(1999.650391 0)"/>
     <use xlink:href="#DejaVuSans-75" transform="translate(2063.126953 0)"/>
     <use xlink:href="#DejaVuSans-65" transform="translate(2126.505859 0)"/>
     <use xlink:href="#DejaVuSans-6e" transform="translate(2188.029297 0)"/>
     <use xlink:href="#DejaVuSans-63" transform="translate(2251.408203 0)"/>
     <use xlink:href="#DejaVuSans-69" transform="translate(2306.388672 0)"/>
     <use xlink:href="#DejaVuSans-65" transform="translate(2334.171875 0)"/>
     <use xlink:href="#DejaVuSans-73" transform="translate(2395.695312 0)"/>
     <use xlink:href="#DejaVuSans-29" transform="translate(2447.794922 0)"/>
    </g>
   </g>
   <g id="legend_1">
    <g id="patch_115">
     <path d="M 682.47868 190.66125 
L 993.552118 190.66125 
Q 995.552118 190.66125 995.552118 188.66125 
L 995.552118 42.88 
Q 995.552118 40.88 993.552118 40.88 
L 682.47868 40.88 
Q 680.47868 40.88 680.47868 42.88 
L 680.47868 188.66125 
Q 680.47868 190.66125 682.47868 190.66125 
z
" style="fill: #ffffff; opacity: 0.8; stroke: #cccccc; stroke-linejoin: miter"/>
    </g>
    <g id="text_22">
     <!-- Outcome -->
     <g transform="translate(815.195086 52.478437) scale(0.1 -0.1)">
      <use xlink:href="#DejaVuSans-4f"/>
      <use xlink:href="#DejaVuSans-75" transform="translate(78.710938 0)"/>
      <use xlink:href="#DejaVuSans-74" transform="translate(142.089844 0)"/>
      <use xlink:href="#DejaVuSans-63" transform="translate(181.298828 0)"/>
      <use xlink:href="#DejaVuSans-6f" transform="translate(236.279297 0)"/>
      <use xlink:href="#DejaVuSans-6d" transform="translate(297.460938 0)"/>
      <use xlink:href="#DejaVuSans-65" transform="translate(394.873047 0)"/>
     </g>
    </g>
    <g id="patch_116">
     <path d="M 684.47868 67.156563 
L 704.47868 67.156563 
L 704.47868 60.156563 
L 684.47868 60.156563 
z
" style="fill: #1f77b4"/>
    </g>
    <g id="text_23">
     <!-- Missing -->
     <g transform="translate(712.47868 67.156563) scale(0.1 -0.1)">
      <use xlink:href="#DejaVuSans-4d"/>
      <use xlink:href="#DejaVuSans-69" transform="translate(86.279297 0)"/>
      <use xlink:href="#DejaVuSans-73" transform="translate(114.0625 0)"/>
      <use xlink:href="#DejaVuSans-73" transform="translate(166.162109 0)"/>
      <use xlink:href="#DejaVuSans-69" transform="translate(218.261719 0)"/>
      <use xlink:href="#DejaVuSans-6e" transform="translate(246.044922 0)"/>
      <use xlink:href="#DejaVuSans-67" transform="translate(309.423828 0)"/>
     </g>
    </g>
    <g id="patch_117">
     <path d="M 684.47868 81.834688 
L 704.47868 81.834688 
L 704.47868 74.834688 
L 684.47868 74.834688 
z
" style="fill: #ff7f0e"/>
    </g>
    <g id="text_24">
     <!-- Negotiated settlement -->
     <g transform="translate(712.47868 81.834688) scale(0.1 -0.1)">
      <defs>
       <path id="DejaVuSans-64" d="M 2906 2969 
L 2906 4863 
L 3481 4863 
L 3481 0 
L 2906 0 
L 2906 525 
Q 2725 213 2448 61 
Q 2172 -91 1784 -91 
Q 1150 -91 751 415 
Q 353 922 353 1747 
Q 353 2572 751 3078 
Q 1150 3584 1784 3584 
Q 2172 3584 2448 3432 
Q 2725 3281 2906 2969 
z
M 947 1747 
Q 947 1113 1208 752 
Q 1469 391 1925 391 
Q 2381 391 2643 752 
Q 2906 1113 2906 1747 
Q 2906 2381 2643 2742 
Q 2381 3103 1925 3103 
Q 1469 3103 1208 2742 
Q 947 2381 947 1747 
z
" transform="scale(0.015625)"/>
      </defs>
      <use xlink:href="#DejaVuSans-4e"/>
      <use xlink:href="#DejaVuSans-65" transform="translate(74.804688 0)"/>
      <use xlink:href="#DejaVuSans-67" transform="translate(136.328125 0)"/>
      <use xlink:href="#DejaVuSans-6f" transform="translate(199.804688 0)"/>
      <use xlink:href="#DejaVuSans-74" transform="translate(260.986328 0)"/>
      <use xlink:href="#DejaVuSans-69" transform="translate(300.195312 0)"/>
      <use xlink:href="#DejaVuSans-61" transform="translate(327.978516 0)"/>
      <use xlink:href="#DejaVuSans-74" transform="translate(389.257812 0)"/>
      <use xlink:href="#DejaVuSans-65" transform="translate(428.466797 0)"/>
      <use xlink:href="#DejaVuSans-64" transform="translate(489.990234 0)"/>
      <use xlink:href="#DejaVuSans-20" transform="translate(553.466797 0)"/>
      <use xlink:href="#DejaVuSans-73" transform="translate(585.253906 0)"/>
      <use xlink:href="#DejaVuSans-65" transform="translate(637.353516 0)"/>
      <use xlink:href="#DejaVuSans-74" transform="translate(698.876953 0)"/>
      <use xlink:href="#DejaVuSans-74" transform="translate(738.085938 0)"/>
      <use xlink:href="#DejaVuSans-6c" transform="translate(777.294922 0)"/>
      <use xlink:href="#DejaVuSans-65" transform="translate(805.078125 0)"/>
      <use xlink:href="#DejaVuSans-6d" transform="translate(866.601562 0)"/>
      <use xlink:href="#DejaVuSans-65" transform="translate(964.013672 0)"/>
      <use xlink:href="#DejaVuSans-6e" transform="translate(1025.537109 0)"/>
      <use xlink:href="#DejaVuSans-74" transform="translate(1088.916016 0)"/>
     </g>
    </g>
    <g id="patch_118">
     <path d="M 684.47868 96.512812 
L 704.47868 96.512812 
L 704.47868 89.512812 
L 684.47868 89.512812 
z
" style="fill: #2ca02c"/>
    </g>
    <g id="text_25">
     <!-- Negotiated settlement &amp; Sender capitulation -->
     <g transform="translate(712.47868 96.512812) scale(0.1 -0.1)">
      <defs>
       <path id="DejaVuSans-70" d="M 1159 525 
L 1159 -1331 
L 581 -1331 
L 581 3500 
L 1159 3500 
L 1159 2969 
Q 1341 3281 1617 3432 
Q 1894 3584 2278 3584 
Q 2916 3584 3314 3078 
Q 3713 2572 3713 1747 
Q 3713 922 3314 415 
Q 2916 -91 2278 -91 
Q 1894 -91 1617 61 
Q 1341 213 1159 525 
z
M 3116 1747 
Q 3116 2381 2855 2742 
Q 2594 3103 2138 3103 
Q 1681 3103 1420 2742 
Q 1159 2381 1159 1747 
Q 1159 1113 1420 752 
Q 1681 391 2138 391 
Q 2594 391 2855 752 
Q 3116 1113 3116 1747 
z
" transform="scale(0.015625)"/>
      </defs>
      <use xlink:href="#DejaVuSans-4e"/>
      <use xlink:href="#DejaVuSans-65" transform="translate(74.804688 0)"/>
      <use xlink:href="#DejaVuSans-67" transform="translate(136.328125 0)"/>
      <use xlink:href="#DejaVuSans-6f" transform="translate(199.804688 0)"/>
      <use xlink:href="#DejaVuSans-74" transform="translate(260.986328 0)"/>
      <use xlink:href="#DejaVuSans-69" transform="translate(300.195312 0)"/>
      <use xlink:href="#DejaVuSans-61" transform="translate(327.978516 0)"/>
      <use xlink:href="#DejaVuSans-74" transform="translate(389.257812 0)"/>
      <use xlink:href="#DejaVuSans-65" transform="translate(428.466797 0)"/>
      <use xlink:href="#DejaVuSans-64" transform="translate(489.990234 0)"/>
      <use xlink:href="#DejaVuSans-20" transform="translate(553.466797 0)"/>
      <use xlink:href="#DejaVuSans-73" transform="translate(585.253906 0)"/>
      <use xlink:href="#DejaVuSans-65" transform="translate(637.353516 0)"/>
      <use xlink:href="#DejaVuSans-74" transform="translate(698.876953 0)"/>
      <use xlink:href="#DejaVuSans-74" transform="translate(738.085938 0)"/>
      <use xlink:href="#DejaVuSans-6c" transform="translate(777.294922 0)"/>
      <use xlink:href="#DejaVuSans-65" transform="translate(805.078125 0)"/>
      <use xlink:href="#DejaVuSans-6d" transform="translate(866.601562 0)"/>
      <use xlink:href="#DejaVuSans-65" transform="translate(964.013672 0)"/>
      <use xlink:href="#DejaVuSans-6e" transform="translate(1025.537109 0)"/>
      <use xlink:href="#DejaVuSans-74" transform="translate(1088.916016 0)"/>
      <use xlink:href="#DejaVuSans-20" transform="translate(1128.125 0)"/>
      <use xlink:href="#DejaVuSans-26" transform="translate(1159.912109 0)"/>
      <use xlink:href="#DejaVuSans-20" transform="translate(1237.890625 0)"/>
      <use xlink:href="#DejaVuSans-53" transform="translate(1269.677734 0)"/>
      <use xlink:href="#DejaVuSans-65" transform="translate(1333.154297 0)"/>
      <use xlink:href="#DejaVuSans-6e" transform="translate(1394.677734 0)"/>
      <use xlink:href="#DejaVuSans-64" transform="translate(1458.056641 0)"/>
      <use xlink:href="#DejaVuSans-65" transform="translate(1521.533203 0)"/>
      <use xlink:href="#DejaVuSans-72" transform="translate(1583.056641 0)"/>
      <use xlink:href="#DejaVuSans-20" transform="translate(1624.169922 0)"/>
      <use xlink:href="#DejaVuSans-63" transform="translate(1655.957031 0)"/>
      <use xlink:href="#DejaVuSans-61" transform="translate(1710.9375 0)"/>
      <use xlink:href="#DejaVuSans-70" transform="translate(1772.216797 0)"/>
      <use xlink:href="#DejaVuSans-69" transform="translate(1835.693359 0)"/>
      <use xlink:href="#DejaVuSans-74" transform="translate(1863.476562 0)"/>
      <use xlink:href="#DejaVuSans-75" transform="translate(1902.685547 0)"/>
      <use xlink:href="#DejaVuSans-6c" transform="translate(1966.064453 0)"/>
      <use xlink:href="#DejaVuSans-61" transform="translate(1993.847656 0)"/>
      <use xlink:href="#DejaVuSans-74" transform="translate(2055.126953 0)"/>
      <use xlink:href="#DejaVuSans-69" transform="translate(2094.335938 0)"/>
      <use xlink:href="#DejaVuSans-6f" transform="translate(2122.119141 0)"/>
      <use xlink:href="#DejaVuSans-6e" transform="translate(2183.300781 0)"/>
     </g>
    </g>
    <g id="patch_119">
     <path d="M 684.47868 111.190938 
L 704.47868 111.190938 
L 704.47868 104.190938 
L 684.47868 104.190938 
z
" style="fill: #d62728"/>
    </g>
    <g id="text_26">
     <!-- Negotiated settlement &amp; Target complete acquiescence -->
     <g transform="translate(712.47868 111.190938) scale(0.1 -0.1)">
      <defs>
       <path id="DejaVuSans-54" d="M -19 4666 
L 3928 4666 
L 3928 4134 
L 2272 4134 
L 2272 0 
L 1638 0 
L 1638 4134 
L -19 4134 
L -19 4666 
z
" transform="scale(0.015625)"/>
      </defs>
      <use xlink:href="#DejaVuSans-4e"/>
      <use xlink:href="#DejaVuSans-65" transform="translate(74.804688 0)"/>
      <use xlink:href="#DejaVuSans-67" transform="translate(136.328125 0)"/>
      <use xlink:href="#DejaVuSans-6f" transform="translate(199.804688 0)"/>
      <use xlink:href="#DejaVuSans-74" transform="translate(260.986328 0)"/>
      <use xlink:href="#DejaVuSans-69" transform="translate(300.195312 0)"/>
      <use xlink:href="#DejaVuSans-61" transform="translate(327.978516 0)"/>
      <use xlink:href="#DejaVuSans-74" transform="translate(389.257812 0)"/>
      <use xlink:href="#DejaVuSans-65" transform="translate(428.466797 0)"/>
      <use xlink:href="#DejaVuSans-64" transform="translate(489.990234 0)"/>
      <use xlink:href="#DejaVuSans-20" transform="translate(553.466797 0)"/>
      <use xlink:href="#DejaVuSans-73" transform="translate(585.253906 0)"/>
      <use xlink:href="#DejaVuSans-65" transform="translate(637.353516 0)"/>
      <use xlink:href="#DejaVuSans-74" transform="translate(698.876953 0)"/>
      <use xlink:href="#DejaVuSans-74" transform="translate(738.085938 0)"/>
      <use xlink:href="#DejaVuSans-6c" transform="translate(777.294922 0)"/>
      <use xlink:href="#DejaVuSans-65" transform="translate(805.078125 0)"/>
      <use xlink:href="#DejaVuSans-6d" transform="translate(866.601562 0)"/>
      <use xlink:href="#DejaVuSans-65" transform="translate(964.013672 0)"/>
      <use xlink:href="#DejaVuSans-6e" transform="translate(1025.537109 0)"/>
      <use xlink:href="#DejaVuSans-74" transform="translate(1088.916016 0)"/>
      <use xlink:href="#DejaVuSans-20" transform="translate(1128.125 0)"/>
      <use xlink:href="#DejaVuSans-26" transform="translate(1159.912109 0)"/>
      <use xlink:href="#DejaVuSans-20" transform="translate(1237.890625 0)"/>
      <use xlink:href="#DejaVuSans-54" transform="translate(1269.677734 0)"/>
      <use xlink:href="#DejaVuSans-61" transform="translate(1314.261719 0)"/>
      <use xlink:href="#DejaVuSans-72" transform="translate(1375.541016 0)"/>
      <use xlink:href="#DejaVuSans-67" transform="translate(1414.904297 0)"/>
      <use xlink:href="#DejaVuSans-65" transform="translate(1478.380859 0)"/>
      <use xlink:href="#DejaVuSans-74" transform="translate(1539.904297 0)"/>
      <use xlink:href="#DejaVuSans-20" transform="translate(1579.113281 0)"/>
      <use xlink:href="#DejaVuSans-63" transform="translate(1610.900391 0)"/>
      <use xlink:href="#DejaVuSans-6f" transform="translate(1665.880859 0)"/>
      <use xlink:href="#DejaVuSans-6d" transform="translate(1727.0625 0)"/>
      <use xlink:href="#DejaVuSans-70" transform="translate(1824.474609 0)"/>
      <use xlink:href="#DejaVuSans-6c" transform="translate(1887.951172 0)"/>
      <use xlink:href="#DejaVuSans-65" transform="translate(1915.734375 0)"/>
      <use xlink:href="#DejaVuSans-74" transform="translate(1977.257812 0)"/>
      <use xlink:href="#DejaVuSans-65" transform="translate(2016.466797 0)"/>
      <use xlink:href="#DejaVuSans-20" transform="translate(2077.990234 0)"/>
      <use xlink:href="#DejaVuSans-61" transform="translate(2109.777344 0)"/>
      <use xlink:href="#DejaVuSans-63" transform="translate(2171.056641 0)"/>
      <use xlink:href="#DejaVuSans-71" transform="translate(2226.037109 0)"/>
      <use xlink:href="#DejaVuSans-75" transform="translate(2289.513672 0)"/>
      <use xlink:href="#DejaVuSans-69" transform="translate(2352.892578 0)"/>
      <use xlink:href="#DejaVuSans-65" transform="translate(2380.675781 0)"/>
      <use xlink:href="#DejaVuSans-73" transform="translate(2442.199219 0)"/>
      <use xlink:href="#DejaVuSans-63" transform="translate(2494.298828 0)"/>
      <use xlink:href="#DejaVuSans-65" transform="translate(2549.279297 0)"/>
      <use xlink:href="#DejaVuSans-6e" transform="translate(2610.802734 0)"/>
      <use xlink:href="#DejaVuSans-63" transform="translate(2674.181641 0)"/>
      <use xlink:href="#DejaVuSans-65" transform="translate(2729.162109 0)"/>
     </g>
    </g>
    <g id="patch_120">
     <path d="M 684.47868 125.869063 
L 704.47868 125.869063 
L 704.47868 118.869063 
L 684.47868 118.869063 
z
" style="fill: #8c564b"/>
    </g>
    <g id="text_27">
     <!-- Negotiated settlement &amp; Target partial acquiescence -->
     <g transform="translate(712.47868 125.869063) scale(0.1 -0.1)">
      <use xlink:href="#DejaVuSans-4e"/>
      <use xlink:href="#DejaVuSans-65" transform="translate(74.804688 0)"/>
      <use xlink:href="#DejaVuSans-67" transform="translate(136.328125 0)"/>
      <use xlink:href="#DejaVuSans-6f" transform="translate(199.804688 0)"/>
      <use xlink:href="#DejaVuSans-74" transform="translate(260.986328 0)"/>
      <use xlink:href="#DejaVuSans-69" transform="translate(300.195312 0)"/>
      <use xlink:href="#DejaVuSans-61" transform="translate(327.978516 0)"/>
      <use xlink:href="#DejaVuSans-74" transform="translate(389.257812 0)"/>
      <use xlink:href="#DejaVuSans-65" transform="translate(428.466797 0)"/>
      <use xlink:href="#DejaVuSans-64" transform="translate(489.990234 0)"/>
      <use xlink:href="#DejaVuSans-20" transform="translate(553.466797 0)"/>
      <use xlink:href="#DejaVuSans-73" transform="translate(585.253906 0)"/>
      <use xlink:href="#DejaVuSans-65" transform="translate(637.353516 0)"/>
      <use xlink:href="#DejaVuSans-74" transform="translate(698.876953 0)"/>
      <use xlink:href="#DejaVuSans-74" transform="translate(738.085938 0)"/>
      <use xlink:href="#DejaVuSans-6c" transform="translate(777.294922 0)"/>
      <use xlink:href="#DejaVuSans-65" transform="translate(805.078125 0)"/>
      <use xlink:href="#DejaVuSans-6d" transform="translate(866.601562 0)"/>
      <use xlink:href="#DejaVuSans-65" transform="translate(964.013672 0)"/>
      <use xlink:href="#DejaVuSans-6e" transform="translate(1025.537109 0)"/>
      <use xlink:href="#DejaVuSans-74" transform="translate(1088.916016 0)"/>
      <use xlink:href="#DejaVuSans-20" transform="translate(1128.125 0)"/>
      <use xlink:href="#DejaVuSans-26" transform="translate(1159.912109 0)"/>
      <use xlink:href="#DejaVuSans-20" transform="translate(1237.890625 0)"/>
      <use xlink:href="#DejaVuSans-54" transform="translate(1269.677734 0)"/>
      <use xlink:href="#DejaVuSans-61" transform="translate(1314.261719 0)"/>
      <use xlink:href="#DejaVuSans-72" transform="translate(1375.541016 0)"/>
      <use xlink:href="#DejaVuSans-67" transform="translate(1414.904297 0)"/>
      <use xlink:href="#DejaVuSans-65" transform="translate(1478.380859 0)"/>
      <use xlink:href="#DejaVuSans-74" transform="translate(1539.904297 0)"/>
      <use xlink:href="#DejaVuSans-20" transform="translate(1579.113281 0)"/>
      <use xlink:href="#DejaVuSans-70" transform="translate(1610.900391 0)"/>
      <use xlink:href="#DejaVuSans-61" transform="translate(1674.376953 0)"/>
      <use xlink:href="#DejaVuSans-72" transform="translate(1735.65625 0)"/>
      <use xlink:href="#DejaVuSans-74" transform="translate(1776.769531 0)"/>
      <use xlink:href="#DejaVuSans-69" transform="translate(1815.978516 0)"/>
      <use xlink:href="#DejaVuSans-61" transform="translate(1843.761719 0)"/>
      <use xlink:href="#DejaVuSans-6c" transform="translate(1905.041016 0)"/>
      <use xlink:href="#DejaVuSans-20" transform="translate(1932.824219 0)"/>
      <use xlink:href="#DejaVuSans-61" transform="translate(1964.611328 0)"/>
      <use xlink:href="#DejaVuSans-63" transform="translate(2025.890625 0)"/>
      <use xlink:href="#DejaVuSans-71" transform="translate(2080.871094 0)"/>
      <use xlink:href="#DejaVuSans-75" transform="translate(2144.347656 0)"/>
      <use xlink:href="#DejaVuSans-69" transform="translate(2207.726562 0)"/>
      <use xlink:href="#DejaVuSans-65" transform="translate(2235.509766 0)"/>
      <use xlink:href="#DejaVuSans-73" transform="translate(2297.033203 0)"/>
      <use xlink:href="#DejaVuSans-63" transform="translate(2349.132812 0)"/>
      <use xlink:href="#DejaVuSans-65" transform="translate(2404.113281 0)"/>
      <use xlink:href="#DejaVuSans-6e" transform="translate(2465.636719 0)"/>
      <use xlink:href="#DejaVuSans-63" transform="translate(2529.015625 0)"/>
      <use xlink:href="#DejaVuSans-65" transform="translate(2583.996094 0)"/>
     </g>
    </g>
    <g id="patch_121">
     <path d="M 684.47868 140.547188 
L 704.47868 140.547188 
L 704.47868 133.547188 
L 684.47868 133.547188 
z
" style="fill: #e377c2"/>
    </g>
    <g id="text_28">
     <!-- Sender capitulation -->
     <g transform="translate(712.47868 140.547188) scale(0.1 -0.1)">
      <use xlink:href="#DejaVuSans-53"/>
      <use xlink:href="#DejaVuSans-65" transform="translate(63.476562 0)"/>
      <use xlink:href="#DejaVuSans-6e" transform="translate(125 0)"/>
      <use xlink:href="#DejaVuSans-64" transform="translate(188.378906 0)"/>
      <use xlink:href="#DejaVuSans-65" transform="translate(251.855469 0)"/>
      <use xlink:href="#DejaVuSans-72" transform="translate(313.378906 0)"/>
      <use xlink:href="#DejaVuSans-20" transform="translate(354.492188 0)"/>
      <use xlink:href="#DejaVuSans-63" transform="translate(386.279297 0)"/>
      <use xlink:href="#DejaVuSans-61" transform="translate(441.259766 0)"/>
      <use xlink:href="#DejaVuSans-70" transform="translate(502.539062 0)"/>
      <use xlink:href="#DejaVuSans-69" transform="translate(566.015625 0)"/>
      <use xlink:href="#DejaVuSans-74" transform="translate(593.798828 0)"/>
      <use xlink:href="#DejaVuSans-75" transform="translate(633.007812 0)"/>
      <use xlink:href="#DejaVuSans-6c" transform="translate(696.386719 0)"/>
      <use xlink:href="#DejaVuSans-61" transform="translate(724.169922 0)"/>
      <use xlink:href="#DejaVuSans-74" transform="translate(785.449219 0)"/>
      <use xlink:href="#DejaVuSans-69" transform="translate(824.658203 0)"/>
      <use xlink:href="#DejaVuSans-6f" transform="translate(852.441406 0)"/>
      <use xlink:href="#DejaVuSans-6e" transform="translate(913.623047 0)"/>
     </g>
    </g>
    <g id="patch_122">
     <path d="M 684.47868 155.225313 
L 704.47868 155.225313 
L 704.47868 148.225313 
L 684.47868 148.225313 
z
" style="fill: #7f7f7f"/>
    </g>
    <g id="text_29">
     <!-- Stalemate -->
     <g transform="translate(712.47868 155.225313) scale(0.1 -0.1)">
      <use xlink:href="#DejaVuSans-53"/>
      <use xlink:href="#DejaVuSans-74" transform="translate(63.476562 0)"/>
      <use xlink:href="#DejaVuSans-61" transform="translate(102.685547 0)"/>
      <use xlink:href="#DejaVuSans-6c" transform="translate(163.964844 0)"/>
      <use xlink:href="#DejaVuSans-65" transform="translate(191.748047 0)"/>
      <use xlink:href="#DejaVuSans-6d" transform="translate(253.271484 0)"/>
      <use xlink:href="#DejaVuSans-61" transform="translate(350.683594 0)"/>
      <use xlink:href="#DejaVuSans-74" transform="translate(411.962891 0)"/>
      <use xlink:href="#DejaVuSans-65" transform="translate(451.171875 0)"/>
     </g>
    </g>
    <g id="patch_123">
     <path d="M 684.47868 169.903437 
L 704.47868 169.903437 
L 704.47868 162.903437 
L 684.47868 162.903437 
z
" style="fill: #bcbd22"/>
    </g>
    <g id="text_30">
     <!-- Target complete acquiescence -->
     <g transform="translate(712.47868 169.903437) scale(0.1 -0.1)">
      <use xlink:href="#DejaVuSans-54"/>
      <use xlink:href="#DejaVuSans-61" transform="translate(44.583984 0)"/>
      <use xlink:href="#DejaVuSans-72" transform="translate(105.863281 0)"/>
      <use xlink:href="#DejaVuSans-67" transform="translate(145.226562 0)"/>
      <use xlink:href="#DejaVuSans-65" transform="translate(208.703125 0)"/>
      <use xlink:href="#DejaVuSans-74" transform="translate(270.226562 0)"/>
      <use xlink:href="#DejaVuSans-20" transform="translate(309.435547 0)"/>
      <use xlink:href="#DejaVuSans-63" transform="translate(341.222656 0)"/>
      <use xlink:href="#DejaVuSans-6f" transform="translate(396.203125 0)"/>
      <use xlink:href="#DejaVuSans-6d" transform="translate(457.384766 0)"/>
      <use xlink:href="#DejaVuSans-70" transform="translate(554.796875 0)"/>
      <use xlink:href="#DejaVuSans-6c" transform="translate(618.273438 0)"/>
      <use xlink:href="#DejaVuSans-65" transform="translate(646.056641 0)"/>
      <use xlink:href="#DejaVuSans-74" transform="translate(707.580078 0)"/>
      <use xlink:href="#DejaVuSans-65" transform="translate(746.789062 0)"/>
      <use xlink:href="#DejaVuSans-20" transform="translate(808.3125 0)"/>
      <use xlink:href="#DejaVuSans-61" transform="translate(840.099609 0)"/>
      <use xlink:href="#DejaVuSans-63" transform="translate(901.378906 0)"/>
      <use xlink:href="#DejaVuSans-71" transform="translate(956.359375 0)"/>
      <use xlink:href="#DejaVuSans-75" transform="translate(1019.835938 0)"/>
      <use xlink:href="#DejaVuSans-69" transform="translate(1083.214844 0)"/>
      <use xlink:href="#DejaVuSans-65" transform="translate(1110.998047 0)"/>
      <use xlink:href="#DejaVuSans-73" transform="translate(1172.521484 0)"/>
      <use xlink:href="#DejaVuSans-63" transform="translate(1224.621094 0)"/>
      <use xlink:href="#DejaVuSans-65" transform="translate(1279.601562 0)"/>
      <use xlink:href="#DejaVuSans-6e" transform="translate(1341.125 0)"/>
      <use xlink:href="#DejaVuSans-63" transform="translate(1404.503906 0)"/>
      <use xlink:href="#DejaVuSans-65" transform="translate(1459.484375 0)"/>
     </g>
    </g>
    <g id="patch_124">
     <path d="M 684.47868 184.581562 
L 704.47868 184.581562 
L 704.47868 177.581562 
L 684.47868 177.581562 
z
" style="fill: #17becf"/>
    </g>
    <g id="text_31">
     <!-- Target partial acquiescence -->
     <g transform="translate(712.47868 184.581562) scale(0.1 -0.1)">
      <use xlink:href="#DejaVuSans-54"/>
      <use xlink:href="#DejaVuSans-61" transform="translate(44.583984 0)"/>
      <use xlink:href="#DejaVuSans-72" transform="translate(105.863281 0)"/>
      <use xlink:href="#DejaVuSans-67" transform="translate(145.226562 0)"/>
      <use xlink:href="#DejaVuSans-65" transform="translate(208.703125 0)"/>
      <use xlink:href="#DejaVuSans-74" transform="translate(270.226562 0)"/>
      <use xlink:href="#DejaVuSans-20" transform="translate(309.435547 0)"/>
      <use xlink:href="#DejaVuSans-70" transform="translate(341.222656 0)"/>
      <use xlink:href="#DejaVuSans-61" transform="translate(404.699219 0)"/>
      <use xlink:href="#DejaVuSans-72" transform="translate(465.978516 0)"/>
      <use xlink:href="#DejaVuSans-74" transform="translate(507.091797 0)"/>
      <use xlink:href="#DejaVuSans-69" transform="translate(546.300781 0)"/>
      <use xlink:href="#DejaVuSans-61" transform="translate(574.083984 0)"/>
      <use xlink:href="#DejaVuSans-6c" transform="translate(635.363281 0)"/>
      <use xlink:href="#DejaVuSans-20" transform="translate(663.146484 0)"/>
      <use xlink:href="#DejaVuSans-61" transform="translate(694.933594 0)"/>
      <use xlink:href="#DejaVuSans-63" transform="translate(756.212891 0)"/>
      <use xlink:href="#DejaVuSans-71" transform="translate(811.193359 0)"/>
      <use xlink:href="#DejaVuSans-75" transform="translate(874.669922 0)"/>
      <use xlink:href="#DejaVuSans-69" transform="translate(938.048828 0)"/>
      <use xlink:href="#DejaVuSans-65" transform="translate(965.832031 0)"/>
      <use xlink:href="#DejaVuSans-73" transform="translate(1027.355469 0)"/>
      <use xlink:href="#DejaVuSans-63" transform="translate(1079.455078 0)"/>
      <use xlink:href="#DejaVuSans-65" transform="translate(1134.435547 0)"/>
      <use xlink:href="#DejaVuSans-6e" transform="translate(1195.958984 0)"/>
      <use xlink:href="#DejaVuSans-63" transform="translate(1259.337891 0)"/>
      <use xlink:href="#DejaVuSans-65" transform="translate(1314.318359 0)"/>
     </g>
    </g>
   </g>
  </g>
 </g>
 <defs>
  <clipPath id="pa980cf1bf5">
   <rect x="60.32" y="35.88" width="609.068" height="230.590464"/>
  </clipPath>
 </defs>
</svg>
